SplineFontDB: 3.2
FontName: CatsPaw-Base
FullName: CatsPaw Base
FamilyName: CatsPaw
Weight: Base
Copyright: (c) 2022, Ilya Mizus aka bigfatbrowncat
Version: 001.005
ItalicAngle: 0
UnderlinePosition: -100
UnderlineWidth: 51
Ascent: 819
Descent: 205
InvalidEm: 0
sfntRevision: 0x00010000
LayerCount: 2
Layer: 0 1 "Back" 1
Layer: 1 1 "Fore" 0
XUID: [1021 519 -785824813 14359]
StyleMap: 0x0040
FSType: 0
OS2Version: 4
OS2_WeightWidthSlopeOnly: 0
OS2_UseTypoMetrics: 0
CreationTime: 1650111813
ModificationTime: 1652192480
PfmFamily: 17
TTFWeight: 400
TTFWidth: 5
LineGap: 92
VLineGap: 0
Panose: 2 0 5 3 0 0 0 0 0 0
OS2TypoAscent: 819
OS2TypoAOffset: 0
OS2TypoDescent: -205
OS2TypoDOffset: 0
OS2TypoLinegap: 92
OS2WinAscent: 958
OS2WinAOffset: 0
OS2WinDescent: 460
OS2WinDOffset: 0
HheadAscent: 958
HheadAOffset: 0
HheadDescent: -460
HheadDOffset: 0
OS2SubXSize: 666
OS2SubYSize: 717
OS2SubXOff: 0
OS2SubYOff: 143
OS2SupXSize: 666
OS2SupYSize: 717
OS2SupXOff: 0
OS2SupYOff: 492
OS2StrikeYSize: 50
OS2StrikeYPos: 264
OS2CapHeight: 823
OS2XHeight: 527
OS2Vendor: 'CLGR'
OS2CodePages: 00000004.00000000
OS2UnicodeRanges: 00000203.00000000.00000000.00000000
MarkAttachClasses: 1
DEI: 91125
TtTable: prep
PUSHW_1
 511
SCANCTRL
PUSHB_1
 4
SCANTYPE
EndTTInstrs
ShortTable: cvt  3
  33
  633
  648
EndShort
ShortTable: maxp 16
  1
  0
  287
  260
  4
  163
  4
  2
  0
  1
  1
  0
  64
  46
  1
  1
EndShort
LangName: 1033 "" "" "" "" "" "Version 001.005" "" "" "" "" "Created with Calligraphr.com" "" "" "" "" "" "Catspaw" "Regular"
GaspTable: 1 65535 15 1
Encoding: Custom
UnicodeInterp: none
NameList: AGL For New Fonts
DisplaySize: -48
AntiAlias: 1
FitToEm: 0
WinInfo: 52 26 10
BeginPrivate: 0
EndPrivate
Grid
-1024 236.25 m 0
 2048 236.25 l 1024
-1024 -378 m 0
 2048 -378 l 1024
  Named: "tail_end"
-1024 490.880004883 m 0
 2048 490.880004883 l 1024
  Named: "small_top"
EndSplineSet
BeginChars: 289 289

StartChar: .notdef
Encoding: 259 -1 0
Width: 384
Flags: W
LayerCount: 2
Fore
SplineSet
34 0 m 1,0,-1
 34 682 l 1,1,-1
 306 682 l 1,2,-1
 306 0 l 1,3,-1
 34 0 l 1,0,-1
68 34 m 1,4,-1
 272 34 l 1,5,-1
 272 648 l 1,6,-1
 68 648 l 1,7,-1
 68 34 l 1,4,-1
EndSplineSet
EndChar

StartChar: exclam
Encoding: 33 33 34
Width: 222
GlyphClass: 2
Flags: W
LayerCount: 2
Fore
SplineSet
134 34 m 0,0,1
 140 1 140 1 100 -10 c 0,2,3
 58 -21 58 -21 54 26 c 0,4,5
 50 65 50 65 89 74 c 0,6,7
 125 83 125 83 134 34 c 0,0,1
145 692 m 2,8,9
 145 692 145 692 123 262 c 0,10,11
 118 187 118 187 113 156 c 0,12,13
 111 145 111 145 98 145 c 0,14,15
 83 144 83 144 82 158 c 0,16,17
 79 189 79 189 82 264 c 0,18,19
 94 681 94 681 94 686 c 0,20,21
 93 722 93 722 116 724 c 0,22,23
 147 727 147 727 145 692 c 2,8,9
EndSplineSet
EndChar

StartChar: hyphen
Encoding: 45 45 46
Width: 343
GlyphClass: 2
Flags: W
LayerCount: 2
Fore
SplineSet
173 388 m 1,0,1
 216 383 216 383 278 393 c 0,2,3
 291 395 291 395 290 379.5 c 128,-1,4
 289 364 289 364 257 355 c 0,5,6
 229 348 229 348 176 348 c 0,7,8
 82 348 82 348 66 338 c 0,9,10
 43 325 43 325 45 347 c 0,11,12
 48 382 48 382 59 383 c 0,13,14
 110 388 110 388 173 388 c 1,0,1
EndSplineSet
EndChar

StartChar: question
Encoding: 63 63 64
Width: 490
GlyphClass: 2
Flags: W
LayerCount: 2
Back
SplineSet
70.53125 649 m 132,-1,0
 70.53125 661 70.53125 661 82.53125 661 c 132,-1,1
 94.53125 661 94.53125 661 94.53125 649 c 132,-1,2
 94.53125 637 94.53125 637 82.53125 637 c 132,-1,3
 70.53125 637 70.53125 637 70.53125 649 c 132,-1,0
EndSplineSet
Fore
SplineSet
94 657 m 0,0,1
 104 672 104 672 115 685.353013897 c 0,2,3
 153 733 153 733 209 741 c 0,4,5
 286.155124654 751.063711911 286.155124654 751.063711911 349 719 c 0,6,7
 458 661 458 661 422 516 c 0,8,9
 400 427 400 427 320 385 c 24,10,11
 206 324 206 324 209 249 c 0,12,13
 211 204 211 204 257 172 c 1,14,15
 250 168 250 168 242 164 c 1,16,17
 204 191 204 191 201 250 c 0,18,19
 198 328 198 328 316 391 c 0,20,21
 393 432 393 432 415 519 c 0,22,23
 450 663 450 663 345 713 c 0,24,25
 279.366111952 744.32526475 279.366111952 744.32526475 215 729 c 0,26,27
 174 719 174 719 114 641 c 0,28,29
 111 637 111 637 105 637.100585938 c 0,30,31
 92 637 92 637 92 648 c 0,32,33
 92 654 92 654 94 657 c 0,0,1
EndSplineSet
Refer: 287 -1 S 1 0 0 1 160 0 2
EndChar

StartChar: F
Encoding: 70 70 71
Width: 618
GlyphClass: 2
Flags: W
LayerCount: 2
Back
SplineSet
-64.3056640625 54 m 132,-1,0
 -64.3056640625 66 -64.3056640625 66 -52.3056640625 66 c 132,-1,1
 -40.3056640625 66 -40.3056640625 66 -40.3056640625 54 c 132,-1,2
 -40.3056640625 42 -40.3056640625 42 -52.3056640625 42 c 132,-1,3
 -64.3056640625 42 -64.3056640625 42 -64.3056640625 54 c 132,-1,0
EndSplineSet
Fore
SplineSet
775 798 m 1,0,1
 774 802 774 802 773 806 c 1,2,-1
 503 798.248046875 l 2,3,4
 442 797 442 797 304 788 c 1,5,-1
 303 807 l 2,6,7
 303 810 303 810 302 819 c 0,8,9
 298 819 298 819 297.5 818.5 c 0,10,11
 296 817 296 817 297 808 c 2,12,-1
 298 787 l 1,13,-1
 264 782 l 2,14,15
 173 769 173 769 146 742 c 0,16,17
 111 707 111 707 129.723318408 664 c 0,18,19
 137 647 137 647 153 629 c 0,20,21
 160 621 160 621 167 613.371944165 c 1,22,23
 169 617 169 617 180 626 c 1,24,25
 170 634 170 634 164.25 638 c 0,26,27
 140 656 140 656 136 667 c 0,28,29
 118 707 118 707 151 738 c 0,30,31
 178 764 178 764 264 776 c 2,32,-1
 299 781 l 1,33,34
 300 754 300 754 301 728 c 0,35,36
 301 607.930491641 301 607.930491641 292.98428389 500.601395839 c 1,37,38
 275.754332785 502.175696098 275.754332785 502.175696098 260 502.987060733 c 0,39,40
 218 505 218 505 156 489 c 0,41,42
 152 488 152 488 152 477 c 0,43,44
 152 471 152 471 156 472 c 0,45,46
 222 495 222 495 261 495 c 0,47,48
 274.235791885 495 274.235791885 495 292.437178634 493.411009643 c 1,49,50
 288.718062706 445.421774746 288.718062706 445.421774746 283.383611984 400 c 0,51,52
 261 216 261 216 214 82 c 0,53,54
 186 2 186 2 136 0 c 0,55,56
 107 -1 107 -1 87 16 c 0,57,58
 74 27 74 27 67.5 43 c 0,59,60
 61 62 61 62 59.56640625 63 c 0,61,62
 57 66 57 66 51.5 66.5 c 128,-1,63
 46 67 46 67 41 63 c 0,64,65
 38 61 38 61 37.767578125 56 c 0,66,67
 37 50 37 50 40 46 c 0,68,69
 77 -11 77 -11 136 -6 c 0,70,71
 194 -1 194 -1 220 77 c 0,72,73
 271.637988819 228.815687128 271.637988819 228.815687128 291.14791928 399 c 0,74,75
 296.243719321 444.357604135 296.243719321 444.357604135 299.707194722 492.732599575 c 1,76,77
 337.633146335 488.976844116 337.633146335 488.976844116 395 479 c 0,78,79
 459 468 459 468 567 484 c 0,80,81
 587 487 587 487 592 487 c 1,82,83
 592 490 592 490 592 492.831054688 c 1,84,85
 579 491 579 491 566 490 c 0,86,87
 452 477 452 477 396 486.672384216 c 0,88,89
 343.590968439 495.627351348 343.590968439 495.627351348 300.211215606 499.913930791 c 1,90,91
 307.675223039 608.434183884 307.675223039 608.434183884 307 732 c 1,92,-1
 305 781 l 1,93,94
 456 790 456 790 503 791.481445312 c 2,95,-1
 775 798 l 1,0,1
EndSplineSet
EndChar

StartChar: G
Encoding: 71 71 72
Width: 618
GlyphClass: 2
Flags: W
LayerCount: 2
Back
SplineSet
520.040039062 743 m 132,-1,0
 520.040039062 755 520.040039062 755 532.040039062 755 c 132,-1,1
 544.040039062 755 544.040039062 755 544.040039062 743 c 132,-1,2
 544.040039062 731 544.040039062 731 532.040039062 731 c 132,-1,3
 520.040039062 731 520.040039062 731 520.040039062 743 c 132,-1,0
EndSplineSet
Fore
SplineSet
299 0 m 4,0,1
 129 2 129 2 64 141 c 4,2,3
 0 279 0 279 23 435 c 4,4,5
 51 633 51 633 167 751 c 4,6,7
 250 836 250 836 413 814 c 4,8,9
 510 801 510 801 532 770 c 4,10,11
 548 746 548 746 543.5 738 c 132,-1,12
 539 730 539 730 532 730.877929688 c 4,13,14
 525 731 525 731 521 736 c 4,15,16
 488 772 488 772 479 779.063476562 c 4,17,18
 450 801 450 801 412 805 c 4,19,20
 244 823 244 823 172 747 c 4,21,22
 63 632 63 632 30 433 c 4,23,24
 6 292 6 292 69 148 c 4,25,26
 131 7 131 7 296 9 c 4,27,28
 415 10 415 10 484 72 c 4,29,30
 583 162.835051546 583 162.835051546 583 331 c 4,31,32
 583 411 583 411 573 440 c 4,33,34
 564.256370052 463.304094381 564.256370052 463.304094381 530 472.721679688 c 4,35,36
 490 484 490 484 413 484 c 4,37,38
 367 484 367 484 332 468.6171875 c 4,39,40
 271 442 271 442 241 369 c 4,41,42
 232 347 232 347 228 348 c 4,43,44
 215 353 215 353 213 356 c 5,45,46
 217 366 217 366 218 368 c 4,47,48
 266 446 266 446 330 477 c 4,49,50
 359 491 359 491 413 490.25390625 c 4,51,52
 474 490 474 490 532 478 c 4,53,54
 568.384030418 470.203422053 568.384030418 470.203422053 579 443 c 4,55,56
 591 412 591 412 591 323 c 4,57,58
 588.226478242 159.444009361 588.226478242 159.444009361 489 68 c 4,59,60
 413 -1 413 -1 299 0 c 4,0,1
EndSplineSet
EndChar

StartChar: I
Encoding: 73 73 74
Width: 410
GlyphClass: 2
Flags: W
LayerCount: 2
Back
SplineSet
-780.5 66 m 132,-1,1
 -780.5 78 -780.5 78 -768.5 78 c 132,-1,2
 -756.5 78 -756.5 78 -756.5 66 c 132,-1,3
 -756.5 54 -756.5 54 -768.5 54 c 132,-1,0
 -780.5 54 -780.5 54 -780.5 66 c 132,-1,1
EndSplineSet
Fore
SplineSet
127 86 m 0,0,1
 127 -1 127 -1 206 0 c 0,2,3
 294 1 294 1 320.001953125 233 c 0,4,5
 336 372 336 372 338.73046875 438 c 1,6,7
 340.69140625 469.966796875 340.69140625 469.966796875 341 503 c 2,8,9
 343 717 l 2,10,11
 343 762 343 762 343 807 c 0,12,13
 343 813 343 813 343 819 c 1,14,-1
 334 819 l 1,15,16
 304 802 304 802 292 797 c 0,17,18
 233.263671875 772.149414062 233.263671875 772.149414062 189 796.259765625 c 0,19,20
 115.010742188 839.393554688 115.010742188 839.393554688 75.5 786 c 0,21,22
 71 780 71 780 66 774 c 0,23,-1
 70 772 l 1,24,25
 115.193359375 834.877929688 115.193359375 834.877929688 184 790.95703125 c 0,26,27
 232.220703125 760.610351562 232.220703125 760.610351562 295 792 c 2,28,-1
 337 813 l 1,29,30
 336 717 336 717 336 617 c 0,31,32
 336 530 336 530 334 502 c 0,33,34
 333 488 333 488 332.088867188 435 c 1,35,36
 327 360 327 360 313 234 c 0,37,38
 288 6 288 6 206 6 c 1,39,40
 144 2 144 2 144 86 c 1,41,-1
 127 86 l 0,0,1
EndSplineSet
EndChar

StartChar: J
Encoding: 74 74 75
Width: 404
GlyphClass: 2
Flags: W
LayerCount: 2
Fore
SplineSet
310 518 m 0,1,2
 307.768421053 381.873684211 307.768421053 381.873684211 319 291 c 0,3,4
 327 228 327 228 337 181 c 0,5,6
 347 132 347 132 347.765625 93 c 0,7,8
 348 39 348 39 329 6 c 0,9,10
 304 -38 304 -38 245 -66 c 0,11,12
 191.161398591 -91.9222895671 191.161398591 -91.9222895671 123 -91.7463513491 c 0,13,14
 64.7331577349 -91.5959529622 64.7331577349 -91.5959529622 -4 -72.3743995684 c 0,15,16
 -60.7550337475 -56.5025853307 -60.7550337475 -56.5025853307 -93.5 -20 c 0,17,18
 -108 -4 -108 -4 -110 13 c 0,19,20
 -112 28 -112 28 -104 31 c 0,21,22
 -100 33 -100 33 -95 31.626953125 c 0,23,24
 -88 30 -88 30 -86 23 c 0,25,26
 -83 11 -83 11 -74.6201171875 -6 c 0,27,28
 -52 -51 -52 -51 -2 -66.604256707 c 0,29,30
 63.9380440406 -87.1900871561 63.9380440406 -87.1900871561 122 -86.7589718743 c 0,31,32
 186.334939426 -86.2812791221 186.334939426 -86.2812791221 241 -60 c 0,33,34
 304 -30 304 -30 324 11 c 0,35,36
 341 46 341 46 340.810546875 94 c 0,37,38
 341 130 341 130 330 178 c 0,39,40
 320 221 320 221 312 298 c 0,41,42
 299 428 299 428 302 518 c 0,43,44
 303.555938666 568.568006645 303.555938666 568.568006645 318.42707556 719 c 0,45,46
 322.671263992 761.93294659 322.671263992 761.93294659 328 813 c 1,47,-1
 286 792 l 2,48,49
 223 761 223 761 175 790.95703125 c 0,50,51
 106 835 106 835 61 772 c 1,52,-1
 57 774 l 0,53,54
 62 780 62 780 66.5 786 c 0,55,56
 106 839 106 839 180 796.259765625 c 0,57,58
 223 771 223 771 283 797 c 0,59,60
 295 802 295 802 325 819 c 1,61,-1
 334 819 l 1,62,63
 336 808 336 808 334 807 c 0,64,65
 334.538169737 806.227753952 334.538169737 806.227753952 326 718 c 0,66,67
 311 569 311 569 310 518 c 0,1,2
EndSplineSet
EndChar

StartChar: L
Encoding: 76 76 77
Width: 742
GlyphClass: 2
Flags: W
LayerCount: 2
Back
SplineSet
662.987304688 221 m 132,-1,1
 662.987304688 233 662.987304688 233 674.987304688 233 c 132,-1,2
 686.987304688 233 686.987304688 233 686.987304688 221 c 132,-1,3
 686.987304688 209 686.987304688 209 674.987304688 209 c 132,-1,0
 662.987304688 209 662.987304688 209 662.987304688 221 c 132,-1,1
EndSplineSet
Fore
SplineSet
652 214 m 0,0,1
 656.548142182 185.574111365 656.548142182 185.574111365 652.938476562 163 c 0,2,3
 647 128 647 128 627 94 c 0,4,5
 574 6 574 6 466 7 c 0,6,7
 382 7 382 7 312 152 c 0,8,9
 286 205 286 205 253 253 c 1,10,-1
 276 363 l 0,11,12
 327 605 327 605 331 627 c 4,13,14
 342 693 342 693 367 792 c 256,15,16
 369 800 369 800 370 807 c 1,17,18
 365 810 365 810 354 811 c 1,19,20
 353 810 353 810 351 793 c 0,21,22
 344 753 344 753 324.041992188 629 c 0,23,24
 320 604 320 604 269.361328125 364 c 0,25,-1
 248 260 l 1,26,27
 221 298 221 298 187 298.035502959 c 0,28,29
 99 298 99 298 57 189 c 0,30,31
 33 126 33 126 33.0256411569 84 c 0,32,33
 33 1 33 1 104 0.148853688133 c 0,34,35
 117 -0 117 -0 133 4 c 0,36,37
 180 16 180 16 211 104 c 0,38,39
 236 176 236 176 251 245 c 1,40,41
 280 201 280 201 306.06640625 148 c 0,42,43
 379 0 379 0 465 0 c 0,44,45
 580 0 580 0 633.406423577 90 c 0,46,47
 652 121 652 121 663.339753238 163 c 0,48,49
 675 204 675 204 675 222 c 0,50,51
 675 233 675 233 665 233.0703125 c 0,52,53
 658 233 658 233 655 231 c 0,54,55
 649 226 649 226 652 214 c 0,0,1
130.5 10 m 0,56,57
 117 6 117 6 105 6.23840967946 c 0,58,59
 42 7 42 7 41.7345569231 81 c 0,60,61
 42 122 42 122 64 186 c 0,62,63
 100 290 100 290 186 291.122523527 c 0,64,65
 220 292 220 292 246 251 c 1,66,67
 226 167 226 167 204 106 c 1,68,69
 175 23 175 23 130.5 10 c 0,56,57
EndSplineSet
EndChar

StartChar: N
Encoding: 78 78 79
Width: 870
GlyphClass: 2
Flags: W
LayerCount: 2
Fore
SplineSet
839 814 m 0,0,1
 837 814 837 814 836 814 c 1,2,3
 822 754 822 754 808 694 c 24,4,5
 744 415 744 415 719.563476562 330 c 0,6,7
 649 88 649 88 573 20 c 1,8,9
 538 23 538 23 552 146 c 0,10,11
 562.144984942 233.92320283 562.144984942 233.92320283 580.840907935 492 c 0,12,13
 582.429023172 517.008622349 582.429023172 517.008622349 591 606 c 2,14,-1
 607.180490122 774 l 2,15,16
 612 820 612 820 568 819 c 0,17,18
 529 819 529 819 507 706 c 0,19,20
 470 517 470 517 417.738639896 378 c 0,21,22
 330 147 330 147 202 55.6645782062 c 0,23,24
 135 8 135 8 58 6 c 0,25,26
 10 5 10 5 -13 26 c 0,27,28
 -28 40 -28 40 -30 69 c 0,29,30
 -31 84 -31 84 -32 95 c 1,31,32
 -36 95 -36 95 -39 95 c 1,33,-1
 -37 69 l 0,34,35
 -35 39 -35 39 -18 21 c 0,36,37
 3 -1 3 -1 60 -1 c 0,38,39
 139 -1 139 -1 207 49.068174686 c 0,40,41
 337 144 337 144 425.43129273 376 c 0,42,43
 481 522 481 522 514 704 c 0,44,45
 534 813 534 813 572 813 c 0,46,47
 603 813 603 813 600.260742188 777 c 0,48,49
 599 763 599 763 583.385143921 606 c 2,50,-1
 574 490.879882812 l 1,51,-1
 545 147 l 0,52,53
 531 15 531 15 574 12.5 c 1,54,55
 664 89 664 89 726.145507812 330 c 0,56,57
 790 580 790 580 814.635742188 694 c 0,58,59
 827 751 827 751 839 808 c 1,60,-1
 842 808.081081081 l 0,61,62
 927 808 927 808 972 818.491210938 c 24,63,-1
 975 819 l 1,64,-1
 974 824 l 17,65,66
 925 814 925 814 839 814 c 0,0,1
EndSplineSet
EndChar

StartChar: Q
Encoding: 81 81 82
Width: 856
GlyphClass: 2
Flags: W
LayerCount: 2
Back
SplineSet
1463.04785156 112 m 132,-1,1
 1463.04785156 124 1463.04785156 124 1475.04785156 124 c 132,-1,2
 1487.04785156 124 1487.04785156 124 1487.04785156 112 c 132,-1,3
 1487.04785156 100 1487.04785156 100 1475.04785156 100 c 132,-1,0
 1463.04785156 100 1463.04785156 100 1463.04785156 112 c 132,-1,1
EndSplineSet
Fore
SplineSet
220 12 m 0,0,1
 104 55 104 55 81 201 c 0,2,3
 62 327 62 327 85 453 c 0,4,5
 115 619 115 619 196 708 c 0,6,7
 262 781 262 781 347.5 811 c 0,8,9
 362 816 362 816 405 818 c 0,10,11
 496 822 496 822 486 781.5 c 0,12,13
 484 773 484 773 489 771 c 0,14,15
 517 763 517 763 527 752 c 0,16,17
 568 710 568 710 586 586 c 0,18,19
 595.098455475 520.796534289 595.098455475 520.796534289 593.23828125 446 c 0,20,21
 591 355 591 355 579 286 c 0,22,23
 565.517699115 207.802654867 565.517699115 207.802654867 513 119 c 0,24,25
 466 40 466 40 421 19 c 0,26,27
 377 -1 377 -1 312 -0.396484375 c 0,28,29
 252 0 252 0 220 12 c 0,0,1
418 25 m 0,30,31
 467 55 467 55 506 122 c 0,32,33
 555 207 555 207 572 288 c 0,34,35
 585.129882812 354.525390625 585.129882812 354.525390625 586.69921875 445 c 0,36,37
 588 520 588 520 578.5 583.5 c 0,38,39
 561.821289062 709.366210938 561.821289062 709.366210938 516 748 c 0,40,41
 499 762 499 762 485 762 c 0,42,43
 467 762 467 762 474 775 c 0,44,45
 498 816 498 816 391 811 c 0,46,47
 306 807 306 807 202 703 c 0,48,49
 126 627 126 627 92 451 c 0,50,51
 70 337 70 337 88 203 c 0,52,53
 106 65 106 65 225 18 c 0,54,55
 256 6 256 6 312 5.703125 c 0,56,57
 386 6 386 6 418 25 c 0,30,31
227 139 m 0,58,59
 106 4 106 4 321 6 c 1,60,-1
 321 0 l 1,61,62
 100 0 100 0 222 142 c 0,63,64
 328 266 328 266 436 146 c 0,65,66
 547 22 547 22 600 12 c 0,67,68
 705 -7 705 -7 767 100 c 0,69,70
 778 119 778 119 778.993164062 120 c 0,71,72
 781 123 781 123 787 124 c 0,73,74
 793 124 793 124 797 122.227539062 c 0,75,76
 800 120 800 120 801 116 c 128,-1,77
 802 112 802 112 801 108 c 0,78,79
 790 68 790 68 745 40 c 0,80,81
 668 -7 668 -7 599 4 c 0,82,83
 543 13 543 13 431 142 c 0,84,85
 332 256 332 256 227 139 c 0,58,59
EndSplineSet
EndChar

StartChar: R
Encoding: 82 82 83
Width: 772
GlyphClass: 2
Flags: W
LayerCount: 2
Fore
SplineSet
572.952148438 116 m 4,0,1
 573 197 573 197 593 251 c 4,2,3
 631 354 631 354 500 412 c 4,4,5
 363 472 363 472 276 380 c 5,6,-1
 277 386 l 5,7,8
 365 479 365 479 503 418 c 4,9,10
 639 358 639 358 600 249 c 4,11,12
 581 196 581 196 579.90625 139 c 4,13,14
 577 7 577 7 650 6 c 4,15,16
 675 6 675 6 703 41 c 4,17,18
 717 58 717 58 719 59.5 c 4,19,20
 722 61 722 61 728 61 c 4,21,22
 732 61 732 61 737 56 c 4,23,24
 739 54 739 54 739 50 c 4,25,26
 739 45 739 45 736.134765625 40 c 4,27,28
 733 35 733 35 722 28 c 4,29,30
 677 0 677 0 649.599609375 0 c 4,31,32
 572 0 572 0 572.952148438 116 c 4,0,1
101 54 m 4,33,34
 63 96 63 96 33 143 c 5,35,36
 36 147 36 147 48 156 c 5,37,38
 73 100 73 100 107 58 c 5,39,40
 153 8 153 8 220 8 c 4,41,42
 311 8 311 8 309.586914062 289 c 4,43,44
 309 456 309 456 249 603 c 4,45,46
 214 690 214 690 190 738 c 5,47,48
 158 719 158 719 129 699 c 260,49,50
 73 660 73 660 52 618 c 132,-1,51
 31 576 31 576 50 527 c 132,-1,52
 69 478 69 478 114 508 c 4,53,54
 125 515 125 515 132 506 c 4,55,56
 138 498 138 498 131 489 c 4,57,58
 120 475 120 475 96 475 c 4,59,60
 55 475 55 475 39 526 c 4,61,62
 24 574 24 574 45 619 c 4,63,64
 67 664 67 664 125 705 c 4,65,66
 197 756 197 756 252 776 c 4,67,68
 367 819 367 819 449 819.381835938 c 4,69,70
 573 820 573 820 620 723 c 4,71,72
 675 608 675 608 607 480 c 4,73,74
 573 415 573 415 530 391 c 4,75,76
 494 371 494 371 436 370 c 4,77,78
 368 369 368 369 276 380 c 261,79,-1
 277 386 l 5,80,81
 400 375 400 375 433 376 c 4,82,83
 492 377 492 377 525 396 c 4,84,85
 571 424 571 424 600 483 c 4,86,87
 664 613 664 613 614 718 c 4,88,89
 568 813 568 813 448 812.708984375 c 4,90,91
 361 812 361 812 253 769.073242188 c 4,92,93
 220 756 220 756 197 742 c 5,94,95
 219 700 219 700 258 605 c 4,96,97
 319 457 319 457 318.076171875 288 c 4,98,99
 318 -2 318 -2 218 0 c 4,100,101
 149 1 149 1 101 54 c 4,33,34
EndSplineSet
EndChar

StartChar: S
Encoding: 83 83 84
Width: 641
GlyphClass: 2
Flags: W
LayerCount: 2
Back
SplineSet
478.392578125 599 m 132,-1,0
 478.392578125 611 478.392578125 611 490.392578125 611 c 132,-1,1
 502.392578125 611 502.392578125 611 502.392578125 599 c 132,-1,2
 502.392578125 587 502.392578125 587 490.392578125 587 c 132,-1,3
 478.392578125 587 478.392578125 587 478.392578125 599 c 132,-1,0
EndSplineSet
Fore
SplineSet
255 438 m 0,0,1
 188 433 188 433 127 491 c 0,2,3
 75 541 75 541 74.5 616 c 0,4,5
 74 752 74 752 196 797 c 0,6,7
 240 813 240 813 294 812 c 0,8,9
 443 809 443 809 528 733 c 0,10,11
 564 701 564 701 557 650 c 0,12,13
 555 635 555 635 538 622 c 0,14,15
 519 608 519 608 498 611 c 0,16,17
 492 612 492 612 488.5 609.5 c 128,-1,18
 485 607 485 607 484 602 c 0,19,20
 482 591 482 591 493.5 587 c 128,-1,21
 505 583 505 583 524 588 c 0,22,23
 561 598 561 598 564 649 c 0,24,25
 567 710 567 710 534 738 c 0,26,27
 439 821 439 821 293 819 c 0,28,29
 227 818 227 818 192 804 c 0,30,31
 69 755 69 755 67 619.5 c 0,32,33
 66 539 66 539 122 486.5 c 0,34,35
 188 424 188 424 256 430 c 0,36,37
 302 434 302 434 348 437 c 0,38,39
 461.330402834 442.104973101 461.330402834 442.104973101 524 372 c 0,40,41
 582 306 582 306 582 221 c 0,42,43
 581.267080745 169.695652174 581.267080745 169.695652174 568 131 c 0,44,45
 523 -1 523 -1 293 5 c 0,46,47
 146 9 146 9 90 65.775390625 c 0,48,49
 73 83 73 83 59 155 c 1,50,51
 52 156 52 156 42.8750139219 155 c 1,52,53
 43 142 43 142 49 121 c 0,54,55
 60 86 60 86 84 61.6737461079 c 0,56,57
 145 -0 145 -0 293 -1 c 0,58,59
 532 -3 532 -3 574 129 c 0,60,61
 589 177 589 177 589.332440511 220 c 0,62,63
 590 308 590 308 528 378 c 0,64,65
 461 452 461 452 347 444 c 0,66,67
 260 438 260 438 255 438 c 0,0,1
EndSplineSet
EndChar

StartChar: T
Encoding: 84 84 85
Width: 580
GlyphClass: 2
Flags: W
LayerCount: 2
Fore
SplineSet
665 798 m 1,0,1
 664 802 664 802 663 806 c 1,2,-1
 393 798.248046875 l 0,3,4
 374 797 374 797 340 795 c 1,5,-1
 339 814 l 0,6,7
 339 817 339 817 338 826 c 1,8,9
 334 826 334 826 333.5 825.5 c 0,10,11
 332 824 332 824 333 815 c 0,12,-1
 334 794 l 1,13,-1
 154 782 l 26,14,15
 70 776 70 776 36 742 c 0,16,17
 1 707 1 707 19.7236328125 664 c 0,18,19
 27 647 27 647 43 629 c 0,20,21
 50 621 50 621 57 613.372070312 c 1,22,23
 59 617 59 617 70 626 c 1,24,25
 60 634 60 634 54.25 638 c 0,26,27
 30 656 30 656 26 667 c 0,28,29
 8 707 8 707 41 738 c 0,30,31
 68 764 68 764 154 776 c 24,32,-1
 335 788 l 1,33,34
 336 761 336 761 337 735 c 0,35,36
 337 557 337 557 319.383789062 407 c 0,37,38
 297 223 297 223 250 89 c 0,39,40
 222 9 222 9 172 7 c 0,41,42
 143 6 143 6 123 23 c 0,43,44
 110 34 110 34 103.5 50 c 0,45,46
 97 69 97 69 95.56640625 70 c 0,47,48
 93 73 93 73 87.5 73.5 c 128,-1,49
 82 74 82 74 77 70 c 0,50,51
 74 68 74 68 73.767578125 63 c 0,52,53
 73 57 73 57 76 53 c 0,54,55
 110.467773438 -0.0986328125 110.467773438 -0.0986328125 172 1 c 0,56,57
 228 2 228 2 256 84 c 0,58,59
 306 231 306 231 327.147460938 406 c 0,60,61
 350 594 350 594 343 739 c 0,62,-1
 341 788 l 1,63,64
 386 791 386 791 393 791.481445312 c 0,65,-1
 665 798 l 1,0,1
EndSplineSet
EndChar

StartChar: V
Encoding: 86 86 87
Width: 705
GlyphClass: 2
Flags: W
LayerCount: 2
Fore
SplineSet
616.49609375 672 m 0,0,1
 623 715 623 715 642 819 c 1,2,3
 632 819 632 819 621 819 c 1,4,5
 620 806 620 806 619 794 c 0,6,-1
 607 673 l 1,7,8
 567 395 567 395 550.2890625 319 c 1,9,10
 509 149 509 149 435 72.2763671875 c 0,11,12
 371 7 371 7 333 6 c 0,13,14
 283 5 283 5 239.803710938 122 c 0,15,16
 175 296 175 296 176.319335938 529 c 0,17,18
 177 607 177 607 180.579101562 708 c 0,19,20
 183 769 183 769 183 807 c 0,21,22
 183 813 183 813 183 819 c 0,23,-1
 179 819 l 0,24,25
 175 819 175 819 173.75 818.25 c 0,26,27
 155 801 155 801 152 797 c 0,28,29
 132 778 132 778 113 778.413085938 c 0,30,31
 99 779 99 779 89 786 c 0,32,33
 75 796 75 796 65 795.25 c 0,34,35
 54 795 54 795 49.5 788 c 0,36,37
 43 778 43 778 42 774 c 0,38,-1
 47 771 l 1,39,40
 54 790 54 790 66 789.693359375 c 0,41,42
 73 789 73 789 85 782 c 0,43,44
 100 772 100 772 114 772.47265625 c 0,45,46
 135.09765625 773.002929688 135.09765625 773.002929688 155 792 c 2,47,-1
 177 813 l 1,48,49
 175 753 175 753 174.083984375 708 c 0,50,51
 172 606 172 606 171.591796875 529 c 0,52,53
 172 287 172 287 234.33984375 120 c 0,54,55
 279 0 279 0 333 0 c 0,56,57
 374 0 374 0 439 68.234375 c 0,58,59
 519 152 519 152 557.205078125 319 c 0,60,61
 572 383 572 383 616.49609375 672 c 0,0,1
EndSplineSet
EndChar

StartChar: W
Encoding: 87 87 88
Width: 999
GlyphClass: 2
Flags: W
LayerCount: 2
Fore
SplineSet
536.591796875 599 m 17,0,1
 533 447 533 447 533.497070312 416 c 0,2,3
 534 194 534 194 564.33984375 120 c 0,4,5
 612 0 612 0 663 0 c 0,6,7
 704 0 704 0 769 68.234375 c 0,8,9
 868 173 868 173 887.205078125 319 c 0,10,11
 913 515 913 515 924.49609375 672 c 0,12,13
 930 750 930 750 943 819 c 1,14,15
 921.515625 829.989257812 921.515625 829.989257812 922 819 c 0,16,17
 924.756835938 770.05859375 924.756835938 770.05859375 918 673 c 0,18,19
 907 515 907 515 880.2890625 319 c 1,20,21
 861 175 861 175 765 72.2763671875 c 0,22,23
 706.323242188 7.1396484375 706.323242188 7.1396484375 663 6 c 0,24,25
 616 5 616 5 569.803710938 122 c 0,26,27
 542 192 542 192 537.633789062 417 c 0,28,29
 537 451 537 451 541.319335938 599 c 9,30,-1
 536.591796875 599 l 17,0,1
539.49609375 472 m 0,31,32
 546 586 546 586 553 699 c 1,33,34
 543 699 543 699 532 699 c 1,35,36
 533 586 533 586 534 473 c 1,37,38
 514 174 514 174 415 72.2763671875 c 0,39,40
 353 7 353 7 313 6 c 0,41,42
 263 5 263 5 219.803710938 122 c 0,43,44
 146.762695312 318.1171875 146.762695312 318.1171875 160.579101562 708 c 0,45,46
 163 769 163 769 163 807 c 0,47,48
 163 813 163 813 163 819 c 0,49,-1
 159 819 l 0,50,51
 155 819 155 819 153.75 818.25 c 0,52,53
 135 801 135 801 132 797 c 0,54,55
 112 778 112 778 93 778.413085938 c 0,56,57
 79 779 79 779 69 786 c 0,58,59
 55 796 55 796 45 795.25 c 0,60,61
 34 795 34 795 29.5 788 c 0,62,63
 23 778 23 778 22 774 c 0,64,-1
 27 771 l 1,65,66
 34 790 34 790 46 789.693359375 c 0,67,68
 53 789 53 789 65 782 c 0,69,70
 80 772 80 772 94 772.47265625 c 0,71,72
 115.09765625 773.002929688 115.09765625 773.002929688 135 792 c 2,73,-1
 157 813 l 1,74,75
 155 753 155 753 154.083984375 708 c 0,76,77
 145.8203125 303.553710938 145.8203125 303.553710938 214.33984375 120 c 0,78,79
 259 0 259 0 313 0 c 0,80,81
 352 0 352 0 419 68.234375 c 0,82,83
 521 172 521 172 539.49609375 472 c 0,31,32
EndSplineSet
EndChar

StartChar: Z
Encoding: 90 90 91
Width: 735
GlyphClass: 2
Flags: W
LayerCount: 2
Fore
SplineSet
478 485 m 16,0,1
 569 643 569 643 611 754 c 1,2,3
 621 789 621 789 616 800 c 0,4,5
 599 837 599 837 527 795 c 0,6,7
 490 774 490 774 444 773.962890625 c 0,8,9
 396 774 396 774 337 799 c 0,10,11
 291 819 291 819 250 818.669921875 c 0,12,13
 201 819 201 819 158 791 c 0,14,-1
 70 725 l 0,15,16
 78 709 78 709 88 720 c 0,17,18
 114 749 114 749 161 783.575195312 c 0,19,20
 194 809 194 809 249 811.279296875 c 0,21,22
 286 813 286 813 333 792 c 0,23,24
 389 767 389 767 443 767.228515625 c 0,25,26
 494 767 494 767 532 789 c 0,27,28
 599 828 599 828 610 795 c 0,29,30
 613 786 613 786 602 754 c 0,31,32
 567 653 567 653 472 490 c 0,33,-1
 362.361328125 304 l 0,34,-1
 301 198 l 1,35,36
 241 298 241 298 190 298.03515625 c 0,37,38
 113 298 113 298 71 189 c 0,39,40
 47 126 47 126 47.025390625 84 c 0,41,42
 47 22 47 22 86.2255859375 6 c 0,43,44
 100 0 100 0 118 0.1484375 c 0,45,46
 183 0 183 0 232.657226562 73 c 0,47,48
 285 150 285 150 303 185 c 1,49,-1
 320.06640625 148 l 0,50,51
 393 0 393 0 479 0 c 0,52,53
 594 0 594 0 647.40625 90 c 0,54,55
 666 121 666 121 677.33984375 163 c 0,56,57
 689 204 689 204 689 222 c 0,58,59
 689 233 689 233 679 233.0703125 c 0,60,61
 672 233 672 233 669 231 c 0,62,63
 664 227 664 227 666 214 c 0,64,65
 671 186 671 186 666.938476562 163 c 0,66,67
 661 128 661 128 641 94 c 0,68,69
 588 6 588 6 480 7 c 0,70,71
 400 7 400 7 326 152 c 0,72,-1
 306 191 l 1,73,-1
 368 301 l 0,74,-1
 478 485 l 16,0,1
119 6.23828125 m 0,75,76
 101 6 101 6 87.412109375 13 c 0,77,78
 56 29 56 29 55.734375 81 c 0,79,80
 56 122 56 122 78 186 c 0,81,82
 115 291 115 291 189 291.122070312 c 0,83,84
 236 291 236 291 298 191 c 1,85,86
 282 160 282 160 228.223632812 79 c 0,87,88
 180 6 180 6 119 6.23828125 c 0,75,76
EndSplineSet
EndChar

StartChar: underscore
Encoding: 95 95 96
Width: 343
GlyphClass: 2
Flags: W
LayerCount: 2
Fore
SplineSet
173 25 m 1,0,1
 211 21 211 21 278 30 c 0,2,3
 292 32 292 32 290 21 c 0,4,5
 289 11 289 11 257 2 c 0,6,7
 229 -5 229 -5 176 -5 c 0,8,9
 82 -5 82 -5 66 -14 c 0,10,11
 43 -28 43 -28 45 -6 c 0,12,13
 48 19 48 19 59 20 c 0,14,15
 110 25 110 25 173 25 c 1,0,1
EndSplineSet
EndChar

StartChar: d
Encoding: 100 100 101
Width: 473
GlyphClass: 2
Flags: W
LayerCount: 2
Fore
SplineSet
323 111 m 0,0,1
 323 100 323 100 323.342425273 90.833611485 c 1,2,3
 313 69 313 69 301.5 52 c 0,4,5
 274 11 274 11 200 6 c 0,6,7
 143 2 143 2 111 24 c 0,8,9
 63 56 63 56 48 122 c 0,10,11
 29 204 29 204 63 302 c 0,12,13
 91.3749216653 383.255457496 91.3749216653 383.255457496 120.166992188 427 c 0,14,15
 159 486 159 486 219 486 c 0,16,17
 267 485 267 485 301 457.143554688 c 0,18,19
 334 430 334 430 350.760870262 397.462378948 c 1,20,-1
 340 330 l 2,21,22
 324 229 324 229 323 111 c 0,0,1
352.060521485 405.610192387 m 1,23,24
 335 436 335 436 304 462 c 0,25,26
 272 489 272 489 218 491 c 0,27,28
 157.475666075 493.928596803 157.475666075 493.928596803 116 431 c 0,29,30
 87 387 87 387 58 305 c 0,31,32
 22 203 22 203 42 120 c 0,33,34
 59 50 59 50 107 19 c 0,35,36
 142 -3 142 -3 200.5 0.5 c 0,37,38
 276 5 276 5 306.463867188 48 c 0,39,40
 316 61 316 61 324.19616717 78.1439918644 c 1,41,42
 331 0 331 0 379.599609375 0 c 0,43,44
 407 0 407 0 452 28 c 0,45,46
 463 35 463 35 466.134765625 40 c 0,47,48
 469 45 469 45 469 50 c 0,49,50
 469 54 469 54 467 56 c 0,51,52
 462 61 462 61 458 61 c 0,53,54
 452 61 452 61 449 59.5 c 0,55,56
 447 58 447 58 433 41 c 0,57,58
 404 5 404 5 376 5 c 0,59,60
 329 5 329 5 329 123 c 0,61,62
 329 224.772151899 329 224.772151899 346 330 c 2,63,-1
 425 819 l 1,64,-1
 418 819 l 1,65,-1
 352.060521485 405.610192387 l 1,23,24
EndSplineSet
EndChar

StartChar: f
Encoding: 102 102 103
Width: 290
GlyphClass: 2
Flags: W
LayerCount: 2
Back
SplineSet
273.5625 845 m 128,-1,0
 273.5625 857 273.5625 857 285.5625 857 c 128,-1,1
 297.5625 857 297.5625 857 297.5625 845 c 128,-1,2
 297.5625 833 297.5625 833 285.5625 833 c 128,-1,3
 273.5625 833 273.5625 833 273.5625 845 c 128,-1,0
EndSplineSet
Fore
SplineSet
-55 -149 m 1,0,1
 -60 -146 -60 -146 -57 -140 c 0,2,3
 -56 -138 -56 -138 -54 -137 c 1,4,5
 2 -179 2 -179 37 -190 c 0,6,7
 97.0230562106 -209.87569023 97.0230562106 -209.87569023 131 -186 c 0,8,9
 176 -155 176 -155 173 -28 c 1,10,11
 173 74 173 74 155 213 c 0,12,-1
 121 478 l 1,13,14
 59 487 59 487 36 472 c 0,15,16
 28 467 28 467 24 453 c 0,17,-1
 11 459 l 1,18,19
 13 472 13 472 30 481 c 0,20,21
 51 493 51 493 121 484 c 1,22,23
 116 523 116 523 109 611 c 0,24,25
 107 638 107 638 94 764 c 0,26,27
 86 846 86 846 116 876 c 0,28,29
 144 904 144 904 206 886 c 0,30,31
 231 879 231 879 246 870 c 0,32,33
 278 850 278 850 264 836.5 c 128,-1,34
 250 823 250 823 231 850 c 0,35,36
 216 872 216 872 202 877 c 0,37,38
 145 897 145 897 120 871 c 128,-1,39
 95 845 95 845 102 767 c 0,40,41
 116 621 116 621 117 616 c 0,42,43
 118 584 118 584 128 483 c 1,44,45
 201 481 201 481 273 493 c 1,46,47
 273 490 273 490 273 488 c 0,48,-1
 239 483 l 0,49,50
 202 476 202 476 129 477 c 1,51,52
 143.072122053 388.123439667 143.072122053 388.123439667 163 215 c 0,53,54
 180 72 180 72 179 -28 c 24,55,56
 179.39446964 -161.812542859 179.39446964 -161.812542859 136 -192 c 0,57,58
 98 -219 98 -219 35 -197 c 0,59,60
 -2 -184 -2 -184 -55 -149 c 1,0,1
EndSplineSet
EndChar

StartChar: h
Encoding: 104 104 105
Width: 517
GlyphClass: 2
Flags: W
LayerCount: 2
Fore
SplineSet
153 819.879882812 m 1,0,1
 142 728 142 728 104 430 c 1,2,3
 117 491 117 491 243 491.76171875 c 0,4,5
 311 492 311 492 348 450 c 0,6,7
 381 413 381 413 374 296 c 0,8,9
 368 197 368 197 346.37890625 102 c 0,10,11
 341 79 341 79 341.6640625 58 c 0,12,13
 342 44 342 44 347.401367188 29 c 0,14,15
 356 5 356 5 387.5 6 c 0,16,17
 416 7 416 7 444 41 c 0,18,19
 458 58 458 58 460 59.5 c 0,20,21
 463 61 463 61 469 61 c 0,22,23
 473 61 473 61 478 56 c 0,24,25
 480 54 480 54 480 50 c 0,26,27
 480 45 480 45 477.134765625 40 c 0,28,29
 474 35 474 35 463 28 c 0,30,31
 418 0 418 0 390.599609375 0 c 0,32,33
 352 0 352 0 342.662109375 27 c 0,34,35
 337 43 337 43 336.002929688 63.994140625 c 0,36,-1
 336 64 l 0,37,-1
 336.000976562 64.44140625 l 0,38,-1
 336 65 l 2,39,-1
 336.004882812 65.017578125 l 2,40,41
 336 80 336 80 340.572265625 103 c 0,42,43
 363 217 363 217 368 295 c 0,44,45
 375 408 375 408 344 445 c 0,46,47
 309 485 309 485 242 486.094726562 c 0,48,49
 118 489 118 489 103 412 c 0,50,51
 101 402 101 402 99.2392578125 391 c 0,52,53
 82 282 82 282 81.7138671875 280 c 0,54,55
 57 93 57 93 57.595703125 2 c 0,56,57
 57 -2 57 -2 44 -0.646484375 c 0,58,59
 38.1859702974 -0.0200378152451 38.1859702974 -0.0200378152451 38.5849609375 3 c 2,60,-1
 75.1806640625 280 l 1,61,-1
 95 413 l 1,62,-1
 146 819.879882812 l 0,63,64
 151 820 151 820 153 819.879882812 c 1,0,1
EndSplineSet
EndChar

StartChar: i
Encoding: 105 105 106
Width: 253
GlyphClass: 2
Flags: W
LayerCount: 2
Fore
SplineSet
87.240234375 414 m 24,0,1
 90 438 90 438 93 462 c 0,2,-1
 96 490 l 1,3,4
 98 491 98 491 107 490.879882812 c 0,5,6
 112 491 112 491 112 490 c 0,7,-1
 107 458 l 0,8,9
 107 456 107 456 99.646484375 415 c 0,10,11
 83 309 83 309 76.478515625 227 c 0,12,13
 71 162 71 162 71 123 c 8,14,15
 71 5 71 5 118 5 c 0,16,17
 146 5 146 5 175 41 c 0,18,19
 189 58 189 58 191 59.5 c 0,20,21
 194 61 194 61 200 61 c 0,22,23
 204 61 204 61 209 56 c 0,24,25
 211 54 211 54 211 50 c 0,26,27
 211 45 211 45 208.134765625 40 c 0,28,29
 205 35 205 35 194 28 c 0,30,31
 149 0 149 0 121.599609375 0 c 0,32,33
 64 0 64 0 65 111 c 0,34,35
 65 174 65 174 69.4642014793 227 c 0,36,37
 80 357 80 357 87.240234375 414 c 24,0,1
68.5712890625 83 m 1,38,39
 68 88 68 88 68 90 c 0,40,-1
 66.78515625 94 l 1025
EndSplineSet
Refer: 287 -1 S 1 0 0 1 60 578 2
EndChar

StartChar: j
Encoding: 106 106 107
Width: 286
GlyphClass: 2
Flags: W
LayerCount: 2
Fore
SplineSet
125 -62 m 0,0,1
 163 -312 163 -312 75 -361.5 c 0,2,3
 12.505859375 -394.500976562 12.505859375 -394.500976562 -35 -385 c 0,4,5
 -114 -370 -114 -370 -133 -307 c 0,6,7
 -139 -286 -139 -286 -132 -255 c 0,8,9
 -128 -238 -128 -238 -128.123046875 -235 c 0,10,11
 -128 -227 -128 -227 -132.5 -224.5 c 0,12,13
 -142 -219 -142 -219 -148 -225 c 0,14,15
 -157.338867188 -234.338867188 -157.338867188 -234.338867188 -151 -262 c 2,16,-1
 -140 -310 l 1,17,18
 -117 -377 -117 -377 -36 -390 c 0,19,20
 19 -399 19 -399 78 -367 c 0,21,22
 173 -315 173 -315 131 -60 c 0,23,24
 104 104 104 104 119.806640625 262 c 0,25,26
 126 324 126 324 153 490.879882812 c 1,27,-1
 138 490.879882812 l 1,28,29
 112 270 112 270 111.676757812 263 c 0,30,31
 98.4462890625 108.217773438 98.4462890625 108.217773438 125 -62 c 0,0,1
EndSplineSet
Refer: 287 -1 S 1 0 0 1 102 578 2
EndChar

StartChar: k
Encoding: 107 107 108
Width: 531
GlyphClass: 2
Flags: W
LayerCount: 2
Fore
SplineSet
158.932617188 317 m 1,0,1
 226 396 226 396 364 454.012787156 c 0,2,3
 393 466 393 466 429 480 c 1,4,-1
 427 486 l 1,5,6
 391 472 391 472 363 460.54151913 c 0,7,8
 225 402 225 402 154 322 c 0,9,10
 123 287 123 287 101 220 c 1,11,12
 128 479 128 479 137.854492188 584 c 0,13,14
 140 607 140 607 151.544168056 755 c 2,15,-1
 153 773 l 1,16,-1
 146.93359375 773 l 1,17,-1
 146 755 l 2,18,19
 143 699 143 699 130.96875 584 c 0,20,21
 95 228 95 228 95.2711321948 227 c 0,22,23
 95 219 95 219 87.044921875 169 c 0,24,25
 79 116 79 116 60 0 c 1,26,-1
 77 0 l 1,27,-1
 84 72 l 2,28,29
 94 171 94 171 100 189 c 1,30,31
 127 282 127 282 154.231445312 312 c 1,32,33
 175 294 175 294 228 292.066646008 c 4,34,35
 341 286 341 286 339 181 c 24,36,-1
 336 121 l 0,37,38
 334 0 334 0 392.599609375 0 c 0,39,40
 420 0 420 0 465 28 c 0,41,42
 476 35 476 35 479.134765625 40 c 0,43,44
 482 45 482 45 482 50 c 0,45,46
 482 54 482 54 480 56 c 0,47,48
 475 61 475 61 471 61 c 0,49,50
 465 61 465 61 462 59.5 c 0,51,52
 460 58 460 58 446 41 c 0,53,54
 419 7 419 7 392 7 c 0,55,56
 339 7 339 7 342 123 c 24,57,-1
 345 181 l 4,58,59
 347 291 347 291 230 296.377192982 c 0,60,61
 181 299 181 299 158.932617188 317 c 1,0,1
EndSplineSet
EndChar

StartChar: l
Encoding: 108 108 109
Width: 266
GlyphClass: 2
Flags: W
LayerCount: 2
Fore
SplineSet
117 738 m 4,0,1
 120 762 120 762 122.759765625 786 c 4,2,-1
 125.759765625 817 l 5,3,4
 127 818 127 818 136.759765625 817.879882812 c 4,5,6
 141 818 141 818 141.759765625 817 c 4,7,-1
 136.759765625 782 l 4,8,9
 136 780 136 780 129.40625 739 c 4,10,11
 75 371 75 371 56.478515625 227 c 4,12,13
 50 177 50 177 51 123 c 12,14,15
 52.373046875 7 52.373046875 7 101 7 c 4,16,17
 128 7 128 7 155 41 c 4,18,19
 169 58 169 58 171 59.5 c 4,20,21
 174 61 174 61 180 61 c 4,22,23
 184 61 184 61 189 56 c 4,24,25
 191 54 191 54 191 50 c 4,26,27
 191 45 191 45 188.134765625 40 c 4,28,29
 185 35 185 35 174 28 c 4,30,31
 129 0 129 0 101.599609375 0 c 4,32,33
 46 0 46 0 44 121 c 4,34,35
 43 178 43 178 49.4638671875 227 c 4,36,37
 68 372 68 372 117 738 c 4,0,1
EndSplineSet
EndChar

StartChar: q
Encoding: 113 113 114
Width: 441
GlyphClass: 2
Flags: W
LayerCount: 2
Fore
SplineSet
285 -378 m 17,0,1
 281.138352881 -335.521881693 281.138352881 -335.521881693 312.325195312 -94 c 0,2,3
 353 221 353 221 388.548828125 490.879882812 c 1,4,-1
 381.548828125 490.879882812 l 1,5,6
 348.19362385 216.452998611 348.19362385 216.452998611 304.97265625 -93 c 0,7,8
 285 -236 285 -236 265 -378 c 1,9,-1
 285 -378 l 17,0,1
333.549804688 90 m 4,10,-1
 332.474609375 94 l 5,11,12
 321 70 321 70 307.72265625 52 c 4,13,14
 279 11 279 11 204.616210938 6 c 4,15,16
 147 2 147 2 116.245117188 24 c 4,17,18
 69 56 69 56 56.6669921875 122 c 4,19,20
 40 208 40 208 77.953125 302 c 4,21,22
 114 389 114 389 140.485351562 427 c 4,23,24
 184 487 184 487 240.413085938 486 c 4,25,26
 289 485 289 485 324 455 c 4,27,28
 340 441 340 441 372.270507812 397 c 4,29,30
 373 396 373 396 375.486328125 402 c 5,31,32
 364 428 364 428 325.041015625 462 c 4,33,34
 293 490 293 490 239.587890625 492 c 4,35,36
 179 495 179 495 135.458007812 431 c 4,37,38
 105 387 105 387 73.0576171875 305 c 4,39,40
 33 203 33 203 50.59765625 120 c 4,41,42
 65 50 65 50 112.0703125 19 c 4,43,44
 146 -3 146 -3 204.924804688 0.5 c 4,45,46
 281 5 281 5 312.546875 48 c 4,47,48
 324 63 324 63 333.876953125 83 c 5,49,50
 333 88 333 88 333.549804688 90 c 4,10,-1
EndSplineSet
EndChar

StartChar: r
Encoding: 114 114 115
Width: 402
GlyphClass: 2
Flags: W
LayerCount: 2
Fore
SplineSet
323 478 m 5,0,1
 318 475 318 475 314 472.950195312 c 4,2,3
 287 458 287 458 255 459 c 4,4,5
 226 460 226 460 194 476 c 4,6,7
 180 483 180 483 141 484 c 4,8,9
 117.295898438 484.764648438 117.295898438 484.764648438 94 466.91796875 c 4,10,11
 68 447 68 447 32 393.5 c 5,12,13
 29 396 29 396 26.7080078125 399 c 5,14,15
 62 450 62 450 89.5 474.5 c 4,16,17
 109 492 109 492 144 491.956054688 c 4,18,19
 181 492 181 492 197 483.5 c 4,20,21
 227 469 227 469 250 467 c 4,22,23
 286 464 286 464 312.5 481.5 c 4,24,25
 326 490 326 490 326 490.879882812 c 4,26,27
 328 491 328 491 338 490.879882812 c 5,28,29
 279 392 279 392 246.991210938 295 c 4,30,31
 215 200 215 200 210.948242188 116 c 12,32,33
 208 61 208 61 227.734375 32 c 4,34,35
 246 6 246 6 282 6 c 4,36,37
 307 6 307 6 335 41 c 4,38,39
 349 58 349 58 351 59.5 c 4,40,41
 354 61 354 61 360 61 c 4,42,43
 364 61 364 61 369 56 c 4,44,45
 371 54 371 54 371 50 c 4,46,47
 371 45 371 45 368.134765625 40 c 4,48,49
 365 35 365 35 354 28 c 4,50,51
 309 0 309 0 281.599609375 0 c 4,52,53
 241 0 241 0 221.811523438 28 c 4,54,55
 201 58 201 58 204.952148438 116 c 4,56,57
 211 207 211 207 240.000976562 297 c 4,58,59
 270 388 270 388 323 478 c 5,0,1
EndSplineSet
EndChar

StartChar: s
Encoding: 115 115 116
Width: 374
GlyphClass: 2
Flags: W
LayerCount: 2
Back
SplineSet
300.083984375 446 m 132,-1,1
 300.083984375 458 300.083984375 458 312.083984375 458 c 132,-1,2
 324.083984375 458 324.083984375 458 324.083984375 446 c 132,-1,3
 324.083984375 434 324.083984375 434 312.083984375 434 c 132,-1,0
 300.083984375 434 300.083984375 434 300.083984375 446 c 132,-1,1
-458.916015625 364 m 1048
EndSplineSet
Fore
SplineSet
77 387 m 0,1,2
 58 262 58 262 188 264 c 0,3,4
 354 267 354 267 340.869140625 135 c 0,5,6
 327 -2 327 -2 176 -1.8544921875 c 4,7,8
 103 -2 103 -2 32 59 c 1,9,-1
 43 73 l 1,10,11
 107 4 107 4 176 4 c 4,12,13
 321 4 321 4 335.046875 134 c 0,14,15
 349 262 349 262 188 258 c 0,16,17
 48 254 48 254 71 388 c 0,18,19
 88 488 88 488 207 490.879882812 c 0,20,21
 246 492 246 492 297 470.019900018 c 0,22,23
 322 459 322 459 326 455 c 16,24,25
 329 452 329 452 329 445 c 0,26,27
 329 440 329 440 327 438 c 0,28,29
 324 435 324 435 319 434 c 128,-1,30
 314 433 314 433 311 435 c 8,31,32
 298 445 298 445 286 452.983006081 c 0,33,34
 240 483 240 483 207 484 c 0,35,36
 92 486 92 486 77 387 c 0,1,2
EndSplineSet
EndChar

StartChar: t
Encoding: 116 116 117
Width: 318
GlyphClass: 2
Flags: W
LayerCount: 2
Fore
SplineSet
167 738 m 4,0,1
 118 372 118 372 99.4638671875 227 c 4,2,3
 93 178 93 178 94 121 c 4,4,5
 96 0 96 0 151.599609375 0 c 4,6,7
 179 0 179 0 224 28 c 4,8,9
 235 35 235 35 238.134765625 40 c 4,10,11
 241 45 241 45 241 50 c 4,12,13
 241 54 241 54 239 56 c 4,14,15
 234 61 234 61 230 61 c 4,16,17
 224 61 224 61 221 59.5 c 4,18,19
 219 58 219 58 205 41 c 4,20,21
 178 7 178 7 151 7 c 4,22,23
 102.373046875 7 102.373046875 7 101 123 c 20,24,25
 100 177 100 177 106.478515625 227 c 4,26,27
 125 371 125 371 179.40625 739 c 4,28,29
 186 780 186 780 186.759765625 782 c 4,30,-1
 191.759765625 817 l 4,31,32
 191 818 191 818 186.759765625 817.879882812 c 4,33,34
 177 818 177 818 175.759765625 817 c 5,35,-1
 172.759765625 786 l 4,36,37
 170 762 170 762 167 738 c 4,0,1
149 477 m 5,38,39
 222 476 222 476 259 483 c 4,40,-1
 293 488 l 4,41,42
 293 490 293 490 293 493 c 5,43,44
 221 481 221 481 148 483 c 5,45,46
 70 492 70 492 50 481 c 4,47,48
 33 472 33 472 31 459 c 5,49,-1
 44 453 l 4,50,51
 48 467 48 467 56 472 c 4,52,53
 78 486 78 486 149 477 c 5,38,39
EndSplineSet
EndChar

StartChar: v
Encoding: 118 118 119
Width: 434
GlyphClass: 2
Flags: W
LayerCount: 2
Fore
SplineSet
371 344 m 4,0,-1
 379 469 l 0,1,2
 381 489 381 489 379 491 c 1,3,4
 371 491 371 491 362.790039062 491 c 1,5,6
 369 431 369 431 366 344 c 0,7,8
 361.027021819 209.72958912 361.027021819 209.72958912 249.171006315 70 c 0,9,10
 206 18 206 18 191 8 c 0,11,12
 188 6 188 6 180 5.740234375 c 0,13,14
 173 6 173 6 168 9 c 0,15,16
 62.1840062267 73.9747330187 62.1840062267 73.9747330187 53.169921875 255 c 0,17,18
 51 301 51 301 61 384 c 24,19,-1
 75 478 l 2,20,21
 76 484 76 484 77 490.879882812 c 1,22,-1
 70.58984375 491 l 1,23,24
 70.4893617021 491 70.4893617021 491 69 481 c 2,25,-1
 55 387 l 0,26,27
 44 294 44 294 45.9052734375 255 c 0,28,29
 56 71 56 71 165 4 c 0,30,31
 171 -0 171 -0 180 -0.2578125 c 0,32,33
 190 0 190 0 194 3 c 0,34,35
 213.950165001 16.7157384383 213.950165001 16.7157384383 252.492076871 65 c 0,36,37
 369 207 369 207 371 344 c 4,0,-1
EndSplineSet
EndChar

StartChar: w
Encoding: 119 119 120
Width: 676
GlyphClass: 2
Flags: W
LayerCount: 2
Fore
SplineSet
329.905273438 318 m 17,0,1
 332.765625 73.5615234375 332.765625 73.5615234375 438 4 c 0,2,3
 444 0 444 0 453 -0.2578125 c 0,4,5
 473.5859375 0.2724609375 473.5859375 0.2724609375 525.4921875 65 c 0,6,7
 602.243164062 160.301757812 602.243164062 160.301757812 614 344 c 10,8,-1
 622 469 l 0,9,10
 624 489 624 489 622 491 c 1,11,12
 614 491 614 491 605.790039062 491 c 1,13,14
 613 419 613 419 609 344 c 0,15,16
 597 162 597 162 522.170898438 70 c 0,17,18
 469.259765625 6.2685546875 469.259765625 6.2685546875 453 5.740234375 c 0,19,20
 446 6 446 6 441 9 c 0,21,22
 338 78 338 78 336.169921875 318 c 9,23,-1
 329.905273438 318 l 17,0,1
336 309 m 10,24,-1
 349 434 l 0,25,26
 351 454 351 454 349 456 c 1,27,28
 343 456 343 456 338 456 c 1,29,30
 328 388 328 388 328.154296875 324 c 0,31,32
 329 317 329 317 329 309 c 0,33,34
 314 150 314 150 242.170898438 70 c 0,35,36
 186 6 186 6 173 5.740234375 c 0,37,38
 166 6 166 6 161 9 c 0,39,40
 55.18359375 73.974609375 55.18359375 73.974609375 46.169921875 255 c 0,41,42
 44 301 44 301 54 384 c 24,43,-1
 68 478 l 2,44,45
 69 484 69 484 70 490.879882812 c 1,46,-1
 63.58984375 491 l 1,47,48
 63.4892578125 491 63.4892578125 491 62 481 c 2,49,-1
 48 387 l 0,50,51
 37 294 37 294 38.9052734375 255 c 0,52,53
 47.8955078125 76.78125 47.8955078125 76.78125 158 4 c 0,54,55
 164 0 164 0 173 -0.2578125 c 0,56,57
 184 0 184 0 245.4921875 65 c 0,58,59
 319 143 319 143 336 309 c 10,24,-1
EndSplineSet
EndChar

StartChar: z
Encoding: 122 122 123
Width: 421
GlyphClass: 2
Flags: W
LayerCount: 2
Back
SplineSet
356.459960938 95 m 132,-1,0
 356.459960938 107 356.459960938 107 368.459960938 107 c 132,-1,1
 380.459960938 107 380.459960938 107 380.459960938 95 c 132,-1,2
 380.459960938 83 380.459960938 83 368.459960938 83 c 132,-1,3
 356.459960938 83 356.459960938 83 356.459960938 95 c 132,-1,0
EndSplineSet
Fore
SplineSet
90 141 m 0,0,1
 67 114 67 114 54 86 c 0,2,3
 37 48 37 48 41 16 c 1,4,5
 78 -13 78 -13 129 12 c 0,6,7
 172 33 172 33 210 15 c 4,8,9
 314 -33 314 -33 380 75 c 0,10,11
 384 82 384 82 388.233398438 88 c 0,12,13
 391.69649662 94.2587584511 391.69649662 94.2587584511 389 101 c 4,14,15
 387 106 387 106 380 106.8515625 c 0,16,17
 372 107 372 107 370 105 c 0,18,19
 363.697368421 98.6973684211 363.697368421 98.6973684211 361 91 c 4,20,21
 323 -26 323 -26 214 21 c 0,22,23
 171.594363521 40.3277390754 171.594363521 40.3277390754 127 19 c 0,24,25
 80 -4 80 -4 48 20 c 1,26,27
 44 48 44 48 61 84 c 0,28,29
 72 109 72 109 95 136 c 0,30,31
 106 149 106 149 211 233 c 0,32,33
 267 278 267 278 318 351 c 0,34,35
 355 404 355 404 358.888299527 462 c 0,36,37
 360 477 360 477 348 482.979657029 c 0,38,39
 333 491 333 491 315 491.290239977 c 0,40,41
 294 491 294 491 270 479 c 0,42,43
 246 466 246 466 224 466.405314462 c 0,44,45
 206 466 206 466 190 475 c 0,46,47
 161 491 161 491 132 490.668313477 c 0,48,49
 93 490 93 490 48 445 c 0,50,51
 39 436 39 436 40 436 c 0,52,53
 44 434 44 434 46 433 c 0,54,-1
 55 442 l 0,55,56
 98 483 98 483 132 483.662418602 c 0,57,58
 159 484 159 484 186 469 c 0,59,60
 203 459 203 459 224 459.313879777 c 0,61,62
 247 460 247 460 273 473 c 0,63,64
 295 484 295 484 314 483.755436334 c 0,65,66
 330 484 330 484 344 476.678881838 c 0,67,68
 352 472 352 472 351.719505033 462 c 0,69,70
 349 408 349 408 313 355 c 0,71,72
 267 286 267 286 207 239 c 0,73,74
 110 164 110 164 90 141 c 0,0,1
EndSplineSet
EndChar

StartChar: guillemotleft
Encoding: 161 171 162
Width: 343
GlyphClass: 2
Flags: W
LayerCount: 2
Fore
SplineSet
173 408 m 1,0,1
 216 403 216 403 278 413 c 0,2,3
 291 415 291 415 290 399.5 c 128,-1,4
 289 384 289 384 257 375 c 0,5,6
 229 368 229 368 176 368 c 0,7,8
 82 368 82 368 66 358 c 0,9,10
 43 345 43 345 45 367 c 0,11,12
 48 402 48 402 59 403 c 0,13,14
 110 408 110 408 173 408 c 1,0,1
EndSplineSet
EndChar

StartChar: uni00AD
Encoding: 162 173 163
Width: 343
GlyphClass: 2
Flags: W
LayerCount: 2
Fore
SplineSet
173 388 m 1,0,1
 216 383 216 383 278 393 c 0,2,3
 291 395 291 395 290 379.5 c 128,-1,4
 289 364 289 364 257 355 c 0,5,6
 229 348 229 348 176 348 c 0,7,8
 82 348 82 348 66 338 c 0,9,10
 43 325 43 325 45 347 c 0,11,12
 48 382 48 382 59 383 c 0,13,14
 110 388 110 388 173 388 c 1,0,1
EndSplineSet
EndChar

StartChar: guillemotright
Encoding: 163 187 164
Width: 343
GlyphClass: 2
Flags: W
LayerCount: 2
Fore
SplineSet
173 408 m 1,0,1
 216 403 216 403 278 413 c 0,2,3
 291 415 291 415 290 399.5 c 128,-1,4
 289 384 289 384 257 375 c 0,5,6
 229 368 229 368 176 368 c 0,7,8
 82 368 82 368 66 358 c 0,9,10
 43 345 43 345 45 367 c 0,11,12
 48 402 48 402 59 403 c 0,13,14
 110 408 110 408 173 408 c 1,0,1
EndSplineSet
EndChar

StartChar: uni0411
Encoding: 179 1041 180
Width: 718
GlyphClass: 2
Flags: W
LayerCount: 2
Fore
SplineSet
453.018554688 791.481445312 m 6,0,1
 301.661132812 786.71875 301.661132812 786.71875 213.208007812 776 c 4,2,3
 126.579101562 764 126.579101562 764 98.2158203125 738 c 4,4,5
 66.6962890625 709 66.6962890625 709 79.4951171875 667 c 4,6,7
 82.9189453125 656 82.9189453125 656 106.225585938 638 c 4,8,9
 111.765625 634 111.765625 634 121.346679688 626 c 5,10,11
 109.875 617 109.875 617 107.684570312 613.372070312 c 5,12,13
 101.083984375 621 101.083984375 621 94.50390625 629 c 4,14,15
 79.447265625 647 79.447265625 647 73.0615234375 664 c 4,16,17
 56.591796875 707 56.591796875 707 93.42578125 742 c 4,18,19
 121.036132812 768.235351562 121.036132812 768.235351562 213.522460938 782 c 4,20,21
 301.891601562 795.15234375 301.891601562 795.15234375 453.373046875 798.248046875 c 6,22,-1
 723.780273438 806 l 5,23,24
 724.5703125 802 724.5703125 802 725.360351562 798 c 5,25,-1
 453.018554688 791.481445312 l 6,0,1
248.4609375 819 m 5,26,-1
 254.4609375 819 l 4,27,28
 254.146484375 813 254.146484375 813 253.83203125 807 c 4,29,30
 251.473632812 762 251.473632812 762 249.115234375 717 c 5,31,32
 247.071289062 678 247.071289062 678 242.459960938 590 c 5,33,34
 239.891601562 541 239.891601562 541 234.82421875 492 c 132,-1,35
 229.755859375 443 229.755859375 443 228.280273438 422 c 5,36,37
 285.485351562 476 285.485351562 476 338.852539062 483 c 28,38,39
 453.690429688 499 453.690429688 499 530.856445312 464 c 4,40,41
 635.393554688 417 635.393554688 417 643.8984375 274 c 4,42,43
 652.243164062 147 652.243164062 147 580.416992188 74 c 4,44,45
 506.434570312 -2 506.434570312 -2 382.591796875 1 c 4,46,47
 305.696289062 3 305.696289062 3 270.639648438 21 c 4,48,49
 237.530273438 38 237.530273438 38 231.333007812 52.388671875 c 4,50,51
 227.788085938 62 227.788085938 62 233.102539062 68 c 28,52,53
 241.522460938 76 241.522460938 76 249.208007812 70 c 4,54,55
 329.90625 7 329.90625 7 382.899414062 6.87890625 c 4,56,57
 503.90625 7 503.90625 7 577.522460938 76 c 4,58,59
 645.928710938 141 645.928710938 141 635.451171875 275 c 4,60,61
 624.393554688 417 624.393554688 417 527.559570312 458.338867188 c 4,62,63
 451.271484375 491 451.271484375 491 339.538085938 477 c 28,64,65
 296.275390625 472 296.275390625 472 227.725585938 414 c 5,66,67
 214.51953125 324 214.51953125 324 200.751953125 233 c 4,68,69
 165.486328125 -1 165.486328125 -1 74.5390625 0 c 4,70,71
 -31.408203125 1 -31.408203125 1 38.1337890625 164 c 4,72,73
 101.995117188 314 101.995117188 314 220.236328125 414 c 5,74,-1
 228.84765625 502 l 4,75,-1
 232.677734375 556 l 5,76,77
 234.831054688 578 234.831054688 578 236.875 617 c 4,78,79
 242.4296875 723 242.4296875 723 248.4609375 819 c 5,26,-1
219.81640625 406 m 5,80,81
 109.995117188 314 109.995117188 314 45.1337890625 164 c 4,82,83
 -22.638671875 7.2666015625 -22.638671875 7.2666015625 74.853515625 6 c 5,84,85
 156.853515625 6 156.853515625 6 193.802734375 234 c 4,86,87
 205.837890625 311 205.837890625 311 219.81640625 406 c 5,80,81
EndSplineSet
EndChar

StartChar: uni0413
Encoding: 181 1043 182
Width: 618
GlyphClass: 2
Flags: W
LayerCount: 2
Fore
SplineSet
775 798 m 5,0,1
 774 802 774 802 773 806 c 5,2,-1
 503 798.248046875 l 4,3,4
 442 797 442 797 304 788 c 5,5,-1
 303 807 l 4,6,7
 303 810 303 810 302 819 c 5,8,9
 298 819 298 819 297.5 818.5 c 4,10,11
 296 817 296 817 297 808 c 4,12,-1
 298 787 l 5,13,-1
 264 782 l 30,14,15
 173 769 173 769 146 742 c 4,16,17
 111 707 111 707 129.723318408 664 c 4,18,19
 137 647 137 647 153 629 c 4,20,21
 160 621 160 621 167 613.371944165 c 5,22,23
 169 617 169 617 180 626 c 5,24,25
 170 634 170 634 164.25 638 c 4,26,27
 140 656 140 656 136 667 c 4,28,29
 118 707 118 707 151 738 c 4,30,31
 178 764 178 764 264 776 c 28,32,-1
 299 781 l 5,33,34
 300 754 300 754 301 728 c 4,35,36
 301 550 301 550 283.383611984 400 c 4,37,38
 261 216 261 216 214 82 c 4,39,40
 186 2 186 2 136 0 c 4,41,42
 107 -1 107 -1 87 16 c 4,43,44
 74 27 74 27 67.5 43 c 4,45,46
 61 62 61 62 59.56640625 63 c 4,47,48
 57 66 57 66 51.5 66.5 c 132,-1,49
 46 67 46 67 41 63 c 4,50,51
 38 61 38 61 37.767578125 56 c 4,52,53
 37 50 37 50 40 46 c 4,54,55
 77 -11 77 -11 136 -6 c 4,56,57
 194 -1 194 -1 220 77 c 4,58,59
 272.40719499 231.07715327 272.40719499 231.07715327 291.14791928 399 c 4,60,61
 308 549 308 549 307 732 c 4,62,-1
 305 781 l 5,63,64
 456 790 456 790 503 791.481445312 c 4,65,-1
 775 798 l 5,0,1
EndSplineSet
EndChar

StartChar: uni0416
Encoding: 184 1046 185
Width: 1128
GlyphClass: 2
Flags: W
LayerCount: 2
Fore
SplineSet
701.98046875 502 m 5,0,1
 681 362 681 362 681 303 c 4,2,3
 681 236 681 236 682.125 224.245117188 c 4,4,5
 704 0 704 0 863.740234375 0.08984375 c 4,6,7
 910 0 910 0 991.8515625 49.9287109375 c 4,8,9
 1010 61 1010 61 1015 68.5 c 4,10,11
 1019 74 1019 74 1018.29003906 80.73046875 c 4,12,13
 1018 84 1018 84 1015.94433594 85.7666015625 c 4,14,15
 1012 90 1012 90 1007.88964844 90.1298828125 c 4,16,17
 1001 90 1001 90 997.833007812 87.62109375 c 4,18,19
 995 85 995 85 975 67 c 4,20,21
 906 5 906 5 864.065429688 6.126953125 c 4,22,23
 702 11 702 11 688.293945312 225.58984375 c 4,24,25
 683 307 683 307 688.716796875 356.069335938 c 4,26,27
 700 449 700 449 709.129882812 503.275390625 c 4,28,29
 715 540 715 540 727.15234375 587.915039062 c 4,30,31
 784 814 784 814 919.534179688 812.712890625 c 4,32,33
 1048 812 1048 812 1088 718 c 5,34,35
 1094 721 1094 721 1098 725 c 5,36,37
 1055 819 1055 819 917.884765625 819.234375 c 4,38,39
 780 819 780 819 720.794921875 590.260742188 c 4,40,41
 710.643704134 548.832717387 710.643704134 548.832717387 688 478.5 c 4,42,43
 616 255 616 255 543 31 c 5,44,45
 624 766 624 766 624 783 c 4,46,47
 624 784 624 784 622 784 c 132,-1,48
 620 784 620 784 616 784 c 5,49,-1
 464 342 l 5,50,51
 451 308 451 308 440 282 c 5,52,53
 443 299 443 299 447.0859375 320.590820312 c 4,54,55
 468 448 468 448 466.258789062 590.260742188 c 4,56,57
 463 819 463 819 276.412109375 819.107421875 c 4,58,59
 203 819 203 819 144.26171875 735.793945312 c 4,60,61
 143 734 143 734 145.934570312 731.612304688 c 4,62,-1
 152.625976562 727.4296875 l 4,63,64
 214 813 214 813 276.412109375 813.397460938 c 4,65,66
 458 814 458 814 458.999023438 587.915039062 c 4,67,68
 460 443 460 443 438.65625 315.921875 c 28,69,70
 430 266 430 266 418.563476562 227.263671875 c 4,71,72
 355 5 355 5 228.251953125 6.4833984375 c 4,73,74
 167.229891677 7.16497165032 167.229891677 7.16497165032 153.297851562 13.166015625 c 4,75,76
 80 47 80 47 61 100 c 5,77,-1
 51 94 l 5,78,79
 66.5759589616 37.4166768633 66.5759589616 37.4166768633 150.952148438 6.826171875 c 4,80,81
 172.508855196 0.00844238364816 172.508855196 0.00844238364816 227.901367188 -0.0361328125 c 4,82,83
 358 0 358 0 427.622070312 223.91796875 c 28,84,-1
 467 330 l 5,85,86
 542 550 542 550 617 770 c 5,87,-1
 536 23 l 5,88,-1
 546 23 l 5,89,-1
 701.98046875 502 l 5,0,1
EndSplineSet
EndChar

StartChar: uni0417
Encoding: 185 1047 186
Width: 588
GlyphClass: 2
Flags: W
LayerCount: 2
Fore
SplineSet
434.645507812 42 m 4,0,1
 528.456054688 97 528.456054688 97 546.473632812 223 c 12,2,3
 558.819335938 307 558.819335938 307 500.90234375 388 c 4,4,5
 437.685546875 477 437.685546875 477 343.860351562 479 c 4,6,7
 297.946289062 480 297.946289062 480 260.860351562 479 c 5,8,9
 297.860351562 479 297.860351562 479 344.997070312 492 c 4,10,11
 397.30859375 507 397.30859375 507 423.918945312 531 c 4,12,13
 475.4296875 577 475.4296875 577 481.25 655 c 4,14,15
 484.97265625 709 484.97265625 709 454.081054688 756 c 4,16,17
 409.94140625 823 409.94140625 823 329.028320312 823.991210938 c 4,18,19
 255.116210938 825 255.116210938 825 217.530273438 784 c 4,20,21
 206.481445312 772 206.481445312 772 208.806640625 770 c 132,-1,22
 211.131835938 768 211.131835938 768 222.26953125 781 c 4,23,24
 257.678710938 820 257.678710938 820 327.634765625 819.498046875 c 4,25,26
 402.592773438 819 402.592773438 819 449.64453125 751 c 4,27,28
 478.060546875 710 478.060546875 710 474.891601562 654 c 4,29,30
 470.780273438 581 470.780273438 581 420.7578125 535 c 4,31,32
 392.571289062 510 392.571289062 510 344.345703125 496 c 4,33,34
 298.208984375 483 298.208984375 483 251.05859375 481.258789062 c 5,35,36
 250.946289062 480 250.946289062 480 250.860351562 479 c 133,-1,37
 250.771484375 478 250.771484375 478 250.65234375 476.624023438 c 5,38,39
 297.59765625 476 297.59765625 476 343.422851562 474 c 4,40,41
 436.985351562 469 436.985351562 469 496.095703125 384.5 c 4,42,43
 552.46875 303 552.46875 303 540.473632812 223 c 4,44,45
 521.368164062 96 521.368164062 96 432.08203125 47 c 4,46,47
 355.322265625 4 355.322265625 4 266.41015625 5 c 4,48,49
 187.030273438 6.005859375 187.030273438 6.005859375 146.297851562 27.1494140625 c 4,50,51
 122.413085938 39.541015625 122.413085938 39.541015625 90.0810546875 69.861328125 c 4,52,53
 58.990234375 99.017578125 58.990234375 99.017578125 44.306640625 130 c 4,54,55
 40.779296875 135 40.779296875 135 35.2265625 134.75 c 4,56,57
 30.779296875 135 30.779296875 135 27.6572265625 133 c 4,58,59
 22.25390625 129 22.25390625 129 21.8583984375 124.181640625 c 4,60,61
 21.37890625 119 21.37890625 119 23.1513671875 116 c 28,62,63
 44.2431640625 88.1025390625 44.2431640625 88.1025390625 77.271484375 60.580078125 c 4,64,65
 110.641601562 32.7724609375 110.641601562 32.7724609375 142.653320312 19.2158203125 c 4,66,67
 187.973632812 0 187.973632812 0 265.973632812 0 c 4,68,69
 361.973632812 0 361.973632812 0 434.645507812 42 c 4,0,1
EndSplineSet
EndChar

StartChar: uni0419
Encoding: 187 1049 188
Width: 729
GlyphClass: 2
Flags: W
LayerCount: 2
Fore
SplineSet
567 963 m 1,0,1
 532 914 532 914 430 911 c 0,2,3
 389 910 389 910 354 936 c 0,4,5
 331 953 331 953 328 935 c 0,6,7
 326 921 326 921 367 907 c 0,8,9
 385.896091516 900.987607245 385.896091516 900.987607245 408 902 c 0,10,11
 538 907 538 907 572 960 c 9,12,-1
 567 963 l 1,0,1
EndSplineSet
Refer: 274 -1 N 1 0 0 1 0 0 2
EndChar

StartChar: uni041B
Encoding: 189 1051 190
Width: 843
GlyphClass: 2
Flags: W
LayerCount: 2
Fore
SplineSet
629.28515625 228 m 28,0,1
 626 0 626 0 704.599609375 0 c 4,2,3
 732 0 732 0 777 28 c 4,4,5
 788 35 788 35 791.134765625 40 c 4,6,7
 794 45 794 45 794 50 c 4,8,9
 794 54 794 54 792 56 c 4,10,11
 787 61 787 61 783 61 c 4,12,13
 777 61 777 61 774 59.5 c 4,14,15
 772 58 772 58 758 41 c 4,16,17
 730 6 730 6 705 6 c 4,18,19
 635 7 635 7 637.017578125 227 c 12,20,-1
 643.4609375 362 l 4,21,22
 654 487 654 487 653.840820312 492 c 4,23,24
 654 502 654 502 664 606 c 6,25,-1
 680.180664062 774 l 6,26,27
 684.610230802 819.991141609 684.610230802 819.991141609 641 819 c 4,28,29
 602 819 602 819 580 706 c 4,30,31
 543 517 543 517 490.73828125 378 c 4,32,33
 403 147 403 147 275 55.6650390625 c 4,34,35
 208 8 208 8 131 6 c 4,36,37
 83 5 83 5 60 26 c 4,38,39
 45 40 45 40 43 69 c 4,40,41
 42 84 42 84 41 95 c 5,42,43
 37 95 37 95 34 95 c 5,44,-1
 36 69 l 4,45,46
 38 39 38 39 55 21 c 4,47,48
 76 -1 76 -1 133 -1 c 4,49,50
 212 -1 212 -1 280 49.068359375 c 4,51,52
 410 144 410 144 498.431640625 376 c 4,53,54
 554 522 554 522 587 704 c 4,55,56
 607 813 607 813 645 813 c 4,57,58
 676 813 676 813 673.260742188 777 c 4,59,60
 672 763 672 763 656.384765625 606 c 6,61,-1
 647 490.879882812 l 5,62,-1
 636.130859375 362 l 4,63,-1
 629.28515625 228 l 28,0,1
EndSplineSet
EndChar

StartChar: uni041F
Encoding: 193 1055 194
Width: 788
GlyphClass: 2
Flags: W
LayerCount: 2
Fore
SplineSet
36 51 m 20,0,1
 44 41 44 41 51 31.5 c 128,-1,2
 58 22 58 22 76 11 c 0,3,4
 97 -1 97 -1 126 0 c 0,5,6
 176 2 176 2 204 82 c 0,7,8
 251 216 251 216 273.383789062 400 c 0,9,10
 291 550 291 550 291 728 c 0,11,12
 290 754 290 754 289 781 c 1,13,-1
 254 776 l 24,14,15
 168 764 168 764 141 738 c 0,16,17
 108 707 108 707 126 667 c 0,18,19
 130 656 130 656 154.25 638 c 0,20,21
 160 634 160 634 170 626 c 1,22,23
 159 617 159 617 157 613.372070312 c 1,24,25
 150 621 150 621 143 629 c 0,26,27
 127 647 127 647 119.723632812 664 c 0,28,29
 101 707 101 707 136 742 c 0,30,31
 163 769 163 769 254 782 c 26,32,-1
 288 787 l 1,33,-1
 287 808 l 0,34,35
 286 817 286 817 287.5 818.5 c 0,36,37
 288 819 288 819 292 819 c 1,38,39
 293 810 293 810 293 807 c 0,40,-1
 294 788 l 1,41,42
 432 797 432 797 493 798.248046875 c 0,43,-1
 763 806 l 1,44,45
 764 802 764 802 765 798 c 1,46,-1
 493 791.481445312 l 0,47,48
 446 790 446 790 295 781 c 1,49,-1
 297 732 l 0,50,51
 298 549 298 549 281.147460938 399 c 0,52,53
 262 231 262 231 210 77 c 0,54,55
 184 -1 184 -1 126 -6 c 0,56,57
 67 -11 67 -11 30 46 c 1,58,-1
 36 51 l 20,0,1
557 678 m 0,59,60
 560 702 560 702 562.759765625 726 c 0,61,-1
 565.759765625 757 l 1,62,63
 567 758 567 758 576.759765625 757.879882812 c 0,64,65
 581 758 581 758 581.759765625 757 c 0,66,-1
 576.759765625 722 l 0,67,68
 574 716 574 716 569.40625 679 c 0,69,70
 517.651367188 236.053710938 517.651367188 236.053710938 516.478515625 227 c 0,71,72
 510 177 510 177 511 123 c 8,73,74
 512 7 512 7 561 7 c 0,75,76
 588 7 588 7 615 41 c 0,77,78
 629 58 629 58 631 59.5 c 0,79,80
 634 61 634 61 640 61 c 0,81,82
 644 61 644 61 649 56 c 0,83,84
 651 54 651 54 651 50 c 0,85,86
 651 45 651 45 648.134765625 40 c 0,87,88
 645 35 645 35 634 28 c 0,89,90
 589 0 589 0 561.599609375 0 c 0,91,92
 506 0 506 0 504 121 c 0,93,94
 503 176 503 176 509.463867188 227 c 0,95,96
 533 452 533 452 557 678 c 0,59,60
EndSplineSet
EndChar

StartChar: uni0422
Encoding: 196 1058 197
Width: 865
GlyphClass: 2
Flags: W
LayerCount: 2
Fore
SplineSet
421 0 m 17,0,1
 422 20 422 20 439.463867188 227 c 0,2,3
 474 624 474 624 481 678 c 0,4,5
 484 702 484 702 486.759765625 726 c 0,6,-1
 489.759765625 757 l 1,7,8
 491 758 491 758 500.759765625 757.879882812 c 0,9,10
 505 758 505 758 505.759765625 757 c 0,11,-1
 500.759765625 722 l 0,12,13
 498 716 498 716 493.40625 679 c 0,14,15
 449.245117188 260.52734375 449.245117188 260.52734375 446.478515625 227 c 0,16,17
 437 101 437 101 428 0 c 9,18,19
 421 0 l 17,0,1
30 51 m 16,20,21
 38 41 38 41 45 31.5 c 128,-1,22
 52 22 52 22 70 11 c 0,23,24
 91 -1 91 -1 120 0 c 0,25,26
 170 2 170 2 198 82 c 0,27,28
 245 216 245 216 267.383789062 400 c 0,29,30
 290 594 290 594 285 728 c 0,31,32
 284 754 284 754 283 781 c 1,33,-1
 248 776 l 24,34,35
 162 764 162 764 135 738 c 0,36,37
 105 709 105 709 120 667 c 0,38,39
 124 656 124 656 148.25 638 c 0,40,41
 154 634 154 634 164 626 c 1,42,43
 153 617 153 617 151 613.372070312 c 1,44,45
 144 621 144 621 137 629 c 0,46,47
 121 647 121 647 113.723632812 664 c 0,48,49
 95 707 95 707 130 742 c 0,50,51
 156.551757812 768.551757812 156.551757812 768.551757812 248 782 c 26,52,-1
 282 787 l 1,53,-1
 281 808 l 0,54,55
 280 817 280 817 281.5 818.5 c 0,56,57
 282 819 282 819 286 819 c 1,58,59
 287 810 287 810 287 807 c 0,60,-1
 288 788 l 1,61,62
 408 797 408 797 557 798.248046875 c 0,63,-1
 827 806 l 1,64,65
 828 802 828 802 829 798 c 1,66,-1
 557 791.481445312 l 0,67,68
 324 783 324 783 289 781 c 1,69,-1
 291 732 l 0,70,71
 292 549 292 549 275.147460938 399 c 0,72,73
 256 231 256 231 204 77 c 0,74,75
 178 -1 178 -1 120 -6 c 0,76,77
 61 -11 61 -11 24 46 c 1,78,-1
 30 51 l 16,20,21
671 678 m 0,79,80
 674 702 674 702 676.759765625 726 c 0,81,-1
 679.759765625 757 l 1,82,83
 681 758 681 758 690.759765625 757.879882812 c 0,84,85
 695 758 695 758 695.759765625 757 c 0,86,-1
 690.759765625 722 l 0,87,88
 688 716 688 716 683.40625 679 c 0,89,90
 632 236 632 236 630.478515625 227 c 0,91,92
 624 177 624 177 625 123 c 8,93,94
 626 7 626 7 675 7 c 0,95,96
 702 7 702 7 729 41 c 0,97,98
 743 58 743 58 745 59.5 c 0,99,100
 748 61 748 61 754 61 c 0,101,102
 758 61 758 61 763 56 c 0,103,104
 765 54 765 54 765 50 c 0,105,106
 765 45 765 45 762.134765625 40 c 0,107,108
 759 35 759 35 748 28 c 0,109,110
 703 0 703 0 675.599609375 0 c 0,111,112
 620 0 620 0 618 121 c 0,113,114
 617 167 617 167 623.463867188 227 c 0,115,116
 669 660 669 660 671 678 c 0,79,80
EndSplineSet
EndChar

StartChar: uni0424
Encoding: 198 1060 199
Width: 713
GlyphClass: 2
Flags: W
LayerCount: 2
Back
SplineSet
350.717773438 758 m 132,-1,1
 350.717773438 770 350.717773438 770 362.717773438 770 c 132,-1,2
 374.717773438 770 374.717773438 770 374.717773438 758 c 132,-1,3
 374.717773438 746 374.717773438 746 362.717773438 746 c 132,-1,0
 350.717773438 746 350.717773438 746 350.717773438 758 c 132,-1,1
EndSplineSet
Fore
SplineSet
369 440 m 1,0,1
 384 317 384 317 382.745768408 232 c 0,2,3
 382 149 382 149 370.947574415 104 c 0,4,5
 348 7 348 7 289 7 c 0,6,7
 222 7 222 7 177 58 c 24,8,9
 146 93 146 93 118 156 c 1,10,11
 106 147 106 147 103 143 c 1,12,13
 133 96 133 96 171 54 c 0,14,15
 219 1 219 1 287 0 c 128,-1,16
 355 -1 355 -1 378.110351562 101 c 0,17,18
 391 156 391 156 391.587058156 232 c 0,19,20
 392 302 392 302 379 432 c 1,21,22
 404 387 404 387 462 386.658877401 c 0,23,24
 590 385 590 385 640.441330732 473 c 0,25,26
 677 536 677 536 678 605 c 0,27,28
 679 690 679 690 657 727 c 0,29,30
 602 820 602 820 478 818.697386896 c 0,31,32
 424 818 424 818 388.9123571 797.912109375 c 0,33,34
 354 779 354 779 350 763 c 24,35,36
 347 750 347 750 355 747 c 0,37,38
 364 743 364 743 370 749 c 0,39,40
 372 751 372 751 376.295613622 759 c 0,41,42
 384 773 384 773 403 788.013559163 c 0,43,44
 434 812 434 812 477 811.859181595 c 0,45,46
 598 811 598 811 651 724 c 1,47,48
 674 679 674 679 671 606 c 0,49,50
 668 535 668 535 633.779785156 477.560546875 c 0,51,52
 585 394 585 394 463 395.431123227 c 0,53,54
 409.587866413 395.983576358 409.587866413 395.983576358 386.616583283 434.978027344 c 0,55,56
 376.514359626 452.859614785 376.514359626 452.859614785 374.915573292 462.596679688 c 2,57,-1
 352.682900482 598 l 24,58,59
 338 688 338 688 312.162876271 741 c 0,60,61
 272 824 272 824 204 815.79296875 c 0,62,63
 39 795 39 795 22.116021839 574 c 0,64,65
 15 483 15 483 92.9067417597 408 c 0,66,67
 131 371 131 371 201 370 c 0,68,69
 263 369 263 369 297 399 c 1,70,71
 297 400 297 400 294 404 c 1,72,73
 260 376 260 376 199.5 376.5 c 0,74,75
 136 378 136 378 98 413 c 0,76,77
 22 483 22 483 29 574 c 0,78,79
 46 789 46 789 206 808 c 0,80,81
 268 815 268 815 305.1171875 738 c 0,82,83
 333 681 333 681 346 594 c 24,84,-1
 369 440 l 1,0,1
EndSplineSet
EndChar

StartChar: uni0426
Encoding: 200 1062 201
Width: 814
GlyphClass: 2
Flags: W
LayerCount: 2
Fore
SplineSet
240 10 m 0,0,1
 273 7 273 7 321 21 c 0,2,3
 370 36 370 36 392 58 c 0,4,5
 475 141 475 141 502 254 c 0,6,7
 549 448 549 448 549 454 c 0,8,9
 569 592 569 592 575 656 c 0,10,11
 583 766 583 766 591 822 c 1,12,13
 606 831 606 831 616 823 c 256,14,15
 626 815 626 815 628 799 c 0,16,17
 632 769 632 769 632 766 c 0,18,19
 632 754 632 754 630 738 c 0,20,21
 617 606 617 606 591 447 c 0,22,23
 558 242 558 242 555 211 c 0,24,25
 553 177 553 177 552 157 c 0,26,27
 551 151 551 151 550 109 c 0,28,29
 549 20 549 20 592 8 c 0,30,31
 627 -2 627 -2 655 22 c 0,32,33
 704 63 704 63 729 23 c 0,34,35
 747 -4 747 -4 748 -4 c 0,36,37
 750 -3 750 -3 756 3 c 0,38,39
 766 17 766 17 797 22 c 0,40,41
 815 25 815 25 813 18 c 256,42,43
 811 11 811 11 800 3 c 0,44,45
 761 -26 761 -26 757 -29 c 1,46,47
 757 -29 757 -29 771 -67 c 0,48,49
 787 -128 787 -128 745 -146 c 0,50,51
 732 -151 732 -151 705 -143 c 0,52,53
 682 -137 682 -137 672 -117 c 0,54,55
 661 -98 661 -98 671 -78 c 0,56,57
 683 -50 683 -50 706 -37 c 0,58,59
 728 -24 728 -24 726 -19 c 0,60,61
 719 -2 719 -2 708 9 c 0,62,63
 703 15 703 15 695 13 c 0,64,65
 683 10 683 10 678 7 c 0,66,67
 671 3 671 3 659 -3 c 0,68,69
 656 -5 656 -5 642 -10 c 0,70,71
 618 -20 618 -20 606 -21 c 0,72,73
 588 -24 588 -24 570 -18 c 0,74,75
 520 -1 520 -1 519 100 c 0,76,77
 518 134 518 134 517 144 c 0,78,79
 517 147 517 147 517 161 c 0,80,81
 515 182 515 182 514 180 c 0,82,83
 459 83 459 83 415 40 c 0,84,85
 389 14 389 14 358 0 c 0,86,87
 337 -9 337 -9 306 -13 c 0,88,89
 269 -18 269 -18 241 -18 c 0,90,91
 201 -19 201 -19 163 -8 c 0,92,93
 42 26 42 26 97 228 c 0,94,95
 117 301 117 301 132 386 c 0,96,97
 162 555 162 555 164 671 c 0,98,99
 165 707 165 707 163 750 c 256,100,101
 161 793 161 793 158 794 c 0,102,103
 156 795 156 795 143 788 c 0,104,105
 129 781 129 781 108 782 c 256,106,107
 87 783 87 783 81 788 c 0,108,109
 65 803 65 803 50 776 c 0,110,111
 45 767 45 767 40 767 c 256,112,113
 35 767 35 767 35 780 c 0,114,115
 35 792 35 792 42 800 c 0,116,117
 48 808 48 808 64 817 c 0,118,119
 78 824 78 824 89 821 c 0,120,121
 99 818 99 818 103 814 c 0,122,123
 106 810 106 810 115 808 c 0,124,125
 130 805 130 805 159 827 c 0,126,127
 172 837 172 837 181 838 c 0,128,129
 187 838 187 838 189 834 c 0,130,131
 190 831 190 831 191 829 c 0,132,133
 196 819 196 819 197 786 c 0,134,135
 203 546 203 546 161 385 c 1,136,-1
 131 235 l 1,137,138
 69 37 69 37 194 15 c 0,139,140
 202 14 202 14 240 10 c 0,0,1
741 -119 m 0,141,142
 758 -106 758 -106 745 -71 c 0,143,144
 740 -59 740 -59 736 -46 c 0,145,146
 734 -44 734 -44 722 -55 c 0,147,148
 699 -76 699 -76 699 -99 c 0,149,150
 700 -116 700 -116 712 -122 c 0,151,152
 727 -130 727 -130 741 -119 c 0,141,142
EndSplineSet
EndChar

StartChar: uni0427
Encoding: 201 1063 202
Width: 738
GlyphClass: 2
Flags: W
LayerCount: 2
Fore
SplineSet
450 45 m 0,0,1
 443 67 443 67 441 158 c 0,2,3
 440 207 440 207 441 221 c 0,4,5
 455 412 455 412 464 451 c 0,6,7
 466 461 466 461 468 471 c 2,8,-1
 469 480 l 1,9,-1
 461 469 l 2,10,11
 444 449 444 449 416 427 c 0,12,13
 402 416 402 416 392 409 c 0,14,15
 383 402 383 402 368 390 c 0,16,17
 335 364 335 364 325 359 c 0,18,19
 317 356 317 356 303 346 c 0,20,21
 288 336 288 336 283 336 c 256,22,23
 278 336 278 336 277 334 c 0,24,25
 275 331 275 331 252 328 c 128,-1,26
 229 325 229 325 216 326 c 0,27,28
 195 328 195 328 175 343 c 256,29,30
 155 358 155 358 145 378 c 0,31,32
 139 392 139 392 138 423 c 0,33,34
 138 454 138 454 139 456 c 0,35,36
 141 459 141 459 142 478.5 c 128,-1,37
 143 498 143 498 146 517 c 0,38,39
 160 607 160 607 160 659 c 0,40,41
 161 694 161 694 159 735 c 0,42,43
 157 777 157 777 155 779 c 0,44,45
 153 780 153 780 139 773 c 0,46,47
 126 766 126 766 106 767 c 0,48,49
 85 768 85 768 80 773 c 0,50,51
 64 787 64 787 50 761 c 0,52,53
 45 752 45 752 40 752 c 256,54,55
 35 752 35 752 35 764 c 0,56,57
 35 785 35 785 64 800 c 0,58,59
 77 807 77 807 87 804 c 256,60,61
 97 801 97 801 101 797 c 0,62,63
 104 793 104 793 113 792 c 0,64,65
 127 789 127 789 155 811 c 0,66,67
 168 820 168 820 177 821 c 0,68,69
 182 821 182 821 185 820 c 0,70,71
 187 818 187 818 190 812 c 0,72,73
 194 803 194 803 195 744 c 256,74,75
 196 685 196 685 193 615 c 0,76,77
 188 525 188 525 178 472 c 0,78,79
 173 445 173 445 172 419 c 0,80,81
 172 393 172 393 177 383 c 0,82,83
 191 356 191 356 229 350 c 0,84,85
 243 347 243 347 259 352 c 0,86,87
 274 358 274 358 281 358 c 256,88,89
 288 358 288 358 310 373 c 0,90,91
 333 387 333 387 336 387 c 0,92,93
 338 387 338 387 348 396 c 256,94,95
 358 405 358 405 371 414 c 0,96,97
 438 465 438 465 450 483 c 0,98,99
 454 488 454 488 464 499 c 0,100,101
 472 509 472 509 473 518 c 0,102,103
 477 536 477 536 480 572 c 0,104,105
 492 707 492 707 496 741 c 0,106,107
 499 771 499 771 501 794 c 256,108,109
 503 817 503 817 507 822 c 0,110,111
 511 828 511 828 524 824 c 0,112,113
 533 821 533 821 536 814 c 0,114,115
 537 811 537 811 541 783 c 0,116,117
 545 752 545 752 535 672 c 0,118,119
 523 575 523 575 521 565 c 2,120,-1
 504 453 l 1,121,122
 489 305 489 305 483 244 c 0,123,124
 480 211 480 211 479 175 c 0,125,126
 475 70 475 70 475 67 c 0,127,128
 483 22 483 22 507 18 c 0,129,130
 535 13 535 13 555 22 c 0,131,132
 574 30 574 30 600 48 c 0,133,134
 634 71 634 71 674 106 c 0,135,136
 699 128 699 128 699 110 c 0,137,138
 699 101 699 101 676 80 c 0,139,140
 636 41 636 41 611 25 c 0,141,142
 587 8 587 8 551 -3 c 0,143,144
 513 -15 513 -15 495 -9 c 0,145,146
 465 0 465 0 450 45 c 0,0,1
EndSplineSet
EndChar

StartChar: uni0428
Encoding: 202 1064 203
Width: 1039
GlyphClass: 2
Flags: W
LayerCount: 2
Fore
SplineSet
829 -17 m 0,0,1
 816 -16 816 -16 811.5 -14 c 128,-1,2
 807 -12 807 -12 799 -5 c 0,3,4
 776 18 776 18 769 39 c 256,5,6
 762 60 762 60 759 137 c 2,7,-1
 757 189 l 1,8,-1
 750 172 l 2,9,10
 742 155 742 155 736 143 c 0,11,12
 728 123 728 123 706.5 94 c 128,-1,13
 685 65 685 65 666 47 c 0,14,15
 641 22 641 22 609 6 c 2,16,-1
 577 -10 l 1,17,-1
 537 -12 l 2,18,19
 497 -15 497 -15 481 -10.5 c 128,-1,20
 465 -6 465 -6 447.5 3 c 128,-1,21
 430 12 430 12 430 16 c 0,22,23
 430 18 430 18 420 34 c 2,24,-1
 411 51 l 1,25,-1
 410 110 l 2,26,27
 410 164 410 164 408 164 c 0,28,29
 407 164 407 164 406 161 c 0,30,31
 392 130 392 130 372 98 c 0,32,33
 352 69 352 69 326.5 44.5 c 128,-1,34
 301 20 301 20 269 3 c 2,35,-1
 237 -13 l 1,36,-1
 197 -15 l 2,37,38
 157 -17 157 -17 141 -12.5 c 128,-1,39
 125 -8 125 -8 108 1 c 128,-1,40
 91 10 91 10 91 14 c 0,41,42
 91 15 91 15 81 32 c 2,43,-1
 71 49 l 1,44,-1
 71 124 l 2,45,46
 71 199 71 199 77 222 c 0,47,48
 85 255 85 255 96 332 c 0,49,50
 100 360 100 360 116 427 c 0,51,52
 123 457 123 457 124.5 475.5 c 128,-1,53
 126 494 126 494 128 514 c 0,54,55
 144 616 144 616 147 677 c 0,56,57
 150 723 150 723 153 751 c 128,-1,58
 156 779 156 779 155 780 c 128,-1,59
 154 781 154 781 140.5 774 c 128,-1,60
 127 767 127 767 106.5 768 c 128,-1,61
 86 769 86 769 80 774 c 0,62,63
 64 789 64 789 50 762 c 0,64,65
 45 753 45 753 40 753 c 128,-1,66
 35 753 35 753 35 766 c 0,67,68
 35 777 35 777 41.5 785 c 128,-1,69
 48 793 48 793 64 802 c 0,70,71
 78 809 78 809 88 806 c 128,-1,72
 98 803 98 803 101 799 c 0,73,74
 112 786 112 786 136 799 c 0,75,76
 150 807 150 807 152 812 c 0,77,78
 155 821 155 821 175 823 c 0,79,80
 183 823 183 823 185.5 822 c 128,-1,81
 188 821 188 821 192 814 c 0,82,83
 200 798 200 798 192 746 c 0,84,85
 189 728 189 728 185.5 690 c 128,-1,86
 182 652 182 652 178 615.5 c 128,-1,87
 174 579 174 579 172 552 c 0,88,89
 167 498 167 498 160 461 c 0,90,91
 152 420 152 420 130 317 c 0,92,93
 123 286 123 286 119 261.5 c 128,-1,94
 115 237 115 237 112 229 c 0,95,96
 109 217 109 217 105 175.5 c 128,-1,97
 101 134 101 134 100 105 c 2,98,-1
 100 66 l 1,99,-1
 110 50 l 2,100,101
 122 33 122 33 133 26.5 c 128,-1,102
 144 20 144 20 172 14 c 0,103,104
 211 6 211 6 239 20 c 0,105,106
 292 48 292 48 303 60 c 0,107,108
 333 94 333 94 344 115 c 0,109,110
 352 128 352 128 361 142 c 0,111,112
 376 165 376 165 398 238 c 0,113,114
 421 310 421 310 429 350 c 0,115,116
 433 370 433 370 440 401 c 0,117,118
 447 437 447 437 454 473 c 0,119,120
 457 489 457 489 459.5 497.5 c 128,-1,121
 462 506 462 506 464 519.5 c 128,-1,122
 466 533 466 533 468.5 542.5 c 128,-1,123
 471 552 471 552 475 586 c 0,124,125
 483 655 483 655 491 700 c 0,126,127
 495 723 495 723 495 733 c 0,128,129
 495 761 495 761 512 769 c 0,130,131
 522 774 522 774 528 763 c 0,132,133
 537 747 537 747 527 684 c 0,134,135
 523 655 523 655 521 639 c 128,-1,136
 519 623 519 623 516 602 c 0,137,138
 503 537 503 537 501 518 c 0,139,140
 498 500 498 500 494 477 c 128,-1,141
 490 454 490 454 483 405 c 0,142,143
 473 336 473 336 468 313 c 0,144,145
 441 203 441 203 440 112 c 2,146,-1
 440 68 l 1,147,-1
 450 53 l 2,148,149
 461 36 461 36 472.5 29 c 128,-1,150
 484 22 484 22 511 17 c 0,151,152
 550 9 550 9 579 23 c 0,153,154
 631 50 631 50 642 63 c 0,155,156
 672 97 672 97 684 117 c 0,157,158
 692 131 692 131 700 145 c 0,159,160
 714 165 714 165 736 233.5 c 128,-1,161
 758 302 758 302 769 358 c 0,162,163
 775 384 775 384 779.5 403 c 128,-1,164
 784 422 784 422 786.5 436.5 c 128,-1,165
 789 451 789 451 791 462 c 0,166,167
 799 500 799 500 803 557 c 0,168,169
 813 671 813 671 820 726 c 0,170,171
 824 756 824 756 825 779 c 0,172,173
 827 801 827 801 831.5 807 c 128,-1,174
 836 813 836 813 848 809 c 0,175,176
 858 806 858 806 861 798.5 c 128,-1,177
 864 791 864 791 866 768 c 0,178,179
 868 742 868 742 860 655.5 c 128,-1,180
 852 569 852 569 843 520 c 0,181,182
 840 504 840 504 837.5 482 c 128,-1,183
 835 460 835 460 828 429 c 128,-1,184
 821 398 821 398 821 389.5 c 128,-1,185
 821 381 821 381 812 333 c 0,186,187
 799 268 799 268 798 240 c 0,188,189
 797 221 797 221 794 170.5 c 128,-1,190
 791 120 791 120 792 90 c 0,191,192
 792 69 792 69 794 62 c 128,-1,193
 796 55 796 55 803 41 c 0,194,195
 818 15 818 15 828 14 c 0,196,197
 831 14 831 14 846 12 c 128,-1,198
 861 10 861 10 877 17 c 128,-1,199
 893 24 893 24 908 35 c 0,200,201
 958 71 958 71 972 80 c 128,-1,202
 986 89 986 89 989 87 c 0,203,204
 993 84 993 84 994 82 c 0,205,206
 995 78 995 78 972 54 c 128,-1,207
 949 30 949 30 932 17 c 0,208,209
 909 -1 909 -1 906 -1 c 128,-1,210
 903 -1 903 -1 900 -4.5 c 128,-1,211
 897 -8 897 -8 885 -14 c 0,212,213
 870 -21 870 -21 829 -17 c 0,0,1
EndSplineSet
EndChar

StartChar: uni0429
Encoding: 203 1065 204
Width: 1102
GlyphClass: 2
Flags: W
LayerCount: 2
Fore
SplineSet
946 -138 m 0,0,1
 936 -133 936 -133 924.5 -123 c 128,-1,2
 913 -113 913 -113 909 -106 c 0,3,4
 901 -90 901 -90 913 -71 c 0,5,6
 918 -63 918 -63 940 -40 c 2,7,-1
 963 -16 l 1,8,-1
 956 -2 l 2,9,10
 949 12 949 12 949 15 c 128,-1,11
 949 18 949 18 945 21 c 128,-1,12
 941 24 941 24 936 20 c 256,13,14
 931 16 931 16 909 6 c 128,-1,15
 887 -4 887 -4 870 -10 c 0,16,17
 849 -17 849 -17 831 -17 c 0,18,19
 818 -17 818 -17 813.5 -15.5 c 128,-1,20
 809 -14 809 -14 801 -6 c 0,21,22
 776 17 776 17 769 39 c 0,23,24
 762 60 762 60 759 137 c 2,25,-1
 757 189 l 1,26,-1
 750 172 l 2,27,28
 742 155 742 155 736 143 c 0,29,30
 728 123 728 123 706.5 94 c 128,-1,31
 685 65 685 65 666 47 c 0,32,33
 641 22 641 22 609 6 c 2,34,-1
 577 -10 l 1,35,-1
 537 -12 l 2,36,37
 497 -15 497 -15 481 -10.5 c 128,-1,38
 465 -6 465 -6 447.5 3 c 128,-1,39
 430 12 430 12 430 16 c 0,40,41
 430 18 430 18 420 34 c 2,42,-1
 411 51 l 1,43,-1
 410 110 l 2,44,45
 410 164 410 164 408 164 c 0,46,47
 407 164 407 164 406 161 c 0,48,49
 392 130 392 130 372 98 c 0,50,51
 352 69 352 69 326.5 44.5 c 128,-1,52
 301 20 301 20 269 3 c 2,53,-1
 237 -13 l 1,54,-1
 197 -15 l 2,55,56
 157 -17 157 -17 141 -12.5 c 128,-1,57
 125 -8 125 -8 108 1 c 128,-1,58
 91 10 91 10 91 14 c 0,59,60
 91 15 91 15 81 32 c 2,61,-1
 71 49 l 1,62,-1
 71 124 l 2,63,64
 71 199 71 199 77 222 c 0,65,66
 85 255 85 255 96 332 c 0,67,68
 100 360 100 360 116 427 c 0,69,70
 123 457 123 457 124.5 475.5 c 128,-1,71
 126 494 126 494 128 514 c 0,72,73
 144 616 144 616 147 677 c 0,74,75
 150 723 150 723 153 751 c 128,-1,76
 156 779 156 779 155 780 c 128,-1,77
 154 781 154 781 140.5 774 c 128,-1,78
 127 767 127 767 106.5 768 c 128,-1,79
 86 769 86 769 80 774 c 0,80,81
 64 789 64 789 50 762 c 0,82,83
 45 753 45 753 40 753 c 128,-1,84
 35 753 35 753 35 766 c 0,85,86
 35 777 35 777 41.5 785 c 128,-1,87
 48 793 48 793 64 802 c 0,88,89
 78 809 78 809 88 806 c 128,-1,90
 98 803 98 803 101 799 c 0,91,92
 112 786 112 786 136 799 c 0,93,94
 150 807 150 807 152 812 c 0,95,96
 155 821 155 821 175 823 c 0,97,98
 183 823 183 823 185.5 822 c 128,-1,99
 188 821 188 821 192 814 c 0,100,101
 200 798 200 798 192 746 c 0,102,103
 189 728 189 728 185.5 690 c 128,-1,104
 182 652 182 652 178 615.5 c 128,-1,105
 174 579 174 579 172 552 c 0,106,107
 167 498 167 498 160 461 c 0,108,109
 152 420 152 420 130 317 c 0,110,111
 123 286 123 286 119 261.5 c 128,-1,112
 115 237 115 237 112 229 c 0,113,114
 109 217 109 217 105 175.5 c 128,-1,115
 101 134 101 134 100 105 c 2,116,-1
 100 66 l 1,117,-1
 110 50 l 2,118,119
 122 33 122 33 133 26.5 c 128,-1,120
 144 20 144 20 172 14 c 0,121,122
 211 6 211 6 239 20 c 0,123,124
 292 48 292 48 303 60 c 0,125,126
 333 94 333 94 344 115 c 0,127,128
 352 128 352 128 361 142 c 0,129,130
 376 165 376 165 398 238 c 0,131,132
 421 310 421 310 429 350 c 0,133,134
 433 370 433 370 439.5 401 c 128,-1,135
 446 432 446 432 449 447 c 0,136,137
 457 489 457 489 460 498 c 0,138,139
 462 506 462 506 464 519.5 c 128,-1,140
 466 533 466 533 468.5 542.5 c 128,-1,141
 471 552 471 552 475 586 c 0,142,143
 483 655 483 655 491 700 c 0,144,145
 495 723 495 723 495 733 c 0,146,147
 495 761 495 761 512 769 c 0,148,149
 522 774 522 774 528 763 c 0,150,151
 537 747 537 747 527 684 c 0,152,153
 523 655 523 655 521 639 c 128,-1,154
 519 623 519 623 516 602 c 0,155,156
 503 537 503 537 501 518 c 0,157,158
 498 500 498 500 494 477 c 128,-1,159
 490 454 490 454 483 405 c 0,160,161
 473 336 473 336 468 313 c 0,162,163
 441 203 441 203 440 112 c 2,164,-1
 440 68 l 1,165,-1
 450 53 l 2,166,167
 461 36 461 36 472.5 29 c 128,-1,168
 484 22 484 22 511 17 c 0,169,170
 550 9 550 9 579 23 c 0,171,172
 631 50 631 50 642 63 c 0,173,174
 672 97 672 97 684 117 c 0,175,176
 692 131 692 131 700 145 c 0,177,178
 714 165 714 165 736 233.5 c 128,-1,179
 758 302 758 302 769 358 c 0,180,181
 775 384 775 384 779.5 403 c 128,-1,182
 784 422 784 422 786.5 436.5 c 128,-1,183
 789 451 789 451 791 462 c 0,184,185
 799 500 799 500 803 557 c 0,186,187
 813 671 813 671 820 726 c 0,188,189
 824 756 824 756 825 779 c 0,190,191
 827 801 827 801 831.5 807 c 128,-1,192
 836 813 836 813 848 809 c 0,193,194
 858 806 858 806 861 798.5 c 128,-1,195
 864 791 864 791 866 768 c 0,196,197
 868 742 868 742 860 655.5 c 128,-1,198
 852 569 852 569 843 520 c 0,199,200
 840 504 840 504 837.5 482 c 128,-1,201
 835 460 835 460 828 429 c 128,-1,202
 821 398 821 398 821 389.5 c 128,-1,203
 821 381 821 381 812 333 c 0,204,205
 799 268 799 268 798 240 c 0,206,207
 797 221 797 221 794 170.5 c 128,-1,208
 791 120 791 120 792 90 c 0,209,210
 792 68 792 68 794 61.5 c 128,-1,211
 796 55 796 55 804 40 c 0,212,213
 813 23 813 23 818 17.5 c 128,-1,214
 823 12 823 12 827 13 c 256,215,216
 831 14 831 14 846 12 c 128,-1,217
 861 10 861 10 877 17 c 128,-1,218
 893 24 893 24 901 30 c 0,219,220
 936 56 936 56 941 56 c 0,221,222
 945 56 945 56 948 59.5 c 128,-1,223
 951 63 951 63 956.5 56.5 c 128,-1,224
 962 50 962 50 962 48 c 128,-1,225
 962 46 962 46 973 23 c 2,226,-1
 984 -1 l 1,227,-1
 997 8 l 2,228,229
 1018 22 1018 22 1037 28 c 0,230,231
 1059 34 1059 34 1057 25 c 0,232,233
 1055 18 1055 18 1038 6 c 0,234,235
 1000 -19 1000 -19 999 -24 c 0,236,237
 997 -27 997 -27 1004 -40.5 c 128,-1,238
 1011 -54 1011 -54 1017 -79 c 2,239,-1
 1023 -103 l 1,240,-1
 1016 -116 l 2,241,242
 1009 -130 1009 -130 1001 -135 c 128,-1,243
 993 -140 993 -140 975 -141 c 0,244,245
 956 -142 956 -142 946 -138 c 0,0,1
983 -114 m 0,246,247
 990 -107 990 -107 990 -94 c 0,248,249
 990 -84 990 -84 985 -65.5 c 128,-1,250
 980 -47 980 -47 976 -43 c 0,251,252
 974 -41 974 -41 959 -58 c 0,253,254
 937 -83 937 -83 942 -106 c 0,255,256
 944 -115 944 -115 954 -116.5 c 128,-1,257
 964 -118 964 -118 966 -119 c 0,258,259
 975 -122 975 -122 983 -114 c 0,246,247
EndSplineSet
EndChar

StartChar: uni042A
Encoding: 204 1066 205
Width: 735
GlyphClass: 2
Flags: W
LayerCount: 2
Fore
SplineSet
251.81640625 406 m 1,0,1
 237.837890625 311 237.837890625 311 225.802734375 234 c 0,2,3
 188.853515625 6 188.853515625 6 106.853515625 6 c 1,4,5
 9.361328125 7.2666015625 9.361328125 7.2666015625 77.1337890625 164 c 0,6,7
 141.995117188 314 141.995117188 314 251.81640625 406 c 1,0,1
277.4609375 819 m 0,8,9
 246.5703125 802 246.5703125 802 234.30859375 797 c 0,10,11
 172.9453125 771 172.9453125 771 131.26953125 796.259765625 c 0,12,13
 59.5087890625 839 59.5087890625 839 17.2314453125 786 c 0,14,15
 12.4169921875 780 12.4169921875 780 7.1025390625 774 c 0,16,-1
 10.998046875 772 l 1,17,18
 59.2998046875 835 59.2998046875 835 125.991210938 790.95703125 c 0,19,20
 172.8515625 760.72265625 172.8515625 760.72265625 237.045898438 792 c 2,21,-1
 280.146484375 813 l 1,22,23
 274.115234375 717 274.115234375 717 268.875 617 c 0,24,25
 266.831054688 578 266.831054688 578 264.677734375 556 c 1,26,-1
 260.84765625 502 l 0,27,-1
 252.236328125 414 l 1,28,29
 133.995117188 314 133.995117188 314 70.1337890625 164 c 0,30,31
 0.591796875 1 0.591796875 1 106.5390625 0 c 0,32,33
 197.486328125 -1 197.486328125 -1 232.751953125 233 c 0,34,35
 246.51953125 324 246.51953125 324 259.725585938 414 c 1,36,37
 324.223632812 471 324.223632812 471 371.58984375 478 c 24,38,39
 479.481445312 495 479.481445312 495 559.6640625 460.338867188 c 0,40,41
 657.498046875 419 657.498046875 419 667.451171875 275 c 0,42,43
 676.400390625 150 676.400390625 150 607.626953125 78 c 0,44,45
 539.90625 7 539.90625 7 414.899414062 6.87890625 c 0,46,47
 361.90625 7 361.90625 7 281.208007812 70 c 0,48,49
 273.522460938 76 273.522460938 76 265.102539062 68 c 24,50,51
 259.788085938 62 259.788085938 62 263.333007812 52.388671875 c 0,52,53
 269.530273438 38 269.530273438 38 302.639648438 21 c 0,54,55
 337.696289062 3 337.696289062 3 414.591796875 1 c 0,56,57
 538.434570312 -2 538.434570312 -2 612.416992188 74 c 0,58,59
 684.243164062 147 684.243164062 147 675.8984375 274 c 0,60,61
 667.498046875 419 667.498046875 419 562.9609375 466 c 0,62,63
 480.900390625 503 480.900390625 503 370.904296875 484 c 0,64,65
 318.432617188 475 318.432617188 475 260.280273438 422 c 1,66,67
 261.755859375 443 261.755859375 443 266.82421875 492 c 128,-1,68
 271.891601562 541 271.891601562 541 274.459960938 590 c 1,69,70
 279.071289062 678 279.071289062 678 281.115234375 717 c 1,71,72
 283.473632812 762 283.473632812 762 285.83203125 807 c 0,73,74
 286.146484375 813 286.146484375 813 286.4609375 819 c 0,75,-1
 277.4609375 819 l 0,8,9
EndSplineSet
EndChar

StartChar: uni042B
Encoding: 205 1067 206
Width: 881
GlyphClass: 2
Flags: W
LayerCount: 2
Fore
SplineSet
787 738 m 0,0,1
 790 762 790 762 792.759765625 786 c 0,2,-1
 795.759765625 817 l 1,3,4
 797 818 797 818 806.759765625 817.879882812 c 0,5,6
 811 818 811 818 811.759765625 817 c 0,7,-1
 806.759765625 782 l 0,8,9
 806 780 806 780 799.40625 739 c 0,10,11
 745 371 745 371 726.478515625 227 c 0,12,13
 720 177 720 177 721 123 c 8,14,15
 722.373046875 7 722.373046875 7 771 7 c 0,16,17
 798 7 798 7 825 41 c 0,18,19
 839 58 839 58 841 59.5 c 0,20,21
 844 61 844 61 850 61 c 0,22,23
 854 61 854 61 859 56 c 0,24,25
 861 54 861 54 861 50 c 0,26,27
 861 45 861 45 858.134765625 40 c 0,28,29
 855 35 855 35 844 28 c 0,30,31
 799 0 799 0 771.599609375 0 c 0,32,33
 716 0 716 0 714 121 c 0,34,35
 713 178 713 178 719.463867188 227 c 0,36,37
 738 372 738 372 787 738 c 0,0,1
242.459960938 590 m 1,38,39
 247 678 247 678 249.115234375 717 c 1,40,41
 251 762 251 762 253.83203125 807 c 0,42,43
 254 813 254 813 254.4609375 819 c 0,44,-1
 250.934570312 818.5 l 0,45,46
 243 819 243 819 242.408203125 818 c 0,47,48
 241 817 241 817 222.307617188 797 c 0,49,50
 192 765 192 765 158.784179688 787 c 0,51,52
 132 805 132 805 119.3359375 788 c 0,53,54
 112 778 112 778 111.102539062 774 c 0,55,-1
 115.9453125 771 l 1,56,57
 130 798 130 798 152.521484375 782 c 0,58,59
 187.365262952 757.7457457 187.365262952 757.7457457 225.045898438 792 c 2,60,-1
 248.146484375 813 l 1,61,62
 242 717 242 717 236.875 617 c 0,63,64
 235 578 235 578 232.677734375 556 c 1,65,-1
 228.84765625 502 l 0,66,-1
 220.235351562 414 l 1,67,68
 102 314 102 314 38.1337890625 164 c 0,69,70
 -31 1 -31 1 74.5390625 0 c 0,71,72
 165 -1 165 -1 200.751953125 233 c 0,73,74
 215 324 215 324 227.724609375 414 c 1,75,76
 296 472 296 472 339.537109375 477 c 24,77,78
 451 491 451 491 527.559570312 458.338867188 c 0,79,80
 624 417 624 417 635.451171875 275 c 0,81,82
 646 141 646 141 577.522460938 76 c 0,83,84
 504 7 504 7 382.899414062 6.87890625 c 0,85,86
 330 7 330 7 249.208007812 70 c 0,87,88
 242 76 242 76 233.102539062 68 c 24,89,90
 228 62 228 62 231.33203125 52.388671875 c 0,91,92
 238 38 238 38 270.639648438 21 c 0,93,94
 306 3 306 3 382.591796875 1 c 0,95,96
 506 -2 506 -2 580.416992188 74 c 0,97,98
 652 147 652 147 643.8984375 274 c 0,99,100
 635 417 635 417 530.856445312 464 c 0,101,102
 454 499 454 499 338.8515625 483 c 24,103,104
 285 476 285 476 228.280273438 422 c 1,105,106
 230 443 230 443 234.823242188 492 c 0,107,108
 240 541 240 541 242.459960938 590 c 1,38,39
219.81640625 406 m 1,109,110
 206 311 206 311 193.802734375 234 c 0,111,112
 157 6 157 6 74.853515625 6 c 1,113,114
 -23 7 -23 7 45.1337890625 164 c 0,115,116
 110 314 110 314 219.81640625 406 c 1,109,110
EndSplineSet
EndChar

StartChar: uni042C
Encoding: 206 1068 207
Width: 703
GlyphClass: 2
Flags: W
LayerCount: 2
Fore
SplineSet
242.459960938 590 m 1,1,2
 247.071289062 678 247.071289062 678 249.115234375 717 c 1,3,4
 251.473632812 762 251.473632812 762 253.83203125 807 c 0,5,6
 254.146484375 813 254.146484375 813 254.4609375 819 c 0,7,-1
 250.934570312 818.5 l 0,8,9
 243.4609375 819 243.4609375 819 242.408203125 818 c 128,-1,10
 241.356445312 817 241.356445312 817 222.30859375 797 c 0,11,12
 191.630859375 765 191.630859375 765 158.784179688 787 c 0,13,14
 131.727539062 805 131.727539062 805 119.336914062 788 c 0,15,16
 112.3125 778 112.3125 778 111.102539062 774 c 0,17,-1
 115.9453125 771 l 1,18,19
 130.360351562 798 130.360351562 798 152.522460938 782 c 0,20,21
 187.48046875 757.850585938 187.48046875 757.850585938 225.045898438 792 c 2,22,-1
 248.146484375 813 l 1,23,24
 242.115234375 717 242.115234375 717 236.875 617 c 0,25,26
 234.831054688 578 234.831054688 578 232.677734375 556 c 1,27,-1
 228.84765625 502 l 0,28,-1
 220.236328125 414 l 1,29,30
 101.995117188 314 101.995117188 314 38.1337890625 164 c 0,31,32
 -31.408203125 1 -31.408203125 1 74.5390625 0 c 0,33,34
 165.486328125 -1 165.486328125 -1 200.751953125 233 c 0,35,36
 214.51953125 324 214.51953125 324 227.725585938 414 c 1,37,38
 296.275390625 472 296.275390625 472 339.538085938 477 c 24,39,40
 451.271484375 491 451.271484375 491 527.559570312 458.338867188 c 0,41,42
 624.393554688 417 624.393554688 417 635.451171875 275 c 0,43,44
 645.928710938 141 645.928710938 141 577.522460938 76 c 0,45,46
 503.90625 7 503.90625 7 382.899414062 6.87890625 c 0,47,48
 329.90625 7 329.90625 7 249.208007812 70 c 0,49,50
 241.522460938 76 241.522460938 76 233.102539062 68 c 24,51,52
 227.788085938 62 227.788085938 62 231.333007812 52.388671875 c 0,53,54
 237.530273438 38 237.530273438 38 270.639648438 21 c 0,55,56
 305.696289062 3 305.696289062 3 382.591796875 1 c 0,57,58
 506.434570312 -2 506.434570312 -2 580.416992188 74 c 0,59,60
 652.243164062 147 652.243164062 147 643.8984375 274 c 0,61,62
 635.393554688 417 635.393554688 417 530.856445312 464 c 0,63,64
 453.690429688 499 453.690429688 499 338.852539062 483 c 24,65,66
 285.485351562 476 285.485351562 476 228.280273438 422 c 1,67,68
 229.755859375 443 229.755859375 443 234.82421875 492 c 128,-1,69
 239.891601562 541 239.891601562 541 242.459960938 590 c 1,1,2
219.81640625 406 m 1,70,71
 205.837890625 311 205.837890625 311 193.802734375 234 c 0,72,73
 156.853515625 6 156.853515625 6 74.853515625 6 c 1,74,75
 -22.638671875 7.2666015625 -22.638671875 7.2666015625 45.1337890625 164 c 0,76,77
 109.995117188 314 109.995117188 314 219.81640625 406 c 1,70,71
EndSplineSet
EndChar

StartChar: uni042D
Encoding: 207 1069 208
Width: 593
GlyphClass: 2
Flags: W
LayerCount: 2
Fore
SplineSet
208 -4 m 1,0,1
 154 -4 154 -4 95 35 c 0,2,3
 89 39 89 39 39 83 c 0,4,5
 31 90 31 90 39 96 c 0,6,7
 47 103 47 103 111 60 c 0,8,9
 143 39 143 39 166 31 c 0,10,11
 194 21 194 21 218 21 c 0,12,13
 220 21 220 21 227.5 20.5 c 128,-1,14
 235 20 235 20 241 20 c 128,-1,15
 247 20 247 20 257 20.5 c 128,-1,16
 267 21 267 21 279.5 23.5 c 128,-1,17
 292 26 292 26 305 30 c 0,18,19
 369 49 369 49 408 98 c 0,20,21
 442 140 442 140 462 176 c 0,22,23
 475 202 475 202 493 270 c 0,24,25
 498 289 498 289 503 310 c 0,26,27
 506 324 506 324 509 361 c 128,-1,28
 512 398 512 398 511 400 c 0,29,30
 510 401 510 401 503 396 c 0,31,32
 480 380 480 380 434 371 c 0,33,34
 382 361 382 361 348 382 c 0,35,36
 330 393 330 393 311 402 c 0,37,38
 293 411 293 411 283.5 411 c 128,-1,39
 274 411 274 411 260 402 c 256,40,41
 246 393 246 393 242 393 c 0,42,43
 228 396 228 396 246 413 c 0,44,45
 255 421 255 421 267 427 c 0,46,47
 282 434 282 434 295 433 c 0,48,49
 320 431 320 431 360 404 c 0,50,51
 384 388 384 388 423 395 c 0,52,53
 469 403 469 403 497 422 c 2,54,-1
 512 432 l 1,55,-1
 512 453 l 2,56,57
 512 533 512 533 479 622 c 0,58,59
 466 657 466 657 459 669 c 0,60,61
 420 731 420 731 380 760 c 0,62,63
 351 781 351 781 325 789.5 c 128,-1,64
 299 798 299 798 263 799 c 0,65,66
 230 799 230 799 140 762 c 0,67,68
 126 755 126 755 115 755 c 0,69,70
 106 755 106 755 100 760 c 0,71,72
 87 772 87 772 101 786 c 0,73,74
 121 805 121 805 177 818 c 0,75,76
 220 828 220 828 262 830 c 0,77,78
 301 832 301 832 322 825 c 0,79,80
 368 810 368 810 409.5 776.5 c 128,-1,81
 451 743 451 743 477 704 c 0,82,83
 527 630 527 630 538 554 c 0,84,85
 550 468 550 468 549 405 c 0,86,87
 548 286 548 286 500 182 c 0,88,89
 466 108 466 108 417 63 c 0,90,91
 364 15 364 15 322 3 c 0,92,93
 277 -10 277 -10 208 -4 c 1,0,1
EndSplineSet
EndChar

StartChar: uni042E
Encoding: 208 1070 209
Width: 942
GlyphClass: 2
Flags: W
LayerCount: 2
Fore
SplineSet
616 -27 m 0,0,1
 614 -26 614 -26 588.5 -24 c 128,-1,2
 563 -22 563 -22 546 -15 c 0,3,4
 501 6 501 6 486 27 c 0,5,6
 467 57 467 57 461 76 c 0,7,8
 459 83 459 83 447 109 c 0,9,10
 426 157 426 157 416 185 c 0,11,12
 394 249 394 249 406 380 c 0,13,14
 410 430 410 430 418 460 c 0,15,16
 421 471 421 471 421 473 c 0,17,18
 421 474 421 474 408.5 474.5 c 128,-1,19
 396 475 396 475 379 474 c 128,-1,20
 362 473 362 473 351 471 c 0,21,22
 331 468 331 468 303.5 456.5 c 128,-1,23
 276 445 276 445 264 436 c 0,24,25
 253 427 253 427 238 412 c 2,26,-1
 224 398 l 1,27,-1
 224 378 l 2,28,29
 224 357 224 357 221 351.5 c 128,-1,30
 218 346 218 346 218 319 c 0,31,32
 218 280 218 280 202 205 c 0,33,34
 188 136 188 136 175 107 c 0,35,36
 168 93 168 93 168 90 c 0,37,38
 168 86 168 86 139 30 c 0,39,40
 130 11 130 11 112 2 c 128,-1,41
 94 -7 94 -7 73 -4 c 0,42,43
 62 -3 62 -3 58 -0.5 c 128,-1,44
 54 2 54 2 47 13 c 0,45,46
 38 26 38 26 36 43.5 c 128,-1,47
 34 61 34 61 38 97 c 0,48,49
 45 160 45 160 58 195.5 c 128,-1,50
 71 231 71 231 115 306 c 0,51,52
 155 373 155 373 180 403 c 0,53,54
 193 418 193 418 194 423.5 c 128,-1,55
 195 429 195 429 198 519 c 0,56,57
 205 700 205 700 205.5 731 c 128,-1,58
 206 762 206 762 203 770 c 0,59,60
 199 781 199 781 196.5 781 c 128,-1,61
 194 781 194 781 181 774.5 c 128,-1,62
 168 768 168 768 148 769 c 128,-1,63
 128 770 128 770 122 775 c 0,64,65
 106 790 106 790 91 763 c 0,66,67
 87 754 87 754 81.5 754 c 128,-1,68
 76 754 76 754 76 767 c 0,69,70
 77 778 77 778 83 786 c 128,-1,71
 89 794 89 794 106 803 c 0,72,73
 119 811 119 811 129.5 807.5 c 128,-1,74
 140 804 140 804 143.5 800 c 128,-1,75
 147 796 147 796 156 795 c 0,76,77
 171 792 171 792 200 814 c 0,78,79
 223 832 223 832 234 822 c 0,80,81
 238 819 238 819 238.5 809 c 128,-1,82
 239 799 239 799 238 754 c 0,83,84
 237 690 237 690 234 645 c 0,85,86
 226 510 226 510 226 460 c 0,87,88
 226 441 226 441 239 455 c 0,89,90
 246 462 246 462 277 479.5 c 128,-1,91
 308 497 308 497 315 497 c 0,92,93
 319 497 319 497 328 501 c 0,94,95
 337 504 337 504 359 505.5 c 128,-1,96
 381 507 381 507 391 505 c 0,97,98
 400 503 400 503 414.5 501 c 128,-1,99
 429 499 429 499 429 504 c 128,-1,100
 429 509 429 509 434.5 524 c 128,-1,101
 440 539 440 539 444 553 c 0,102,103
 465 618 465 618 479 646 c 0,104,105
 499 681 499 681 522 715 c 128,-1,106
 545 749 545 749 559 762 c 0,107,108
 568 770 568 770 585.5 782 c 128,-1,109
 603 794 603 794 611 802 c 0,110,111
 623 816 623 816 664 831 c 0,112,113
 698 844 698 844 717 845 c 128,-1,114
 736 846 736 846 752 835 c 0,115,116
 763 828 763 828 771 824 c 0,117,118
 779 819 779 819 784.5 809.5 c 128,-1,119
 790 800 790 800 788 791 c 0,120,121
 787 782 787 782 791 781 c 0,122,123
 811 774 811 774 826 761 c 0,124,125
 845 743 845 743 861 692 c 0,126,127
 870 666 870 666 874 657 c 0,128,129
 884 638 884 638 893 587 c 0,130,131
 897 560 897 560 897.5 465 c 128,-1,132
 898 370 898 370 893 340 c 0,133,134
 885 293 885 293 879 264 c 0,135,136
 875 248 875 248 872 230 c 0,137,138
 869 214 869 214 857 180 c 128,-1,139
 845 146 845 146 836 128 c 0,140,141
 826 109 826 109 806.5 81 c 128,-1,142
 787 53 787 53 777 44 c 0,143,144
 756 26 756 26 745.5 19 c 128,-1,145
 735 12 735 12 709 -2 c 0,146,147
 686 -14 686 -14 653 -23 c 128,-1,148
 620 -32 620 -32 616 -27 c 0,0,1
639 10 m 0,149,150
 661 15 661 15 684.5 23.5 c 128,-1,151
 708 32 708 32 716 34 c 0,152,153
 731 37 731 37 751 58.5 c 128,-1,154
 771 80 771 80 781 104 c 0,155,156
 785 112 785 112 787 112 c 128,-1,157
 789 112 789 112 789 115.5 c 128,-1,158
 789 119 789 119 803 147 c 128,-1,159
 817 175 817 175 817 178.5 c 128,-1,160
 817 182 817 182 819 185 c 0,161,162
 826 193 826 193 844 265 c 0,163,164
 846 275 846 275 849 286 c 0,165,166
 867 354 867 354 859 506 c 0,167,168
 855 594 855 594 853 608 c 0,169,170
 845 646 845 646 841 654 c 0,171,172
 839 659 839 659 839 664 c 0,173,174
 839 677 839 677 814 720 c 0,175,176
 802 742 802 742 798.5 748.5 c 128,-1,177
 795 755 795 755 784 763.5 c 128,-1,178
 773 772 773 772 773 778 c 0,179,180
 773 792 773 792 747 806 c 0,181,182
 733 813 733 813 706.5 813 c 128,-1,183
 680 813 680 813 659.5 803.5 c 128,-1,184
 639 794 639 794 635 789.5 c 128,-1,185
 631 785 631 785 612 771 c 0,186,187
 595 759 595 759 576 738 c 128,-1,188
 557 717 557 717 547 702 c 0,189,190
 539 688 539 688 533 679 c 0,191,192
 522 664 522 664 491 572 c 256,193,194
 460 480 460 480 457 462 c 0,195,196
 454 451 454 451 451 439 c 0,197,198
 439 388 439 388 441 359 c 0,199,200
 442 339 442 339 440 318 c 0,201,202
 438 299 438 299 441.5 259.5 c 128,-1,203
 445 220 445 220 451 194 c 0,204,205
 453 185 453 185 456.5 170 c 128,-1,206
 460 155 460 155 463 150 c 0,207,208
 466 144 466 144 482 101 c 0,209,210
 496 60 496 60 507 45 c 0,211,212
 519 28 519 28 558 12 c 0,213,214
 589 -1 589 -1 639 10 c 0,149,150
104 24 m 0,215,216
 111 30 111 30 119 47 c 0,217,218
 144 103 144 103 150 127 c 0,219,220
 155 144 155 144 157.5 149.5 c 128,-1,221
 160 155 160 155 161.5 163 c 128,-1,222
 163 171 163 171 167 189 c 0,223,224
 177 229 177 229 181 264 c 0,225,226
 190 335 190 335 190 350 c 0,227,228
 190 356 190 356 181 346 c 0,229,230
 180 345 180 345 178 343 c 0,231,232
 166 330 166 330 159 318.5 c 128,-1,233
 152 307 152 307 142 297 c 0,234,235
 128 281 128 281 99 211 c 0,236,237
 84 175 84 175 79.5 161.5 c 128,-1,238
 75 148 75 148 68 112 c 0,239,240
 60 78 60 78 62 54 c 0,241,242
 63 36 63 36 66 30.5 c 128,-1,243
 69 25 69 25 80 22 c 256,244,245
 91 19 91 19 94 19.5 c 128,-1,246
 97 20 97 20 104 24 c 0,215,216
EndSplineSet
EndChar

StartChar: uni042F
Encoding: 209 1071 210
Width: 745
GlyphClass: 2
Flags: W
LayerCount: 2
Fore
SplineSet
604 815 m 1,0,-1
 608 815 l 1,1,-1
 590.461914062 686.384765625 l 1,2,-1
 589.0703125 673.166015625 l 2,3,4
 588 659 588 659 586.721679688 644 c 0,5,6
 583.329101562 635.26171875 583.329101562 635.26171875 577.776367188 564.875 c 0,7,8
 574 517 574 517 571.840820312 492 c 0,9,10
 572 487 572 487 561.4609375 362 c 1,11,-1
 555.017578125 227 l 1,12,13
 553 7 553 7 623 6 c 0,14,15
 648 6 648 6 676 41 c 0,16,17
 690 58 690 58 692 59.5 c 0,18,19
 695 61 695 61 701 61 c 0,20,21
 705 61 705 61 710 56 c 0,22,23
 712 54 712 54 712 50 c 0,24,25
 712 45 712 45 709.134765625 40 c 0,26,27
 706 35 706 35 695 28 c 0,28,29
 650 0 650 0 622.599609375 0 c 0,30,31
 544 0 544 0 547.28515625 228 c 1,32,-1
 554.130859375 362 l 1,33,-1
 565.236328125 493.776367188 l 1,34,35
 555 445 555 445 534 372 c 0,36,37
 507 280 507 280 448.77734375 202 c 0,38,39
 387 118 387 118 290 49.068359375 c 0,40,41
 220 -1 220 -1 143 -1 c 0,42,43
 86 -1 86 -1 65 21 c 0,44,45
 48.3349609375 38.6455078125 48.3349609375 38.6455078125 46 69 c 2,46,-1
 44 95 l 1,47,48
 51 99 51 99 51 95 c 0,49,50
 51 94 51 94 53 69 c 0,51,52
 55 40 55 40 70 26 c 0,53,54
 93 5 93 5 141 6 c 0,55,56
 218 8 218 8 285 55.6650390625 c 0,57,58
 378 123 378 123 439.795898438 206 c 0,59,60
 495 280 495 280 526 374 c 0,61,62
 545 431 545 431 554 477 c 1,63,64
 543 441 543 441 531 426 c 0,65,66
 509 398 509 398 488 385.369140625 c 0,67,68
 470 375 470 375 427 374 c 0,69,70
 347 372 347 372 304 437.5 c 0,71,72
 262 501 262 501 261 595 c 0,73,74
 260 687 260 687 344 761 c 0,75,76
 411 820 411 820 512 819 c 0,77,78
 586 818 586 818 592.883789062 787.567382812 c 1,79,80
 595 802 595 802 597 815 c 1,81,-1
 604 815 l 1,0,-1
574.69140625 609.299804688 m 0,82,83
 575.915039062 622.125 575.915039062 622.125 579.2734375 653.498046875 c 0,84,85
 579.64453125 657.71484375 579.64453125 657.71484375 580 662 c 0,86,87
 584.330078125 715.58984375 584.330078125 715.58984375 588.954101562 755.994140625 c 0,88,89
 588.854492188 776.724609375 588.854492188 776.724609375 586 786 c 0,90,91
 578 812 578 812 509 812 c 0,92,93
 412 812 412 812 350 756 c 0,94,95
 267 682 267 682 268.5 591.5 c 128,-1,96
 270 501 270 501 310 441 c 0,97,98
 349 381 349 381 428 381 c 0,99,100
 467 381 467 381 484 391 c 0,101,102
 510 406 510 406 525.962890625 430.443359375 c 0,103,104
 559.416015625 482.713867188 559.416015625 482.713867188 574.69140625 609.299804688 c 0,82,83
EndSplineSet
EndChar

StartChar: uni0431
Encoding: 211 1073 212
Width: 447
GlyphClass: 2
Flags: W
LayerCount: 2
Fore
SplineSet
156 3 m 0,0,1
 121 10 121 10 93 37 c 0,2,3
 60 69 60 69 50 104 c 0,4,5
 46 117 46 117 45 167 c 0,6,7
 43 243 43 243 59 296 c 0,8,9
 65 315 65 315 74 350 c 0,10,11
 91 415 91 415 112 449.5 c 128,-1,12
 133 484 133 484 169 503 c 0,13,14
 187 513 187 513 194 515 c 128,-1,15
 201 517 201 517 216 517 c 0,16,17
 251 517 251 517 279 501 c 2,18,-1
 291 493 l 1,19,-1
 281 513 l 2,20,21
 271 533 271 533 251 560 c 0,22,23
 192 640 192 640 173 661 c 0,24,25
 156 679 156 679 149 692 c 0,26,27
 139 710 139 710 136 736.5 c 128,-1,28
 133 763 133 763 139 776 c 0,29,30
 144 785 144 785 144 790 c 0,31,32
 144 796 144 796 171.5 819.5 c 128,-1,33
 199 843 199 843 225 859 c 0,34,35
 246 872 246 872 267 874 c 0,36,37
 308 879 308 879 340 862 c 0,38,39
 420 819 420 819 456 832 c 0,40,41
 464 835 464 835 484.5 848 c 128,-1,42
 505 861 505 861 515 871 c 0,43,44
 525 880 525 880 529 880 c 0,45,46
 554 883 554 883 556 878 c 0,47,48
 558 872 558 872 530.5 848.5 c 128,-1,49
 503 825 503 825 479 812 c 2,50,-1
 455 799 l 1,51,-1
 427 801 l 2,52,53
 405 802 405 802 387.5 808 c 128,-1,54
 370 814 370 814 327 835 c 0,55,56
 307 844 307 844 294 848 c 0,57,58
 288 850 288 850 267 845.5 c 128,-1,59
 246 841 246 841 234 834 c 0,60,61
 220 827 220 827 201 810 c 0,62,63
 179 789 179 789 175.5 769 c 128,-1,64
 172 749 172 749 182 713 c 0,65,66
 187 695 187 695 200.5 680.5 c 128,-1,67
 214 666 214 666 227 650 c 128,-1,68
 240 634 240 634 263 609 c 128,-1,69
 286 584 286 584 300 555.5 c 128,-1,70
 314 527 314 527 324 508 c 0,71,72
 333 492 333 492 337 480 c 128,-1,73
 341 468 341 468 352 423 c 0,74,75
 370 351 370 351 358 230 c 0,76,77
 351 158 351 158 335 109 c 0,78,79
 311 37 311 37 273 18 c 0,80,81
 250 6 250 6 216 1.5 c 128,-1,82
 182 -3 182 -3 156 3 c 0,0,1
230 36 m 0,83,84
 240 38 240 38 262 60 c 0,85,86
 277 75 277 75 282.5 83.5 c 128,-1,87
 288 92 288 92 296 112 c 0,88,89
 319 167 319 167 324 192 c 128,-1,90
 329 217 329 217 330 283 c 0,91,92
 331 336 331 336 321 386 c 0,93,94
 313 428 313 428 307.5 437 c 128,-1,95
 302 446 302 446 276 459 c 0,96,97
 245 475 245 475 227.5 477 c 128,-1,98
 210 479 210 479 184 470 c 0,99,100
 171 465 171 465 165 457 c 128,-1,101
 159 449 159 449 144 414 c 0,102,103
 128 377 128 377 125 373 c 0,104,105
 120 367 120 367 108 320 c 0,106,107
 74 189 74 189 91 116 c 0,108,109
 97 91 97 91 100 83 c 0,110,111
 105 72 105 72 145 43 c 0,112,113
 152 38 152 38 183 35.5 c 128,-1,114
 214 33 214 33 230 36 c 0,83,84
EndSplineSet
EndChar

StartChar: uni0433
Encoding: 213 1075 214
Width: 431
GlyphClass: 2
Flags: W
LayerCount: 2
Fore
SplineSet
176 -2 m 0,0,1
 153 -1 153 -1 125 7.5 c 128,-1,2
 97 16 97 16 81 29 c 1,3,4
 56 71 56 71 89 131 c 0,5,6
 101 153 101 153 117.5 177 c 128,-1,7
 134 201 134 201 147 217.5 c 128,-1,8
 160 234 160 234 182 261 c 128,-1,9
 204 288 204 288 215 301 c 0,10,11
 258 350 258 350 274 395 c 0,12,13
 275 399 275 399 277 409 c 128,-1,14
 279 419 279 419 280 424.5 c 128,-1,15
 281 430 281 430 281 438.5 c 128,-1,16
 281 447 281 447 279.5 453.5 c 128,-1,17
 278 460 278 460 274 464 c 0,18,19
 263 478 263 478 249 484.5 c 128,-1,20
 235 491 235 491 209 490 c 0,21,22
 166 489 166 489 134 451 c 0,23,24
 107 419 107 419 99 397 c 0,25,26
 98 393 98 393 88 368.5 c 128,-1,27
 78 344 78 344 73 331 c 1,28,29
 76 314 76 314 57 308 c 0,30,31
 39 303 39 303 35 317 c 0,32,33
 34 322 34 322 36 327 c 0,34,35
 59 412 59 412 99 461 c 1,36,37
 112 485 112 485 144 498 c 128,-1,38
 176 511 176 511 211 513 c 0,39,40
 253 515 253 515 291 495 c 1,41,42
 323 472 323 472 316 442 c 1,43,44
 309 357 309 357 236 271 c 0,45,46
 201 234 201 234 138 144 c 1,47,48
 109 95 109 95 117 55 c 0,49,50
 119 46 119 46 128 40.5 c 128,-1,51
 137 35 137 35 144.5 33.5 c 128,-1,52
 152 32 152 32 165.5 30 c 128,-1,53
 179 28 179 28 182 27 c 0,54,55
 230 24 230 24 251 36 c 1,56,57
 288 49 288 49 317 79 c 0,58,59
 325 86 325 86 332 94 c 128,-1,60
 339 102 339 102 350 116 c 128,-1,61
 361 130 361 130 364 134 c 0,62,63
 371 146 371 146 381 141 c 128,-1,64
 391 136 391 136 381 125 c 1,65,66
 357 77 357 77 308 38 c 0,67,68
 287 18 287 18 245 0 c 0,69,70
 226 -5 226 -5 176 -2 c 0,0,1
EndSplineSet
EndChar

StartChar: uni0436
Encoding: 216 1078 217
Width: 707
GlyphClass: 2
Flags: W
LayerCount: 2
Fore
SplineSet
423.045898438 166.678710938 m 0,0,1
 423 149 423 149 424.8671875 134 c 0,2,3
 431.292906918 81.8535277187 431.292906918 81.8535277187 450.698277499 50 c 4,4,5
 481.158593783 0 481.158593783 0 543.599609375 0 c 0,6,7
 571 0 571 0 616 28 c 0,8,9
 627 35 627 35 630.134765625 40 c 0,10,11
 633 45 633 45 633 50 c 0,12,13
 633 54 633 54 631 56 c 0,14,15
 626 61 626 61 622 61 c 0,16,17
 616 61 616 61 613 59.5 c 0,18,19
 611 58 611 58 597 41 c 0,20,21
 567 5 567 5 542 6 c 0,22,23
 485.444649647 8.3812779096 485.444649647 8.3812779096 457.080093519 54 c 0,24,25
 437.798709601 85.0102541523 437.798709601 85.0102541523 431.543945312 136 c 0,26,27
 428 175 428 175 431.19921875 214 c 0,28,29
 432 226 432 226 444 302 c 0,30,31
 448.799404879 334.635953181 448.799404879 334.635953181 454.17578125 352 c 2,32,-1
 473 412.796453445 l 1,33,34
 500 484 500 484 568.583984375 484.590820312 c 0,35,36
 612 485 612 485 636 472 c 0,37,38
 656 461 656 461 669 430 c 1,39,40
 671 432 671 432 672.5 433 c 128,-1,41
 674 434 674 434 674 436 c 4,42,43
 663 462 663 462 638 478 c 0,44,45
 614 491 614 491 567 490.879882812 c 0,46,47
 492 491 492 491 467 417.956365377 c 0,48,49
 450 367 450 367 431 333 c 0,50,51
 380 236 380 236 303 57 c 1,52,-1
 332 228 l 1,53,54
 347 309 347 309 369 455 c 0,55,56
 371 468 371 468 373 480 c 1,57,58
 372 481 372 481 363 481 c 1,59,60
 323 373 323 373 239.739140424 218 c 0,61,62
 229 198 229 198 217 179 c 1,63,64
 228 230 228 230 231.285183316 278 c 0,65,66
 234 317 234 317 231.490234375 354 c 0,67,68
 222 491 222 491 118 490.8046875 c 0,69,70
 89 491 89 491 39 441 c 0,71,72
 38 440 38 440 40 438.5 c 0,73,-1
 44 436 l 0,74,75
 91 485 91 485 118 485 c 0,76,77
 215 483 215 483 224.758789062 352 c 0,78,79
 228 305 228 305 224.80078125 278 c 0,80,81
 218 223 218 223 212 190 c 0,82,83
 207 162 207 162 199.390625 137 c 0,84,85
 180 70 180 70 150.231445312 38 c 0,86,87
 121 6 121 6 77 5.9296875 c 0,88,89
 62 6 62 6 45 9.404296875 c 0,90,91
 16 16 16 16 -7 64 c 1,92,93
 -9 62 -9 62 -13.5 60 c 128,-1,94
 -18 58 -18 58 -18 56 c 0,95,96
 -18 15 -18 15 43 3.22265625 c 0,97,98
 60 0 60 0 76 -0.1103515625 c 0,99,100
 123 -0 123 -0 155.733559604 34.5232027854 c 0,101,102
 185.450848448 65.609863445 185.450848448 65.609863445 206.599609375 135 c 0,103,104
 211 149 211 149 247.403320312 216 c 0,105,106
 320 350 320 350 362 457 c 1,107,108
 356 419 356 419 293 39 c 1,109,-1
 301 39 l 1,110,111
 385 235 385 235 445 344 c 1,112,113
 441 323 441 323 437.306570039 303 c 0,114,115
 429 253 429 253 425.262383216 214 c 0,116,117
 423 188 423 188 423.045898438 166.678710938 c 0,0,1
EndSplineSet
EndChar

StartChar: uni0437
Encoding: 217 1079 218
Width: 444
GlyphClass: 2
Flags: W
LayerCount: 2
Fore
SplineSet
106.469726562 345 m 17,0,1
 126 397 126 397 148.870117188 431 c 0,2,3
 191 492 191 492 253 491 c 0,4,5
 350 490 350 490 349 390.5 c 0,6,7
 348 293 348 293 294.08203125 233 c 0,8,9
 261 196 261 196 225 168 c 1,10,-1
 221 173 l 1,11,12
 262 207 262 207 289 236.25 c 0,13,14
 341 293 341 293 342.891601562 389 c 0,15,16
 344.953431642 481.901727709 344.953431642 481.901727709 253.825195312 485 c 0,17,18
 194 487 194 487 152.897460938 427 c 0,19,20
 133.982660028 399.74351335 133.982660028 399.74351335 111.365234375 342 c 9,21,-1
 106.469726562 345 l 17,0,1
221 173 m 1,22,23
 343 229 343 229 360.28125 26 c 1,24,25
 362 -17 362 -17 366.723632812 -60 c 0,26,27
 391 -290 391 -290 282.05078125 -337 c 0,28,29
 179 -382 179 -382 87.2470703125 -360 c 0,30,31
 29 -346 29 -346 8.041015625 -280 c 0,32,-1
 -1.2822265625 -232 l 0,33,34
 -6 -204 -6 -204 3.009765625 -195 c 0,35,36
 9 -189 9 -189 18.52734375 -194.5 c 0,37,38
 21 -196 21 -196 22.537109375 -205 c 0,39,40
 23 -208 23 -208 17.9619140625 -225 c 0,41,42
 10 -255 10 -255 15.1455078125 -277 c 0,43,44
 30 -340 30 -340 88.421875 -355 c 0,45,46
 178.750986526 -377.953147271 178.750986526 -377.953147271 279.243164062 -331.5 c 0,47,48
 384 -283 384 -283 360.654296875 -62 c 0,49,50
 360 -58 360 -58 353.641601562 24 c 0,51,52
 340 223 340 223 225 168 c 1,53,-1
 221 173 l 1,22,23
EndSplineSet
EndChar

StartChar: uni0439
Encoding: 219 1081 220
Width: 516
GlyphClass: 2
Flags: W
LayerCount: 2
Fore
SplineSet
427 624 m 1,0,1
 392 575 392 575 290 572 c 0,2,3
 249 571 249 571 214 597 c 0,4,5
 191 614 191 614 188 596 c 0,6,7
 186 582 186 582 227 568 c 0,8,9
 245.896484375 561.987304688 245.896484375 561.987304688 268 563 c 0,10,11
 398 568 398 568 432 621 c 9,12,-1
 427 624 l 1,0,1
EndSplineSet
Refer: 263 -1 N 1 0 0 1 3 0 2
EndChar

StartChar: uni043A
Encoding: 220 1082 221
Width: 531
GlyphClass: 2
Flags: W
LayerCount: 2
Fore
SplineSet
158.932617188 317 m 1,0,1
 222 396 222 396 364 454.012787156 c 0,2,3
 393 466 393 466 429 480 c 1,4,-1
 427 486 l 1,5,6
 391 472 391 472 363 460.54151913 c 0,7,8
 226 405 226 405 154 322 c 0,9,10
 123 287 123 287 101 220 c 1,11,12
 119.756871804 371.097022867 119.756871804 371.097022867 128 473 c 2,13,-1
 129.456054688 491 l 1,14,-1
 123.389648438 491 l 1,15,-1
 122.456054688 473 l 1,16,-1
 95.2711321948 227 l 2,17,18
 95 227 95 227 87.044921875 169 c 0,19,20
 79 116 79 116 60 0 c 1,21,-1
 77 0 l 1,22,-1
 84 72 l 2,23,24
 93 169 93 169 100 189 c 1,25,26
 127 282 127 282 154.231445312 312 c 1,27,28
 175 294 175 294 228 292.066646008 c 0,29,30
 336 287 336 287 337 180 c 24,31,-1
 335 121 l 0,32,33
 337 -0 337 -0 392.599609375 0 c 0,34,35
 420 0 420 0 465 28 c 0,36,37
 476 35 476 35 479.134765625 40 c 0,38,39
 482 45 482 45 482 50 c 0,40,41
 482 54 482 54 480 56 c 0,42,43
 475 61 475 61 471 61 c 0,44,45
 465 61 465 61 462 59.5 c 0,46,47
 460 58 460 58 446 41 c 0,48,49
 419 7 419 7 392 7 c 0,50,51
 343 7 343 7 342 123 c 24,52,-1
 345 181 l 0,53,54
 342 291 342 291 230 296.377192982 c 0,55,56
 181 299 181 299 158.932617188 317 c 1,0,1
EndSplineSet
EndChar

StartChar: uni043B
Encoding: 221 1083 222
Width: 520
GlyphClass: 2
Flags: W
LayerCount: 2
Fore
SplineSet
347 490.879882812 m 4,0,-1
 336.130859375 362 l 4,1,-1
 329.28515625 228 l 28,2,3
 326 0 326 0 404.599609375 0 c 4,4,5
 432 0 432 0 477 28 c 4,6,7
 488 35 488 35 491.134765625 40 c 4,8,9
 494 45 494 45 494 50 c 4,10,11
 494 54 494 54 492 56 c 4,12,13
 487 61 487 61 483 61 c 4,14,15
 477 61 477 61 474 59.5 c 4,16,17
 472 58 472 58 458 41 c 4,18,19
 430 6 430 6 405 6 c 4,20,21
 335 7 335 7 337.017578125 227 c 12,22,-1
 343.4609375 362 l 4,23,24
 351 457 351 457 354 490.879882812 c 5,25,-1
 347 490.879882812 l 4,0,-1
25 55 m 21,26,27
 27 39 27 39 44 21 c 4,28,29
 65 -1 65 -1 99 -1 c 4,30,31
 208 0 208 0 287.111328125 235 c 4,32,33
 312 309 312 309 328.431640625 376 c 4,34,35
 344 439 344 439 354.063476562 491 c 13,36,-1
 347.294921875 491 l 21,37,38
 347 483 347 483 320.73828125 378 c 4,39,40
 302 302 302 302 280.567382812 237 c 4,41,42
 206 5 206 5 99 5 c 4,43,44
 68 5 68 5 49 25 c 4,45,46
 33 42 33 42 31 57 c 13,47,-1
 25 55 l 21,26,27
EndSplineSet
EndChar

StartChar: uni043C
Encoding: 222 1084 223
Width: 725
GlyphClass: 2
Flags: W
LayerCount: 2
Fore
SplineSet
381.674804688 18 m 0,0,1
 430.044921875 63.1884765625 430.044921875 63.1884765625 487.111328125 235 c 0,2,3
 512 309 512 309 528.431640625 376 c 0,4,5
 544 439 544 439 554.063476562 491 c 9,6,-1
 547.294921875 491 l 17,7,8
 547 474 547 474 522.73828125 378 c 0,9,10
 507 314 507 314 481.567382812 237 c 0,11,12
 426.752929688 66.76171875 426.752929688 66.76171875 377.423828125 21 c 0,13,14
 360.811523438 5.5888671875 360.811523438 5.5888671875 349.711914062 27 c 0,15,16
 325.293945312 74.103515625 325.293945312 74.103515625 327.017578125 227 c 8,17,-1
 333.4609375 362 l 0,18,19
 341 457 341 457 344 490.879882812 c 1,20,-1
 337 490.879882812 l 0,21,-1
 327.130859375 362 l 0,22,-1
 321.28515625 228 l 16,23,24
 319.35546875 75.162109375 319.35546875 75.162109375 344.291992188 25 c 0,25,26
 358.524414062 -3.6279296875 358.524414062 -3.6279296875 381.674804688 18 c 0,0,1
15 55 m 17,27,28
 17 39 17 39 34 21 c 0,29,30
 55 -1 55 -1 89 -1 c 0,31,32
 198 0 198 0 277.111328125 235 c 0,33,34
 302 309 302 309 318.431640625 376 c 0,35,36
 334 439 334 439 344.063476562 491 c 9,37,-1
 337.294921875 491 l 17,38,39
 337 474 337 474 312.73828125 378 c 0,40,41
 297 314 297 314 271.567382812 237 c 0,42,43
 194 5 194 5 89 5 c 0,44,45
 58 5 58 5 39 25 c 0,46,47
 23 42 23 42 21 57 c 9,48,-1
 15 55 l 17,27,28
547 490.879882812 m 0,49,-1
 537.130859375 362 l 0,50,-1
 531.28515625 228 l 24,51,52
 528 0 528 0 604.599609375 0 c 0,53,54
 632 0 632 0 677 28 c 0,55,56
 688 35 688 35 691.134765625 40 c 0,57,58
 694 45 694 45 694 50 c 0,59,60
 694 54 694 54 692 56 c 0,61,62
 687 61 687 61 683 61 c 0,63,64
 677 61 677 61 674 59.5 c 0,65,66
 672 58 672 58 658 41 c 0,67,68
 630 6 630 6 605 6 c 0,69,70
 535 7 535 7 537.017578125 227 c 8,71,-1
 543.4609375 362 l 0,72,73
 551 457 551 457 554 490.879882812 c 1,74,-1
 547 490.879882812 l 0,49,-1
EndSplineSet
EndChar

StartChar: uni043D
Encoding: 223 1085 224
Width: 515
GlyphClass: 2
Flags: W
LayerCount: 2
Fore
SplineSet
345 1 m 0,0,1
 326 6 326 6 317 38 c 0,2,3
 305 76 305 76 318 154 c 0,4,5
 324 191 324 191 327 212 c 128,-1,6
 330 233 330 233 332.5 246 c 128,-1,7
 335 259 335 259 337 273 c 2,8,-1
 338 288 l 1,9,-1
 332 281 l 2,10,11
 325 274 325 274 307.5 267 c 128,-1,12
 290 260 290 260 279 260 c 0,13,14
 266 260 266 260 233 262 c 0,15,16
 209 264 209 264 201.5 263 c 128,-1,17
 194 262 194 262 180 256 c 0,18,19
 131 235 131 235 112 201 c 0,20,21
 108 193 108 193 99 158 c 128,-1,22
 90 123 90 123 88 74 c 2,23,-1
 86 24 l 1,24,-1
 76 16 l 2,25,26
 69 10 69 10 55.5 6 c 128,-1,27
 42 2 42 2 38 5 c 0,28,29
 33 8 33 8 36 43 c 128,-1,30
 39 78 39 78 49 115 c 0,31,32
 57 147 57 147 59 173.5 c 128,-1,33
 61 200 61 200 65.5 227 c 128,-1,34
 70 254 70 254 71.5 273 c 128,-1,35
 73 292 73 292 77 318 c 0,36,37
 96 442 96 442 100 473 c 0,38,39
 103 493 103 493 104.5 498 c 128,-1,40
 106 503 106 503 114 507 c 0,41,42
 120 511 120 511 125.5 513 c 128,-1,43
 131 515 131 515 134.5 514 c 128,-1,44
 138 513 138 513 138 510 c 0,45,46
 138 505 138 505 133.5 466 c 128,-1,47
 129 427 129 427 125.5 397.5 c 128,-1,48
 122 368 122 368 114 321 c 0,49,50
 101 247 101 247 108 246 c 0,51,52
 111 246 111 246 119 255 c 128,-1,53
 127 264 127 264 158 278 c 0,54,55
 184 291 184 291 198.5 292.5 c 128,-1,56
 213 294 213 294 257 290 c 0,57,58
 281 288 281 288 287 288 c 128,-1,59
 293 288 293 288 303 293 c 0,60,61
 327 305 327 305 335 325 c 0,62,63
 349 358 349 358 354 412 c 0,64,65
 356 437 356 437 363 468.5 c 128,-1,66
 370 500 370 500 375 505 c 0,67,68
 380 511 380 511 387 511 c 128,-1,69
 394 511 394 511 398 505 c 0,70,71
 403 497 403 497 391 423 c 0,72,73
 388 404 388 404 385.5 384.5 c 128,-1,74
 383 365 383 365 378 334 c 128,-1,75
 373 303 373 303 370.5 268 c 128,-1,76
 368 233 368 233 360 174 c 128,-1,77
 352 115 352 115 352 83 c 128,-1,78
 352 51 352 51 358 43 c 0,79,80
 376 18 376 18 440 62 c 0,81,82
 461 77 461 77 469 66 c 0,83,84
 477 54 477 54 450 33 c 0,85,86
 432 19 432 19 430 19 c 128,-1,87
 428 19 428 19 423 14 c 0,88,89
 419 10 419 10 396 4 c 128,-1,90
 373 -2 373 -2 363 -2 c 0,91,92
 354 -2 354 -2 345 1 c 0,0,1
EndSplineSet
EndChar

StartChar: uni0444
Encoding: 230 1092 231
Width: 613
GlyphClass: 2
Flags: W
LayerCount: 2
Fore
SplineSet
338.450195312 409 m 0,0,-1
 338.525390625 398 l 1,1,2
 341 404 341 404 363.27734375 434 c 0,3,4
 399 482 399 482 453.383789062 485 c 0,5,6
 531 489 531 489 554.333007812 375 c 0,7,8
 569 303 569 303 569.119140625 257 c 0,9,10
 569 151 569 151 522.514648438 65 c 0,11,12
 489 3 489 3 417.586914062 5 c 0,13,14
 386 6 386 6 349.62890625 34.8564453125 c 0,15,16
 322 57 322 57 296 84 c 0,17,-1
 292.513671875 75 l 1,18,19
 310 58 310 58 345.958984375 29 c 0,20,21
 379 2 379 2 418.412109375 0 c 0,22,23
 492 -3 492 -3 526.541992188 61 c 0,24,25
 575 153 575 153 575.184570312 258 c 0,26,27
 575 316 575 316 560.40234375 377 c 0,28,29
 532 497 532 497 453.075195312 490.5 c 0,30,31
 387 485 387 485 358.453125 438 c 0,32,33
 345 416 345 416 341 410 c 1,34,35
 338.450195312 409 l 0,0,-1
261 -378 m 17,36,37
 261 -317 261 -317 282.325195312 -94 c 0,38,39
 300 88 300 88 301.752929688 102 c 0,40,41
 318 206 318 206 337.076171875 361 c 0,42,43
 344 417 344 417 350 473 c 1,44,-1
 343 473 l 1,45,46
 333 373 333 373 330.662270641 361 c 0,47,48
 297 124 297 124 295.416015625 102 c 0,49,50
 291 18 291 18 274.97265625 -93 c 0,51,52
 273 -107 273 -107 241 -378 c 1,53,-1
 261 -378 l 17,36,37
298.549804688 90 m 0,54,-1
 297.474609375 94 l 1,55,56
 286 70 286 70 272.72265625 52 c 0,57,58
 247 14 247 14 169.616210938 6 c 0,59,60
 135 2 135 2 100.245117188 24 c 0,61,62
 45 59 45 59 44.7861328125 140 c 0,63,64
 45 266 45 266 80.953125 362 c 0,65,66
 128.283640654 490.484603065 128.283640654 490.484603065 224.413085938 487 c 0,67,68
 253 486 253 486 286.37109375 457.143554688 c 0,69,70
 318 432 318 432 337.270507812 406 c 0,71,72
 339.167478034 405.033737701 339.167478034 405.033737701 338.486328125 409 c 1,73,74
 330 428 330 428 289.541015625 462.5 c 0,75,76
 258 490 258 490 223.587890625 492 c 0,77,78
 125 497 125 497 76.0576171875 365 c 0,79,80
 40 268 40 268 39.9853515625 141 c 0,81,82
 40 56 40 56 96.0703125 19 c 0,83,84
 128 -2 128 -2 169.924804688 0.5 c 0,85,86
 246 5 246 5 277.546875 48 c 0,87,88
 289 63 289 63 298.876953125 83 c 1,89,90
 298 88 298 88 298.549804688 90 c 0,54,-1
EndSplineSet
EndChar

StartChar: uni0446
Encoding: 232 1094 233
Width: 565
GlyphClass: 2
Flags: W
LayerCount: 2
Fore
SplineSet
409.5 -194.5 m 128,-1,1
 402 -193 402 -193 394.5 -184.5 c 128,-1,2
 387 -176 387 -176 385 -167 c 0,3,4
 379 -145 379 -145 388 -110 c 0,5,6
 401 -63 401 -63 421 -43 c 0,7,8
 435 -28 435 -28 435 -27 c 0,9,10
 428 -6 428 -6 413 2 c 0,11,12
 400 8 400 8 379 0 c 0,13,14
 367 -5 367 -5 352 -4 c 128,-1,15
 337 -3 337 -3 329 4 c 0,16,17
 327 6 327 6 325 8 c 128,-1,18
 323 10 323 10 321.5 11.5 c 128,-1,19
 320 13 320 13 318.5 17 c 128,-1,20
 317 21 317 21 316 23 c 128,-1,21
 315 25 315 25 312 31 c 0,22,23
 310 38 310 38 309 40 c 2,24,-1
 305 57 l 1,25,-1
 298 48 l 2,26,27
 290 38 290 38 280 32 c 0,28,29
 268 26 268 26 256 18 c 0,30,31
 245 11 245 11 213.5 4.5 c 128,-1,32
 182 -2 182 -2 165 -2 c 0,33,34
 149 -2 149 -2 121 7 c 0,35,36
 104 13 104 13 98 15.5 c 128,-1,37
 92 18 92 18 83 25.5 c 128,-1,38
 74 33 74 33 60 49 c 0,39,40
 47 64 47 64 41 85 c 128,-1,41
 35 106 35 106 35 126 c 128,-1,42
 35 146 35 146 35 167 c 0,43,44
 37 249 37 249 48 284 c 0,45,46
 51 294 51 294 54 321.5 c 128,-1,47
 57 349 57 349 69.5 413 c 128,-1,48
 82 477 82 477 82 489 c 0,49,50
 82 504 82 504 94.5 509.5 c 128,-1,51
 107 515 107 515 119 506 c 0,52,53
 124 502 124 502 124.5 499 c 128,-1,54
 125 496 125 496 123 487 c 0,55,56
 118 464 118 464 117 458 c 0,57,58
 114 431 114 431 104 387 c 0,59,60
 99 365 99 365 91 324 c 128,-1,61
 83 283 83 283 78 264 c 0,62,63
 69 224 69 224 71 161 c 128,-1,64
 73 98 73 98 85 70 c 1,65,66
 101 50 101 50 126.5 38 c 128,-1,67
 152 26 152 26 171 26 c 0,68,69
 189 26 189 26 217 39.5 c 128,-1,70
 245 53 245 53 261 70 c 0,71,72
 307 117 307 117 314 165 c 0,73,74
 320 209 320 209 326 243 c 0,75,76
 329 259 329 259 333.5 294.5 c 128,-1,77
 338 330 338 330 341 348 c 0,78,79
 349 405 349 405 352 476 c 0,80,81
 353 499 353 499 354.5 503 c 128,-1,82
 356 507 356 507 361 509 c 0,83,84
 368 512 368 512 378 508.5 c 128,-1,85
 388 505 388 505 392 498 c 0,86,87
 401 486 401 486 390 420 c 0,88,89
 387 401 387 401 384 380 c 128,-1,90
 381 359 381 359 376.5 331 c 128,-1,91
 372 303 372 303 370 272 c 0,92,93
 364 190 364 190 350 128 c 0,94,95
 346 111 346 111 345 84.5 c 128,-1,96
 344 58 344 58 347 48 c 0,97,98
 349 40 349 40 356 37 c 0,99,100
 364 33 364 33 394 35 c 0,101,102
 410 36 410 36 420 32 c 0,103,104
 427 28 427 28 443 11 c 2,105,-1
 458 -5 l 1,106,-1
 465 2 l 2,107,108
 472 9 472 9 484 22 c 0,109,110
 505 45 505 45 512 45 c 0,111,112
 514 45 514 45 518 41 c 0,113,114
 523 36 523 36 519 31 c 128,-1,115
 515 26 515 26 499 7 c 0,116,117
 476 -21 476 -21 475 -24 c 0,118,119
 475 -25 475 -25 474.5 -26 c 128,-1,120
 474 -27 474 -27 475 -29 c 128,-1,121
 476 -31 476 -31 477 -32.5 c 128,-1,122
 478 -34 478 -34 480.5 -37.5 c 128,-1,123
 483 -41 483 -41 485 -44 c 0,124,125
 504 -72 504 -72 509 -85 c 128,-1,126
 514 -98 514 -98 519 -135 c 0,127,128
 522 -155 522 -155 512.5 -170.5 c 128,-1,129
 503 -186 503 -186 485 -190 c 0,130,131
 474 -193 474 -193 445.5 -194.5 c 128,-1,0
 417 -196 417 -196 409.5 -194.5 c 128,-1,1
460 -175 m 0,132,133
 482 -172 482 -172 490 -166 c 0,134,135
 495 -162 495 -162 495.5 -158.5 c 128,-1,136
 496 -155 496 -155 495 -145 c 0,137,138
 489 -97 489 -97 468 -69 c 2,139,-1
 455 -49 l 1,140,-1
 442 -64 l 2,141,142
 429 -80 429 -80 418 -102.5 c 128,-1,143
 407 -125 407 -125 405 -138 c 0,144,145
 400 -165 400 -165 405 -171 c 0,146,147
 414 -182 414 -182 460 -175 c 0,132,133
EndSplineSet
EndChar

StartChar: uni0447
Encoding: 233 1095 234
Width: 468
GlyphClass: 2
Flags: W
LayerCount: 2
Fore
SplineSet
279 71 m 0,0,1
 273 0 273 0 332.599609375 0 c 0,2,3
 360 0 360 0 405 28 c 0,4,5
 416 35 416 35 419.134765625 40 c 0,6,7
 422 45 422 45 422 50 c 0,8,9
 422 54 422 54 420 56 c 0,10,11
 415 61 415 61 411 61 c 0,12,13
 405 61 405 61 402 59.5 c 0,14,15
 400 58 400 58 386 41 c 0,16,17
 357 5 357 5 329 5 c 0,18,19
 280 5 280 5 286 79 c 24,20,-1
 303.819335938 212 l 0,21,22
 324 398 324 398 343 490.879882812 c 1,23,24
 340 491 340 491 337 490.879882812 c 0,25,26
 334 491 334 491 330 490.879882812 c 1,27,28
 306.211914062 272.939453125 306.211914062 272.939453125 298 212 c 2,29,30
 279 71 l 0,0,1
309 297.907226562 m 17,31,32
 285 239 285 239 170 238.905273438 c 0,33,34
 107 239 107 239 69.5 283.5 c 0,35,36
 46.2428853768 311.084019669 46.2428853768 311.084019669 46.109375 377 c 4,37,38
 46 431 46 431 56 481 c 0,39,40
 57 487 57 487 58 490.879882812 c 1,41,42
 58 491 58 491 55 491 c 0,43,44
 54 491 54 491 52.25 490.75 c 1,45,46
 51 486 51 486 50 481 c 0,47,48
 40 431 40 431 40.384765625 376 c 0,49,50
 40 306 40 306 65 278 c 0,51,52
 105 233 105 233 169 233.23828125 c 0,53,54
 286 234 286 234 310 290.346679688 c 9,55,-1
 309 297.907226562 l 17,31,32
EndSplineSet
EndChar

StartChar: uni0448
Encoding: 234 1096 235
Width: 739
GlyphClass: 2
Flags: W
LayerCount: 2
Fore
SplineSet
568 -2 m 0,0,1
 561 0 561 0 552.5 9 c 128,-1,2
 544 18 544 18 544 22 c 0,3,4
 544 25 544 25 539 41 c 2,5,-1
 534 57 l 1,6,-1
 528 48 l 2,7,8
 522 39 522 39 510 32.5 c 128,-1,9
 498 26 498 26 486 18 c 0,10,11
 452 -4 452 -4 410 -1 c 0,12,13
 363 3 363 3 352 8 c 128,-1,14
 341 13 341 13 329 23.5 c 128,-1,15
 317 34 317 34 312 44 c 0,16,17
 303 61 303 61 299.5 62 c 128,-1,18
 296 63 296 63 284 51 c 0,19,20
 269 37 269 37 259 32 c 128,-1,21
 249 27 249 27 236 19 c 0,22,23
 224 11 224 11 202.5 4.5 c 128,-1,24
 181 -2 181 -2 165 -2 c 128,-1,25
 149 -2 149 -2 121 7 c 0,26,27
 101 14 101 14 94.5 18 c 128,-1,28
 88 22 88 22 74 38 c 0,29,30
 57 56 57 56 53 63.5 c 128,-1,31
 49 71 49 71 42 93 c 0,32,33
 37 109 37 109 35.5 119.5 c 128,-1,34
 34 130 34 130 36 167 c 0,35,36
 38 249 38 249 48 284 c 0,37,38
 51 294 51 294 54 321.5 c 128,-1,39
 57 349 57 349 69.5 413 c 128,-1,40
 82 477 82 477 82 489 c 0,41,42
 82 504 82 504 95 509.5 c 128,-1,43
 108 515 108 515 120 506 c 0,44,45
 125 502 125 502 125 499 c 128,-1,46
 125 496 125 496 123 487 c 0,47,48
 120 474 120 474 118 458 c 0,49,50
 115 431 115 431 104 387 c 0,51,52
 99 365 99 365 91 324 c 128,-1,53
 83 283 83 283 79 264 c 0,54,55
 70 224 70 224 72 161 c 128,-1,56
 74 98 74 98 85 70 c 0,57,58
 94 49 94 49 141 35 c 0,59,60
 168 27 168 27 172 26 c 0,61,62
 177 24 177 24 199.5 37.5 c 128,-1,63
 222 51 222 51 233 62 c 0,64,65
 274 103 274 103 283 123 c 0,66,67
 289 137 289 137 292.5 165 c 128,-1,68
 296 193 296 193 305 297 c 0,69,70
 308 326 308 326 318.5 393 c 128,-1,71
 329 460 329 460 330.5 482 c 128,-1,72
 332 504 332 504 337 507 c 0,73,74
 342 511 342 511 353 510.5 c 128,-1,75
 364 510 364 510 370 506 c 0,76,77
 375 502 375 502 375.5 498 c 128,-1,78
 376 494 376 494 373 476 c 0,79,80
 369 451 369 451 365 427.5 c 128,-1,81
 361 404 361 404 358 381.5 c 128,-1,82
 355 359 355 359 351 331 c 128,-1,83
 347 303 347 303 345 274 c 0,84,85
 339 171 339 171 330 131 c 0,86,87
 323 99 323 99 336 70 c 0,88,89
 345 49 345 49 383 38 c 0,90,91
 401 33 401 33 414 29 c 0,92,93
 423 26 423 26 427.5 27 c 128,-1,94
 432 28 432 28 448 36 c 0,95,96
 469 47 469 47 491 70 c 128,-1,97
 513 93 513 93 527 117 c 0,98,99
 540 141 540 141 544 165 c 0,100,101
 550 209 550 209 556 243 c 0,102,103
 559 259 559 259 563.5 294.5 c 128,-1,104
 568 330 568 330 571 348 c 0,105,106
 577 391 577 391 582 476 c 0,107,108
 583 499 583 499 584.5 503 c 128,-1,109
 586 507 586 507 591 509 c 0,110,111
 598 512 598 512 608 508.5 c 128,-1,112
 618 505 618 505 622 498 c 0,113,114
 627 490 627 490 615 420 c 0,115,116
 612 401 612 401 609 380 c 128,-1,117
 606 359 606 359 601.5 331 c 128,-1,118
 597 303 597 303 595 272 c 0,119,120
 589 172 589 172 580 128 c 0,121,122
 575 106 575 106 575 83 c 2,123,-1
 575 59 l 1,124,-1
 588 48 l 2,125,126
 601 37 601 37 611 37 c 0,127,128
 631 37 631 37 664 59 c 0,129,130
 685 74 685 74 692 63 c 0,131,132
 700 51 700 51 674 30 c 0,133,134
 656 16 656 16 654 16 c 0,135,136
 653 16 653 16 647 11 c 0,137,138
 643 7 643 7 620 1 c 128,-1,139
 597 -5 597 -5 586 -4 c 0,140,141
 577 -5 577 -5 568 -2 c 0,0,1
EndSplineSet
EndChar

StartChar: uni0449
Encoding: 235 1097 236
Width: 792
GlyphClass: 2
Flags: W
LayerCount: 2
Fore
SplineSet
637 -194.5 m 128,-1,1
 630 -193 630 -193 622 -184.5 c 128,-1,2
 614 -176 614 -176 612 -167 c 0,3,4
 606 -145 606 -145 614 -110 c 0,5,6
 626 -70 626 -70 648 -43 c 0,7,8
 662 -28 662 -28 662 -25 c 0,9,10
 662 -21 662 -21 649 -8 c 128,-1,11
 636 5 636 5 632 5 c 0,12,13
 628 4 628 4 616 0 c 0,14,15
 598 -6 598 -6 582 -3 c 128,-1,16
 566 0 566 0 556 11 c 0,17,18
 548 20 548 20 546 23 c 128,-1,19
 544 26 544 26 538 42 c 2,20,-1
 534 57 l 1,21,-1
 528 48 l 2,22,23
 522 39 522 39 510 32.5 c 128,-1,24
 498 26 498 26 486 18 c 0,25,26
 452 -4 452 -4 410 -1 c 0,27,28
 362 3 362 3 351 8 c 128,-1,29
 340 13 340 13 328 23.5 c 128,-1,30
 316 34 316 34 312 44 c 0,31,32
 302 61 302 61 299 62 c 128,-1,33
 296 63 296 63 284 51 c 0,34,35
 268 37 268 37 258 32 c 128,-1,36
 248 27 248 27 236 19 c 256,37,38
 224 11 224 11 202 4.5 c 128,-1,39
 180 -2 180 -2 166 -2 c 0,40,41
 150 -2 150 -2 120 7 c 0,42,43
 100 14 100 14 94 18 c 128,-1,44
 88 22 88 22 74 38 c 0,45,46
 56 56 56 56 52 63.5 c 128,-1,47
 48 71 48 71 42 93 c 0,48,49
 36 109 36 109 35 119.5 c 128,-1,50
 34 130 34 130 36 167 c 0,51,52
 38 249 38 249 48 284 c 0,53,54
 52 294 52 294 54 321.5 c 128,-1,55
 56 349 56 349 69 413 c 128,-1,56
 82 477 82 477 82 489 c 0,57,58
 82 504 82 504 95 509.5 c 128,-1,59
 108 515 108 515 120 506 c 0,60,61
 124 502 124 502 125 499 c 128,-1,62
 126 496 126 496 122 487 c 0,63,64
 120 474 120 474 118 458 c 0,65,66
 114 431 114 431 104 387 c 0,67,68
 98 365 98 365 90 324 c 128,-1,69
 82 283 82 283 78 264 c 0,70,71
 70 224 70 224 72 161 c 128,-1,72
 74 98 74 98 84 70 c 0,73,74
 94 49 94 49 140 35 c 0,75,76
 168 27 168 27 172 26 c 0,77,78
 176 24 176 24 199 37.5 c 128,-1,79
 222 51 222 51 234 62 c 0,80,81
 274 103 274 103 282 123 c 0,82,83
 288 137 288 137 292 165 c 128,-1,84
 296 193 296 193 304 297 c 0,85,86
 308 326 308 326 318 393 c 128,-1,87
 328 460 328 460 330 482 c 128,-1,88
 332 504 332 504 336 507 c 0,89,90
 342 511 342 511 353 510.5 c 128,-1,91
 364 510 364 510 370 506 c 0,92,93
 374 502 374 502 375 498 c 128,-1,94
 376 494 376 494 372 476 c 0,95,96
 368 451 368 451 364 427.5 c 128,-1,97
 360 404 360 404 357 381.5 c 128,-1,98
 354 359 354 359 350 331 c 128,-1,99
 346 303 346 303 344 274 c 0,100,101
 338 171 338 171 330 131 c 0,102,103
 322 99 322 99 336 70 c 0,104,105
 344 49 344 49 382 38 c 0,106,107
 400 33 400 33 414 29 c 0,108,109
 422 26 422 26 427 27 c 128,-1,110
 432 28 432 28 448 36 c 0,111,112
 468 47 468 47 491 70 c 128,-1,113
 514 93 514 93 527 117 c 128,-1,114
 540 141 540 141 544 165 c 0,115,116
 550 209 550 209 556 243 c 0,117,118
 558 259 558 259 563 294.5 c 128,-1,119
 568 330 568 330 570 348 c 0,120,121
 576 391 576 391 582 476 c 0,122,123
 582 499 582 499 584 503 c 128,-1,124
 586 507 586 507 592 509 c 0,125,126
 598 512 598 512 608 508.5 c 128,-1,127
 618 505 618 505 622 498 c 0,128,129
 626 490 626 490 614 420 c 0,130,131
 612 401 612 401 609 380 c 128,-1,132
 606 359 606 359 601 330.5 c 128,-1,133
 596 302 596 302 594 270 c 0,134,135
 590 199 590 199 582 141 c 0,136,137
 582 128 582 128 584 129 c 128,-1,138
 586 130 586 130 586 126 c 0,139,140
 586 124 586 124 584 120 c 0,141,142
 582 111 582 111 581 84 c 128,-1,143
 580 57 580 57 582 48 c 0,144,145
 588 28 588 28 624 35 c 0,146,147
 644 39 644 39 670 12 c 2,148,-1
 684 -5 l 1,149,-1
 692 2 l 2,150,151
 698 9 698 9 710 22 c 0,152,153
 732 45 732 45 738 45 c 0,154,155
 740 45 740 45 746 41 c 0,156,157
 750 37 750 37 746 31 c 128,-1,158
 742 25 742 25 726 7 c 0,159,160
 708 -10 708 -10 708 -15.5 c 128,-1,161
 708 -21 708 -21 705 -24.5 c 128,-1,162
 702 -28 702 -28 712 -44 c 0,163,164
 732 -72 732 -72 736 -85 c 128,-1,165
 740 -98 740 -98 746 -135 c 0,166,167
 748 -155 748 -155 739 -170.5 c 128,-1,168
 730 -186 730 -186 712 -190 c 0,169,170
 700 -193 700 -193 672 -194.5 c 128,-1,0
 644 -196 644 -196 637 -194.5 c 128,-1,1
686 -175 m 0,171,172
 708 -172 708 -172 716 -166 c 0,173,174
 722 -162 722 -162 723 -158.5 c 128,-1,175
 724 -155 724 -155 722 -145 c 0,176,177
 716 -102 716 -102 694 -69 c 2,178,-1
 682 -49 l 1,179,-1
 668 -64 l 2,180,181
 656 -79 656 -79 656 -83.5 c 128,-1,182
 656 -88 656 -88 650 -96 c 128,-1,183
 644 -104 644 -104 639 -118 c 128,-1,184
 634 -132 634 -132 631 -138 c 128,-1,185
 628 -144 628 -144 628 -155.5 c 128,-1,186
 628 -167 628 -167 632 -171 c 0,187,188
 640 -182 640 -182 686 -175 c 0,171,172
EndSplineSet
EndChar

StartChar: uni044A
Encoding: 236 1098 237
Width: 421
GlyphClass: 2
Flags: W
LayerCount: 2
Fore
SplineSet
291 274.619140625 m 4,0,1
 257.173828125 290.04296875 257.173828125 290.04296875 228 289.903320312 c 4,2,3
 192.10546875 289.732421875 192.10546875 289.732421875 163.254882812 266 c 4,4,5
 138 245 138 245 129.737304688 202 c 4,6,7
 124 168 124 168 123.794921875 153 c 4,8,9
 124 80 124 80 150.842773438 44 c 4,10,11
 177 8 177 8 225 7.630859375 c 4,12,13
 317 7 317 7 347 95 c 4,14,15
 375.463867188 180.392578125 375.463867188 180.392578125 336.491210938 237.032226562 c 4,16,17
 320 261 320 261 291 274.619140625 c 4,0,1
176 490.879882812 m 4,18,19
 177.500976562 491.1796875 177.500976562 491.1796875 185 490.879882812 c 5,20,21
 161 368 161 368 151.258789062 327 c 4,22,23
 143 293 143 293 134 237 c 5,24,25
 145 260 145 260 158 270.734375 c 4,26,27
 190 296 190 296 228 295.9453125 c 4,28,29
 255 296 255 296 294 280 c 4,30,31
 322 268 322 268 342.859375 240 c 4,32,33
 385 182 385 182 352.940429688 92 c 132,-1,34
 321 2 321 2 226 0.7822265625 c 4,35,36
 171 0 171 0 143.092773438 41.5009765625 c 4,37,38
 111 90 111 90 115.643554688 153 c 4,39,40
 118 185 118 185 119.30859375 196.483398438 c 4,41,42
 120 206 120 206 143.81640625 328 c 6,43,-1
 173 478 l 4,44,45
 168 475 168 475 164 472.950195312 c 4,46,47
 150 465 150 465 125 464 c 4,48,49
 95 463 95 463 64 476 c 4,50,51
 44 484 44 484 36 484 c 4,52,53
 24 483 24 483 4 466.91796875 c 4,54,55
 -4 460 -4 460 -8 453.5 c 5,56,57
 -11 456 -11 456 -13.2919921875 459 c 5,58,59
 -10 466 -10 466 -0.5 474.5 c 4,60,61
 18 491 18 491 34 491.956054688 c 4,62,63
 47 492 47 492 67 483.5 c 4,64,65
 87.25390625 474.182617188 87.25390625 474.182617188 120 472 c 4,66,67
 146.62890625 470.163085938 146.62890625 470.163085938 162.5 481.5 c 4,68,69
 173 489 173 489 176 490.879882812 c 4,18,19
EndSplineSet
EndChar

StartChar: uni044B
Encoding: 237 1099 238
Width: 536
GlyphClass: 2
Flags: W
LayerCount: 2
Fore
SplineSet
379 64 m 8,1,2
 375 0 375 0 432.599609375 0 c 0,3,4
 460 0 460 0 505 28 c 0,5,6
 516 35 516 35 519.134765625 40 c 0,7,8
 522 45 522 45 522 50 c 0,9,10
 522 54 522 54 520 56 c 0,11,12
 515 61 515 61 511 61 c 0,13,14
 505 61 505 61 502 59.5 c 0,15,16
 500 58 500 58 486 41 c 0,17,18
 457 5 457 5 429 5 c 0,19,20
 378 5 378 5 386 79 c 0,21,22
 395.930737409 188.238111503 395.930737409 188.238111503 396.024414062 189 c 0,23,24
 413 329 413 329 414 336 c 0,25,26
 423 411 423 411 443 490.879882812 c 1,27,28
 434 491 434 491 425 491 c 1,29,30
 420 464 420 464 407 344 c 1,31,32
 399 310 399 310 371 292.16872266 c 0,33,34
 339 272 339 272 317 267.052128987 c 0,35,36
 296.992896157 262.981178215 296.992896157 262.981178215 285 263.60546875 c 0,37,38
 243.470683662 266.738192352 243.470683662 266.738192352 214 280 c 0,39,40
 178.984769257 296.160875727 178.984769257 296.160875727 148 295.944852871 c 0,41,42
 109.96303355 295.679662768 109.96303355 295.679662768 78 270.734375 c 0,43,44
 65 260 65 260 54 237 c 1,45,46
 63 293 63 293 71.2584927238 327 c 0,47,48
 81 368 81 368 105 490.879882812 c 1,49,50
 102 491 102 491 96 490.879882812 c 1,51,-1
 63.8162953563 328 l 2,52,53
 45 234 45 234 41 205 c 0,54,55
 38 185 38 185 35.6433629557 153 c 0,56,57
 31 90 31 90 63.0932029604 41.501350736 c 0,58,59
 91 0 91 0 146 0.782590418917 c 0,60,61
 241 2 241 2 272.940429688 92 c 0,62,63
 301 172 301 172 262.859757512 240 c 0,64,65
 256 252 256 252 246 259 c 1,66,67
 255 256 255 256 284 256.323242188 c 0,68,69
 303 257 303 257 320 260.235635857 c 0,70,71
 348 266 348 266 376 284.844726562 c 0,72,73
 397 300 397 300 404 315 c 1,74,75
 396 253 396 253 389.274909426 190 c 0,76,77
 383 127 383 127 379 64 c 8,1,2
211 274.619062009 m 0,78,79
 240 261 240 261 256.491556226 237.032279397 c 0,80,81
 295.464077731 180.392233192 295.464077731 180.392233192 267 95 c 0,82,83
 237 7 237 7 145 7.630859375 c 0,84,85
 97 8 97 8 70.8427734375 44 c 0,86,87
 44 80 44 80 43.794921875 153 c 0,88,89
 44 168 44 168 49.737710918 202 c 0,90,91
 58 245 58 245 83.2548828125 266 c 0,92,93
 112.105620826 289.732041698 112.105620826 289.732041698 148 289.903656976 c 0,94,95
 177.173553831 290.043139192 177.173553831 290.043139192 211 274.619062009 c 0,78,79
EndSplineSet
EndChar

StartChar: uni044C
Encoding: 238 1100 239
Width: 343
GlyphClass: 2
Flags: W
LayerCount: 2
Fore
SplineSet
214 280 m 0,0,1
 175.028933466 296.133296018 175.028933466 296.133296018 148 295.944852871 c 0,2,3
 109.96303355 295.679662768 109.96303355 295.679662768 78 270.734375 c 0,4,5
 65 260 65 260 54 237 c 1,6,7
 63 293 63 293 71.2584927238 327 c 0,8,9
 81 368 81 368 105 490.879882812 c 1,10,11
 102 491 102 491 96 490.879882812 c 1,12,-1
 63.8162953563 328 l 2,13,14
 45 234 45 234 41 205 c 0,15,16
 38 185 38 185 35.6433629557 153 c 0,17,18
 31 90 31 90 63.0932029604 41.501350736 c 0,19,20
 91 0 91 0 146 0.782590418917 c 0,21,22
 241 2 241 2 272.940429688 92 c 0,23,24
 304.645667942 182.394080598 304.645667942 182.394080598 262.859757512 240 c 0,25,26
 244 266 244 266 214 280 c 0,0,1
211 274.619062009 m 0,27,28
 240 261 240 261 256.491556226 237.032279397 c 0,29,30
 295.464077731 180.392233192 295.464077731 180.392233192 267 95 c 0,31,32
 237 7 237 7 145 7.630859375 c 0,33,34
 97 8 97 8 70.8427734375 44 c 0,35,36
 44 80 44 80 43.794921875 153 c 0,37,38
 44 168 44 168 49.737710918 202 c 0,39,40
 58 245 58 245 83.2548828125 266 c 0,41,42
 112.105620826 289.732041698 112.105620826 289.732041698 148 289.903656976 c 0,43,44
 177.173553831 290.043139192 177.173553831 290.043139192 211 274.619062009 c 0,27,28
EndSplineSet
EndChar

StartChar: uni044D
Encoding: 239 1101 240
Width: 429
GlyphClass: 2
Flags: W
LayerCount: 2
Fore
SplineSet
166 -2 m 0,0,1
 141 -1 141 -1 105 22.5 c 128,-1,2
 69 46 69 46 35 81 c 1,3,4
 37 88 37 88 43 88 c 128,-1,5
 49 88 49 88 59.5 82.5 c 128,-1,6
 70 77 70 77 74 73.5 c 128,-1,7
 78 70 78 70 85 66.5 c 128,-1,8
 92 63 92 63 98.5 58 c 128,-1,9
 105 53 105 53 114.5 45.5 c 128,-1,10
 124 38 124 38 128.5 35 c 128,-1,11
 133 32 133 32 140 28 c 0,12,13
 154 21 154 21 191 20 c 0,14,15
 222 20 222 20 244 32 c 128,-1,16
 266 44 266 44 287 69.5 c 128,-1,17
 308 95 308 95 318 122 c 0,18,19
 342 193 342 193 346 240 c 0,20,21
 346 247 346 247 343 258 c 1,22,23
 299 226 299 226 241 229 c 0,24,25
 226 230 226 230 198.5 249 c 128,-1,26
 171 268 171 268 151 268 c 1,27,28
 121 250 121 250 116.5 254.5 c 128,-1,29
 112 259 112 259 124 272 c 0,30,31
 151 301 151 301 200 277 c 0,32,33
 202 276 202 276 211.5 269.5 c 128,-1,34
 221 263 221 263 224 262 c 0,35,36
 243 252 243 252 255 252.5 c 128,-1,37
 267 253 267 253 275 254 c 0,38,39
 306 257 306 257 344 286 c 1,40,41
 355 306 355 306 342 344 c 0,42,43
 340 352 340 352 339.5 354.5 c 128,-1,44
 339 357 339 357 337.5 362 c 128,-1,45
 336 367 336 367 335 369 c 128,-1,46
 334 371 334 371 332.5 374.5 c 128,-1,47
 331 378 331 378 329.5 380.5 c 128,-1,48
 328 383 328 383 326.5 386.5 c 128,-1,49
 325 390 325 390 322 393 c 0,50,51
 301 426 301 426 278 446 c 0,52,53
 251 469 251 469 204 472 c 0,54,55
 180 473 180 473 163 467 c 128,-1,56
 146 461 146 461 141.5 460 c 128,-1,57
 137 459 137 459 126 454 c 128,-1,58
 115 449 115 449 112 448 c 0,59,60
 101 443 101 443 81 433 c 1,61,62
 55 433 55 433 64 452 c 0,63,64
 73 472 73 472 101 478 c 0,65,66
 106 479 106 479 123 485 c 128,-1,67
 140 491 140 491 146.5 493 c 128,-1,68
 153 495 153 495 168 498.5 c 128,-1,69
 183 502 183 502 192 503 c 128,-1,70
 201 504 201 504 214 504 c 0,71,72
 239 506 239 506 259 498 c 0,73,74
 314 476 314 476 335 450 c 128,-1,75
 356 424 356 424 375 364 c 128,-1,76
 394 304 394 304 376 181 c 0,77,78
 359 61 359 61 273 12 c 0,79,80
 243 -5 243 -5 166 -2 c 0,0,1
EndSplineSet
EndChar

StartChar: uni044E
Encoding: 240 1102 241
Width: 631
GlyphClass: 2
Flags: W
LayerCount: 2
Fore
SplineSet
441 514 m 0,0,1
 479 514 479 514 511 493 c 0,2,3
 529 481 529 481 539.5 477 c 128,-1,4
 550 473 550 473 560 462 c 2,5,-1
 570 452 l 1,6,7
 603 333 603 333 570 187 c 0,8,9
 542 62 542 62 499 26 c 0,10,11
 477 6 477 6 456 1 c 0,12,13
 420 -8 420 -8 382 0 c 0,14,15
 347 7 347 7 319 34 c 0,16,17
 286 66 286 66 276 101 c 0,18,19
 272 114 272 114 271 165 c 0,20,21
 269 223 269 223 277 262 c 1,22,23
 267 259 267 259 261 260 c 0,24,25
 235 263 235 263 212 261.5 c 128,-1,26
 189 260 189 260 180 256 c 0,27,28
 131 235 131 235 113 201 c 0,29,30
 109 193 109 193 100 158 c 128,-1,31
 91 123 91 123 89 74 c 2,32,-1
 84 18 l 1,33,-1
 75 10 l 2,34,35
 69 4 69 4 56 3 c 128,-1,36
 43 2 43 2 38 5 c 128,-1,37
 33 8 33 8 36.5 43 c 128,-1,38
 40 78 40 78 50 115 c 0,39,40
 58 147 58 147 60 173.5 c 128,-1,41
 62 200 62 200 66 227 c 128,-1,42
 70 254 70 254 71.5 273 c 128,-1,43
 73 292 73 292 78 318 c 0,44,45
 97 442 97 442 101 473 c 0,46,47
 104 493 104 493 105.5 498 c 128,-1,48
 107 503 107 503 114 507 c 0,49,50
 120 511 120 511 125.5 513 c 128,-1,51
 131 515 131 515 134.5 514 c 128,-1,52
 138 513 138 513 138 510 c 0,53,54
 138 505 138 505 134 466 c 0,55,56
 130 428 130 428 126 398 c 0,57,58
 123 369 123 369 115 321 c 0,59,60
 102 247 102 247 109 246 c 0,61,62
 112 246 112 246 120 255 c 128,-1,63
 128 264 128 264 158 278 c 0,64,65
 182 289 182 289 199.5 291 c 128,-1,66
 217 293 217 293 238 290 c 0,67,68
 272 287 272 287 284 293 c 1,69,-1
 284 294 l 1,70,71
 290 313 290 313 299 347 c 0,72,73
 316 412 316 412 337.5 446.5 c 128,-1,74
 359 481 359 481 395 500 c 0,75,76
 413 510 413 510 420 512 c 128,-1,77
 427 514 427 514 441 514 c 0,0,1
441 474 m 0,78,79
 439 474 439 474 437 474 c 0,80,81
 400 468 400 468 391 455 c 0,82,83
 386 448 386 448 370.5 411 c 128,-1,84
 355 374 355 374 351 370 c 0,85,86
 346 364 346 364 337 330 c 0,87,88
 336 323 336 323 333 313 c 0,89,90
 300 184 300 184 317 113 c 0,91,92
 323 88 323 88 326 80 c 0,93,94
 331 69 331 69 371 40 c 0,95,96
 384 31 384 31 435 32 c 0,97,98
 453 32 453 32 458.5 33.5 c 128,-1,99
 464 35 464 35 472 42 c 0,100,101
 489 57 489 57 497 79 c 0,102,103
 514 125 514 125 526 187 c 0,104,105
 536 239 536 239 540 259.5 c 128,-1,106
 544 280 544 280 547 315.5 c 128,-1,107
 550 351 550 351 553 364 c 0,108,109
 561 407 561 407 521.5 440.5 c 128,-1,110
 482 474 482 474 441 474 c 0,78,79
EndSplineSet
EndChar

StartChar: uni044F
Encoding: 241 1103 242
Width: 471
GlyphClass: 2
Flags: W
LayerCount: 2
Fore
SplineSet
307 490.879882812 m 0,0,-1
 296.130859375 362 l 0,1,-1
 289.28515625 228 l 24,2,3
 286 0 286 0 364.599609375 0 c 0,4,5
 392 0 392 0 437 28 c 0,6,7
 448 35 448 35 451.134765625 40 c 0,8,9
 454 45 454 45 454 50 c 0,10,11
 454 54 454 54 452 56 c 0,12,13
 447 61 447 61 443 61 c 0,14,15
 437 61 437 61 434 59.5 c 0,16,17
 432 58 432 58 418 41 c 0,18,19
 390 6 390 6 365 6 c 0,20,21
 295 7 295 7 297.017578125 227 c 8,22,-1
 303.4609375 362 l 0,23,24
 311 457 311 457 314 490.879882812 c 1,25,-1
 307 490.879882812 l 0,0,-1
15 55 m 17,26,27
 17 39 17 39 34 21 c 0,28,29
 55 -1 55 -1 89 -1 c 0,30,31
 228 0 228 0 282.111328125 235 c 0,32,33
 294 288 294 288 303.431640625 376 c 0,34,35
 309 434 309 434 315.063476562 491 c 9,36,-1
 308.294921875 491 l 17,37,38
 306.477596336 489.010686611 306.477596336 489.010686611 295.238798168 378.505343305 c 0,39,40
 285.061994561 278.442048325 285.061994561 278.442048325 274 234 c 0,41,42
 221 5 221 5 89 5 c 0,43,44
 58 5 58 5 39 25 c 0,45,46
 23 42 23 42 21 57 c 9,47,-1
 15 55 l 17,26,27
292 314 m 17,48,49
 272 223 272 223 191 222 c 0,50,51
 85 220 85 220 80 355 c 0,52,53
 78 406 78 406 121.478515625 455 c 0,54,55
 149 486 149 486 233 485 c 0,56,57
 299 484 299 484 304 444 c 1,58,-1
 310 446 l 17,59,60
 304 489 304 489 234 490.879882812 c 0,61,62
 149 493 149 493 118 459 c 0,63,64
 73 409 73 409 75 354 c 0,65,66
 80 217 80 217 191 215.887695312 c 0,67,68
 277 215 277 215 297 311 c 9,69,-1
 292 314 l 17,48,49
EndSplineSet
EndChar

StartChar: u10000
Encoding: 260 65536 258
Width: 351
GlyphClass: 2
Flags: W
LayerCount: 2
Fore
SplineSet
35 0 m 1,0,-1
 35 682 l 1,1,-1
 306 682 l 1,2,-1
 306 0 l 1,3,-1
 35 0 l 1,0,-1
69 34 m 1,4,-1
 272 34 l 1,5,-1
 272 648 l 1,6,-1
 69 648 l 1,7,-1
 69 34 l 1,4,-1
EndSplineSet
EndChar

StartChar: E_cap
Encoding: 262 -1 260
Width: 610
GlyphClass: 2
Flags: W
LayerCount: 2
Back
SplineSet
557.502929688 123 m 132,-1,0
 557.502929688 135 557.502929688 135 569.502929688 135 c 132,-1,1
 581.502929688 135 581.502929688 135 581.502929688 123 c 132,-1,2
 581.502929688 111 581.502929688 111 569.502929688 111 c 132,-1,3
 557.502929688 111 557.502929688 111 557.502929688 123 c 132,-1,0
EndSplineSet
Fore
SplineSet
131.608398438 42 m 0,0,1
 45.4912109375 97 45.4912109375 97 45.0947265625 223 c 8,2,3
 44.4970703125 307 44.4970703125 307 113.7421875 388 c 0,4,5
 189.40625 477 189.40625 477 283.510742188 479 c 0,6,7
 329.563476562 480 329.563476562 480 366.510742188 479 c 1,8,9
 329.510742188 479 329.510742188 479 284.192382812 492 c 0,10,11
 233.978515625 507 233.978515625 507 210.723632812 531 c 0,12,13
 165.646484375 577 165.646484375 577 170.734375 655 c 0,14,15
 174.564453125 709 174.564453125 709 212.028320312 756 c 0,16,17
 265.5390625 823 265.5390625 823 346.590820312 823.991210938 c 0,18,19
 420.643554688 825 420.643554688 825 452.495117188 784 c 0,20,21
 461.866210938 772 461.866210938 772 459.26171875 770 c 128,-1,22
 456.657226562 768 456.657226562 768 447.337890625 781 c 0,23,24
 417.381835938 820 417.381835938 820 347.35546875 819.498046875 c 0,25,26
 272.329101562 819 272.329101562 819 215.765625 751 c 0,27,28
 181.6171875 710 181.6171875 710 176.954101562 654 c 0,29,30
 170.856445312 581 170.856445312 581 214.4453125 535 c 0,31,32
 239.135742188 510 239.135742188 510 285.40234375 496 c 0,33,34
 329.720703125 483 329.720703125 483 376.62890625 481.258789062 c 1,35,36
 376.563476562 480 376.563476562 480 376.510742188 479 c 129,-1,37
 376.458984375 478 376.458984375 478 376.38671875 476.624023438 c 1,38,39
 329.353515625 476 329.353515625 476 283.249023438 474 c 0,40,41
 188.987304688 469 188.987304688 469 118.05859375 384.5 c 0,42,43
 50.287109375 303 50.287109375 303 51.0947265625 223 c 0,44,45
 52.4384765625 96 52.4384765625 96 134.87109375 47 c 0,46,47
 205.6171875 4 205.6171875 4 294.669921875 5 c 0,48,49
 374.190429688 6.005859375 374.190429688 6.005859375 417.879882812 27.1494140625 c 0,50,51
 443.497070312 39.541015625 443.497070312 39.541015625 480.069335938 69.861328125 c 0,52,53
 515.23828125 99.017578125 515.23828125 99.017578125 534.255859375 130 c 0,54,55
 538.482421875 135 538.482421875 135 544 134.75 c 0,56,57
 548.482421875 135 548.482421875 135 551.325195312 133 c 0,58,59
 556.16796875 129 556.16796875 129 555.889648438 124.181640625 c 0,60,61
 555.64453125 119 555.64453125 119 553.452148438 116 c 24,62,63
 528.459960938 88.1025390625 528.459960938 88.1025390625 491.58203125 60.580078125 c 0,64,65
 454.323242188 32.7724609375 454.323242188 32.7724609375 420.415039062 19.2158203125 c 0,66,67
 372.407226562 0 372.407226562 0 294.407226562 0 c 0,68,69
 198.407226562 0 198.407226562 0 131.608398438 42 c 0,0,1
EndSplineSet
EndChar

StartChar: o_small
Encoding: 263 -1 261
Width: 439
GlyphClass: 2
Flags: W
LayerCount: 2
Fore
SplineSet
42 120 m 0,0,1
 22 203 22 203 58 305 c 0,2,3
 87 387 87 387 116 431 c 0,4,5
 156 494 156 494 218 491 c 0,6,7
 270 489 270 489 304 462 c 0,8,9
 339.52173913 434.891304348 339.52173913 434.891304348 355 402 c 0,10,11
 379 351 379 351 378.554074179 288 c 0,12,13
 378 237 378 237 362 180 c 0,14,15
 336 90 336 90 306.463867188 48 c 0,16,17
 272 -0 272 -0 186 0.0676690307433 c 0,18,19
 71 0 71 0 42 120 c 0,0,1
301.5 52 m 0,20,21
 333 99 333 99 356 181 c 0,22,23
 372 240 372 240 372.118249451 291 c 0,24,25
 372 351 372 351 350 399 c 0,26,27
 335 432 335 432 301 457.143554688 c 0,28,29
 264.707909504 484.217903123 264.707909504 484.217903123 217 485 c 0,30,31
 156 487 156 487 120.166992188 427 c 0,32,33
 87.5751021304 372.374156101 87.5751021304 372.374156101 63 302 c 0,34,35
 29 204 29 204 48 122 c 0,36,37
 75 6 75 6 188 5.71952085619 c 0,38,39
 270 6 270 6 301.5 52 c 0,20,21
EndSplineSet
EndChar

StartChar: e_small
Encoding: 264 -1 262
Width: 419
GlyphClass: 2
Flags: W
LayerCount: 2
Back
SplineSet
337.4375 73 m 132,-1,0
 337.4375 85 337.4375 85 349.4375 85 c 132,-1,1
 361.4375 85 361.4375 85 361.4375 73 c 132,-1,2
 361.4375 61 361.4375 61 349.4375 61 c 132,-1,3
 337.4375 61 337.4375 61 337.4375 73 c 132,-1,0
EndSplineSet
Fore
SplineSet
58.6044921875 62 m 0,0,1
 30.2109375 108 30.2109375 108 32.9873046875 185.327148438 c 0,2,3
 33.73828125 209 33.73828125 209 42.998046875 251 c 1,4,5
 36.2392578125 252 l 24,6,7
 35.37890625 256 35.37890625 256 37.64453125 258 c 1,8,9
 41.4140625 257 41.4140625 257 44.560546875 257 c 1,10,11
 66.3125 340 66.3125 340 115.736328125 421.93359375 c 0,12,13
 133.188476562 451 133.188476562 451 154.73828125 466.734375 c 0,14,15
 189.5859375 491 189.5859375 491 238.787109375 490.987304688 c 0,16,17
 239.5859375 491 239.5859375 491 240.584960938 490.98046875 c 0,18,19
 362.5859375 491 362.5859375 491 370.913085938 371.5 c 0,20,21
 375.72265625 299.830078125 375.72265625 299.830078125 331.606445312 262.509765625 c 0,22,23
 295.541015625 232 295.541015625 232 216.541015625 232 c 0,24,25
 170.541015625 232 170.541015625 232 123.750976562 238 c 24,26,-1
 49.169921875 250 l 1,27,28
 39.73828125 209 39.73828125 209 39.0625 185.55078125 c 0,29,30
 36.28125 110 36.28125 110 63.744140625 66 c 0,31,32
 84.556640625 32 84.556640625 32 108.91796875 20.85546875 c 0,33,34
 145.579101562 4 145.579101562 4 199.01953125 4.876953125 c 0,35,36
 236.649414062 6 236.649414062 6 264.051757812 17.533203125 c 128,-1,37
 291.452148438 29 291.452148438 29 314.571289062 59 c 24,38,-1
 332.302734375 82 l 8,39,40
 337.442382812 86 337.442382812 86 343.408203125 85 c 0,41,42
 347.373046875 84 347.373046875 84 349.802734375 82 c 128,-1,43
 352.233398438 80 352.233398438 80 353.05859375 75 c 0,44,45
 353.814453125 68 353.814453125 68 348.639648438 63 c 0,46,47
 337.325195312 54 337.325195312 54 325.045898438 46 c 0,48,49
 293.208007812 22 293.208007812 22 267.890625 12.9091796875 c 0,50,51
 233.439453125 0 233.439453125 0 197.893554688 -0.6142578125 c 0,52,53
 146.370117188 -2 146.370117188 -2 107.498046875 16 c 0,54,55
 77.4873046875 30 77.4873046875 30 58.6044921875 62 c 0,0,1
364.584960938 371 m 0,56,57
 356.411132812 486 356.411132812 486 239.411132812 486 c 0,58,59
 189.411132812 486 189.411132812 486 158.590820312 462.5 c 0,60,61
 139.048828125 447 139.048828125 447 120.896484375 419 c 0,62,63
 70.27734375 339 70.27734375 339 50.3662109375 256 c 1,64,-1
 125.959960938 244 l 0,65,66
 170.715820312 237 170.715820312 237 216.750976562 238 c 0,67,68
 291.78515625 239 291.78515625 239 327.772460938 267.24609375 c 0,69,70
 368.880859375 299 368.880859375 299 364.584960938 371 c 0,56,57
EndSplineSet
EndChar

StartChar: u_small
Encoding: 265 -1 263
Width: 509
GlyphClass: 2
Flags: W
LayerCount: 2
Back
SplineSet
426.473632812 49 m 128,-1,0
 426.473632812 61 426.473632812 61 438.473632812 61 c 128,-1,1
 450.473632812 61 450.473632812 61 450.473632812 49 c 128,-1,2
 450.473632812 37 450.473632812 37 438.473632812 37 c 128,-1,3
 426.473632812 37 426.473632812 37 426.473632812 49 c 128,-1,0
EndSplineSet
Fore
SplineSet
90.25 490.75 m 1,1,2
 92 491 92 491 93 491 c 0,3,4
 96 491 96 491 96 490.879882812 c 1,5,6
 95 487 95 487 94 481 c 0,7,8
 53 274 53 274 49 197 c 24,9,10
 43 82 43 82 73 47 c 0,11,12
 108 7 108 7 175 5.9052734375 c 0,13,14
 303 3 303 3 318 80 c 0,15,16
 320 90 320 90 321.760742188 101 c 0,17,18
 336 197 336 197 337.286132812 212 c 0,19,20
 350 317 350 317 370 490.879882812 c 1,21,22
 374 491 374 491 377 490.879882812 c 0,23,24
 380 491 380 491 383 490.879882812 c 1,25,26
 374 418 374 418 345.819335938 212 c 0,27,-1
 326 79 l 24,28,29
 320 5 320 5 369 5 c 0,30,31
 397 5 397 5 426 41 c 0,32,33
 440 58 440 58 442 59.5 c 0,34,35
 445 61 445 61 451 61 c 0,36,37
 455 61 455 61 460 56 c 0,38,39
 462 54 462 54 462 50 c 0,40,41
 462 45 462 45 459.134765625 40 c 0,42,43
 456 35 456 35 445 28 c 0,44,45
 400 0 400 0 372.599609375 0 c 0,46,47
 315 0 315 0 319 64 c 1,48,49
 304 1 304 1 174 0.23828125 c 0,50,51
 106 0 106 0 69 42 c 0,52,53
 37 78 37 78 43 196 c 16,54,55
 47 274 47 274 88 481 c 0,56,57
 89 486 89 486 90.25 490.75 c 1,1,2
EndSplineSet
EndChar

StartChar: g_small
Encoding: 266 -1 264
Width: 468
GlyphClass: 2
Flags: W
LayerCount: 2
Back
SplineSet
45.0400390625 -204 m 128,-1,0
 45.0400390625 -192 45.0400390625 -192 57.0400390625 -192 c 128,-1,1
 69.0400390625 -192 69.0400390625 -192 69.0400390625 -204 c 128,-1,2
 69.0400390625 -216 69.0400390625 -216 57.0400390625 -216 c 128,-1,3
 45.0400390625 -216 45.0400390625 -216 45.0400390625 -204 c 128,-1,0
EndSplineSet
Fore
SplineSet
346.961914062 90 m 4,0,1
 345.88671875 94 l 5,2,3
 334.263671875 70 334.263671875 70 321.134765625 52 c 4,4,5
 292.203125 11 292.203125 11 218.028320312 6 c 4,6,7
 160.888671875 2 160.888671875 2 129.657226562 24 c 4,8,9
 82.7744140625 56 82.7744140625 56 70.0791015625 122 c 4,10,11
 53.9423828125 204 53.9423828125 204 91.365234375 302 c 4,12,13
 115.565429688 365 115.565429688 365 152.897460938 427 c 4,14,15
 189.860351562 488 189.860351562 488 253.825195312 487 c 4,16,17
 300.633789062 486.063476562 300.633789062 486.063476562 334.783203125 457.143554688 c 4,18,19
 366.834960938 430 366.834960938 430 382.682617188 397 c 4,20,21
 383.647460938 396 383.647460938 396 385.8984375 402 c 5,22,23
 369.974609375 434 369.974609375 434 337.952148438 462 c 132,-1,24
 305.930664062 490 305.930664062 490 253 492 c 4,25,26
 192.104492188 495 192.104492188 495 148.870117188 431 c 4,27,28
 118.333007812 387 118.333007812 387 86.4697265625 305 c 4,29,30
 46.908203125 203 46.908203125 203 64.009765625 120 c 4,31,32
 78.5654296875 50 78.5654296875 50 125.482421875 19 c 4,33,34
 159.713867188 -3 159.713867188 -3 218.336914062 0.5 c 4,35,36
 293.993164062 5 293.993164062 5 325.958984375 48 c 4,37,38
 337.018554688 63 337.018554688 63 347.288085938 83 c 5,39,40
 346.891601562 88 346.891601562 88 346.961914062 90 c 4,0,1
369.342773438 330 m 28,41,42
 345.977539062 205 345.977539062 205 345.39453125 127 c 4,43,44
 344.263671875 70 344.263671875 70 360.654296875 -62 c 4,45,46
 387.866210938 -285 387.866210938 -285 279.243164062 -331.5 c 4,47,48
 174.688476562 -376 174.688476562 -376 88.421875 -355 c 4,49,50
 31.5791015625 -340.401367188 31.5791015625 -340.401367188 15.1455078125 -277 c 4,51,52
 10.7392578125 -260 10.7392578125 -260 17.9619140625 -225 c 4,53,54
 22.5556640625 -208 22.5556640625 -208 22.537109375 -205 c 4,55,56
 22.939453125 -197 22.939453125 -197 18.52734375 -194.5 c 4,57,58
 9.21875 -189 9.21875 -189 3.009765625 -195 c 4,59,60
 -6.3046875 -204 -6.3046875 -204 -1.2822265625 -232 c 4,61,-1
 8.041015625 -280 l 4,62,63
 29.2275390625 -345.533203125 29.2275390625 -345.533203125 87.2470703125 -360 c 4,64,65
 175.479492188 -382 175.479492188 -382 282.05078125 -337 c 4,66,67
 392.172851562 -289.068359375 392.172851562 -289.068359375 366.723632812 -60 c 4,68,69
 351.368164062 73 351.368164062 73 352.25390625 127 c 4,70,71
 353.1875 211 353.1875 211 375.342773438 330 c 4,72,-1
 406.9609375 490.879882812 l 5,73,-1
 399.9609375 490.879882812 l 5,74,-1
 369.342773438 330 l 28,41,42
EndSplineSet
EndChar

StartChar: A_cap
Encoding: 267 -1 265
Width: 767
GlyphClass: 2
Flags: W
LayerCount: 2
Fore
SplineSet
636 200 m 1,1,2
 640.420338983 339.240677966 640.420338983 339.240677966 666 606 c 0,3,4
 680 752 680 752 680 775 c 0,5,6
 679 814 679 814 651 813 c 0,7,8
 614 813 614 813 606 760 c 0,9,10
 605 753 605 753 596 704 c 0,11,12
 585.25844059 643.456665143 585.25844059 643.456665143 565.458034598 576 c 0,13,14
 544.704837972 505.297336829 544.704837972 505.297336829 514 427 c 1,15,16
 552 386 552 386 582 334 c 0,17,18
 615 278 615 278 636 200 c 1,1,2
376 174 m 1,19,-1
 449 175 l 24,20,21
 539 176 539 176 631 194 c 1,22,23
 607.750067004 280.658841166 607.750067004 280.658841166 577 331 c 0,24,25
 538 395 538 395 511 422 c 1,26,-1
 506 410 l 0,27,28
 454 288 454 288 382 183 c 24,29,-1
 376 174 l 1,19,-1
368 175 m 1,30,-1
 376 186 l 0,31,32
 440 276 440 276 501 415 c 24,33,-1
 506 426 l 1,34,35
 440 486 440 486 374 485 c 0,36,37
 294 484 294 484 229 417 c 0,38,39
 178 364 178 364 178 304 c 256,40,41
 178 237 178 237 235 208 c 0,42,43
 263 194 263 194 368 175 c 1,30,-1
35 82 m 0,44,45
 35 92 35 92 34.8427734375 93 c 1,46,47
 36 94 36 94 36.5 94 c 128,-1,48
 37 94 37 94 39.5 94 c 1,49,50
 40 88 40 88 40 81 c 0,51,52
 40 46 40 46 67 26 c 0,53,54
 93 6 93 6 142 6 c 0,55,56
 211 6 211 6 275 63 c 0,57,58
 308 93 308 93 364 169 c 1,59,60
 261 188 261 188 233 202 c 0,61,62
 170 235 170 235 171 303 c 24,63,64
 172 368 172 368 224 421 c 0,65,66
 294 491 294 491 374 490.879882812 c 0,67,68
 444 491 444 491 508 433 c 1,69,70
 537.426747637 508.088942247 537.426747637 508.088942247 558.101492242 577 c 0,71,72
 578.176585229 643.912357018 578.176585229 643.912357018 590 705 c 0,73,74
 595.124047295 732.816256745 595.124047295 732.816256745 600 762 c 0,75,76
 612 819 612 819 651 819 c 0,77,78
 685 819 685 819 685.846285965 776 c 0,79,80
 686.280873937 733.591253182 686.280873937 733.591253182 673 606 c 0,81,82
 645 340 645 340 643 196 c 1,83,84
 681 208 681 208 702 221 c 0,85,86
 716 230 716 230 721 228 c 0,87,88
 724 227 724 227 721 219 c 1,89,90
 679 198 679 198 643 189 c 1,91,92
 645 98 645 98 647 69 c 0,93,94
 650 17 650 17 652 0 c 1,95,96
 650 0 650 0 648 0 c 0,97,98
 636 -1 636 -1 635 0 c 1,99,100
 638 132 638 132 632 188 c 1,101,102
 534 170 534 170 448 168 c 24,103,-1
 372 168 l 1,104,105
 311 85 311 85 279 59 c 0,106,107
 209 -0 209 -0 143 0 c 0,108,109
 92 0 92 0 63.5 21.5 c 128,-1,110
 35 43 35 43 35 82 c 0,44,45
EndSplineSet
EndChar

StartChar: B_cap
Encoding: 268 -1 266
Width: 719
GlyphClass: 2
Flags: W
LayerCount: 2
Back
SplineSet
287.098632812 59 m 132,-1,1
 287.098632812 71 287.098632812 71 299.098632812 71 c 132,-1,2
 311.098632812 71 311.098632812 71 311.098632812 59 c 132,-1,3
 311.098632812 47 311.098632812 47 299.098632812 47 c 132,-1,0
 287.098632812 47 287.098632812 47 287.098632812 59 c 132,-1,1
EndSplineSet
Fore
SplineSet
204.39453125 469.5 m 0,0,1
 246.36328125 550 246.36328125 550 251.887695312 560 c 0,2,3
 256.306640625 568 256.306640625 568 260.352539062 576 c 1,4,5
 260.831054688 578 260.831054688 578 262.875 617 c 0,6,7
 268.116210938 717 268.116210938 717 274.147460938 813 c 1,8,-1
 251.046875 792 l 2,9,10
 213.264648438 758 213.264648438 758 178.522460938 782 c 0,11,12
 156.361328125 798 156.361328125 798 141.946289062 771 c 1,13,-1
 137.103515625 774 l 0,14,15
 138.3125 778 138.3125 778 145.336914062 788 c 0,16,17
 157.727539062 805 157.727539062 805 184.784179688 787 c 0,18,19
 218.68359375 766 218.68359375 766 248.30859375 797 c 0,20,21
 267.356445312 817 267.356445312 817 268.409179688 818 c 128,-1,22
 269.461914062 819 269.461914062 819 276.935546875 818.5 c 0,23,-1
 280.461914062 819 l 0,24,25
 280.147460938 813 280.147460938 813 279.833007812 807 c 0,26,27
 277.474609375 762 277.474609375 762 275.116210938 717 c 1,28,29
 273.072265625 678 273.072265625 678 268.459960938 590 c 1,30,31
 284.822265625 616 284.822265625 616 300.1328125 641 c 0,32,33
 411.356445312 817 411.356445312 817 480.409179688 818 c 0,34,35
 612.56640625 821 612.56640625 821 604.208007812 659 c 0,36,37
 601.088867188 602 601.088867188 602 555.194335938 542 c 0,38,39
 511.95703125 485 511.95703125 485 387.866210938 464.186523438 c 0,40,41
 374.751953125 462 374.751953125 462 362.647460938 460 c 1,42,43
 485.69921875 461 485.69921875 461 559.041015625 429.352539062 c 0,44,45
 662.6640625 384 662.6640625 384 669.899414062 274 c 0,46,47
 678.243164062 147 678.243164062 147 606.41796875 74 c 0,48,49
 532.171875 -2.4375 532.171875 -2.4375 408.591796875 1 c 0,50,51
 331.696289062 3 331.696289062 3 296.639648438 21 c 0,52,53
 263.53125 38 263.53125 38 257.333007812 52.388671875 c 0,54,55
 253.7890625 62 253.7890625 62 259.103515625 68 c 24,56,57
 267.522460938 76 267.522460938 76 275.208007812 70 c 0,58,59
 340.184570312 6.8076171875 340.184570312 6.8076171875 408.900390625 6.87890625 c 0,60,61
 525.90625 7 525.90625 7 601.626953125 78 c 0,62,63
 671.0859375 144 671.0859375 144 663.846679688 273 c 0,64,65
 658.454101562 380 658.454101562 380 555.744140625 423.69140625 c 0,66,67
 479.4375 456 479.4375 456 320.384765625 455 c 1,68,69
 322.384765625 455 322.384765625 455 387.170898438 470 c 0,70,71
 510.638671875 498 510.638671875 498 550.075195312 547 c 0,72,73
 594.141601562 603 594.141601562 603 596.969726562 659 c 0,74,75
 605.3046875 816 605.3046875 816 478.541992188 811 c 0,76,77
 411.884765625 808 411.884765625 808 304.305664062 634.75 c 1,78,-1
 266.516601562 572 l 1,79,80
 265.258789062 548 265.258789062 548 261.900390625 503 c 0,81,82
 251.877929688 369 251.877929688 369 226.752929688 233 c 0,83,84
 181.475585938 -2.0009765625 181.475585938 -2.0009765625 100.5390625 0 c 0,85,86
 -2.35546875 2 -2.35546875 2 64.134765625 164 c 0,87,88
 135.201171875 337 135.201171875 337 204.39453125 469.5 c 0,0,1
100.853515625 6 m 1,89,90
 178.853515625 6 178.853515625 6 219.802734375 234 c 0,91,92
 243.877929688 369 243.877929688 369 254.848632812 502 c 0,93,-1
 258.73046875 557 l 0,94,-1
 212.06640625 468 l 0,95,96
 140.095703125 335 140.095703125 335 71.134765625 164 c 24,97,98
 7.9501953125 6.9892578125 7.9501953125 6.9892578125 100.853515625 6 c 1,89,90
EndSplineSet
EndChar

StartChar: C_cap
Encoding: 269 -1 267
Width: 634
GlyphClass: 2
Flags: W
LayerCount: 2
Back
SplineSet
558.194335938 709 m 132,-1,0
 558.194335938 721 558.194335938 721 570.194335938 721 c 132,-1,1
 582.194335938 721 582.194335938 721 582.194335938 709 c 132,-1,2
 582.194335938 697 582.194335938 697 570.194335938 697 c 132,-1,3
 558.194335938 697 558.194335938 697 558.194335938 709 c 132,-1,0
EndSplineSet
Fore
SplineSet
316 0 m 128,-1,1
 159 0 159 0 92 141 c 0,2,3
 42 248 42 248 44.5263671875 351 c 0,4,5
 48 495 48 495 134 651 c 0,6,7
 162 702 162 702 195 736 c 0,8,9
 283 822 283 822 377 819 c 0,10,11
 503 815 503 815 556 743.0625 c 0,12,13
 577 715 577 715 569 703 c 0,14,15
 563 694 563 694 553.5 698.5 c 0,16,17
 546 702 546 702 548.159179688 713 c 0,18,19
 553 733 553 733 540 750 c 0,20,21
 493 806 493 806 377 812 c 0,22,23
 283.967773438 815.967773438 283.967773438 815.967773438 199 731 c 0,24,25
 168 700 168 700 140 648 c 0,26,27
 56 496 56 496 51.4912109375 350 c 0,28,29
 48 249 48 249 98.5 144 c 0,30,31
 163 7 163 7 316 7 c 0,32,33
 461 7 461 7 539 117 c 1,34,-1
 553 141 l 0,35,36
 557 139 557 139 558 138 c 1,37,38
 553 126 553 126 546 114 c 0,39,0
 473 0 473 0 316 0 c 128,-1,1
EndSplineSet
EndChar

StartChar: D_cap
Encoding: 270 -1 268
Width: 758
GlyphClass: 2
Flags: W
LayerCount: 2
Back
SplineSet
144.040039062 516 m 132,-1,1
 144.040039062 528 144.040039062 528 156.040039062 528 c 132,-1,2
 168.040039062 528 168.040039062 528 168.040039062 516 c 132,-1,3
 168.040039062 504 168.040039062 504 156.040039062 504 c 132,-1,0
 144.040039062 504 144.040039062 504 144.040039062 516 c 132,-1,1
EndSplineSet
Fore
SplineSet
481 0 m 0,0,1
 394.85546875 0 394.85546875 0 322.06640625 148 c 0,2,3
 296 201 296 201 267 245 c 1,4,5
 252 176 252 176 227 104 c 0,6,7
 196 16 196 16 149 4 c 0,8,9
 133 0 133 0 120 0.1484375 c 0,10,11
 49 1 49 1 49.025390625 84 c 0,12,13
 49 126 49 126 73 189 c 0,14,15
 115 298 115 298 203 298.03515625 c 0,16,17
 237 298 237 298 264 260 c 1,18,-1
 285.361328125 364 l 0,19,20
 306 453 306 453 342.041992188 629 c 0,21,22
 357 703 357 703 362 743 c 0,23,24
 364 760 364 760 365 761 c 1,25,26
 376 760 376 760 381 757 c 1,27,28
 380 750 380 750 378 742 c 256,29,30
 358 671 358 671 348.543945312 626 c 0,31,32
 320 494 320 494 292 363 c 0,33,-1
 269 253 l 1,34,35
 302.443359375 205.369140625 302.443359375 205.369140625 328 152 c 0,36,37
 398 7 398 7 482 7 c 0,38,39
 665 7 665 7 693 294 c 0,40,41
 696 325 696 325 696.052734375 355 c 0,42,43
 697 424 697 424 684 490.879882812 c 0,44,45
 636 749 636 749 484 791 c 0,46,47
 411 811 411 811 375 811.1484375 c 0,48,49
 269 810 269 810 189.5 732 c 0,50,51
 97 640 97 640 122 572 c 0,52,53
 137 532 137 532 153.450195312 528 c 0,54,55
 158 527 158 527 160.64453125 524 c 0,56,57
 163 521 163 521 163.458007812 516 c 0,58,59
 163 508 163 508 157 505.051757812 c 0,60,61
 155 504 155 504 150 503.908203125 c 0,62,63
 143 504 143 504 140 510 c 0,64,65
 131 524 131 524 115 570 c 0,66,67
 90 642 90 642 182 734 c 0,68,69
 268 820 268 820 375 819.112304688 c 0,70,71
 421 819 421 819 487 798 c 0,72,73
 646 749 646 749 692 490.879882812 c 0,74,75
 705 419 705 419 704.891601562 355 c 0,76,77
 705 324 705 324 702 294 c 0,78,79
 672 0 672 0 481 0 c 0,0,1
146.5 10 m 0,80,81
 191 23 191 23 220 106 c 1,82,83
 242 167 242 167 262 251 c 1,84,85
 236 292 236 292 202 291.122070312 c 0,86,87
 116 290 116 290 80 186 c 0,88,89
 58 122 58 122 57.734375 81 c 0,90,91
 58 7 58 7 121 6.23828125 c 0,92,93
 133 6 133 6 146.5 10 c 0,80,81
EndSplineSet
EndChar

StartChar: H_cap
Encoding: 271 -1 269
Width: 759
GlyphClass: 2
Flags: W
LayerCount: 2
Fore
SplineSet
587.776367188 575 m 1,0,1
 656.483398438 705 l 2,2,3
 693 774 693 774 686.325195312 791 c 0,4,5
 679 813 679 813 669.235351562 817 c 0,6,7
 655 822 655 822 638.235351562 817 c 0,8,9
 623 813 623 813 614.465820312 795 c 0,10,11
 606.479494557 776.814786299 606.479494557 776.814786299 600.088867188 727 c 2,12,-1
 580.845703125 577 l 1,13,14
 570 556 570 556 543.073242188 512 c 0,15,16
 517 470 517 470 478.424804688 450.513671875 c 0,17,18
 434 428 434 428 335.146484375 442.55859375 c 0,19,20
 297 448 297 448 273.717773438 438 c 1,21,22
 278 491 278 491 278.259765625 503 c 0,23,24
 281 581 281 581 283.30078125 590 c 1,25,26
 286 678 286 678 287.739257812 717 c 1,27,28
 290 762 290 762 290.884765625 807 c 0,29,30
 291 813 291 813 291.3046875 819 c 0,31,-1
 287.787109375 818.5 l 0,32,33
 280 819 280 819 279.26953125 818 c 0,34,35
 278 817 278 817 259.53515625 797 c 0,36,37
 229 765 229 765 196.186523438 787 c 0,38,39
 169 805 169 805 156.720703125 788 c 0,40,41
 150 778 150 778 148.731445312 774 c 0,42,-1
 153.626953125 771 l 1,43,44
 168 798 168 798 190.010742188 782 c 0,45,46
 225.318427452 757.781582711 225.318427452 757.781582711 262.361328125 792 c 2,47,-1
 285.094726562 813 l 1,48,49
 281 717 281 717 277.244140625 617 c 0,50,51
 276 578 276 578 275.436523438 576 c 0,52,-1
 271.224609375 502 l 0,53,54
 270 488 270 488 266.971679688 435 c 1,55,56
 167 399 167 399 79.41015625 164 c 1,57,58
 55 105 55 105 54.1796875 67 c 0,59,60
 52 -1 52 -1 125.678710938 0 c 0,61,62
 214 1 214 1 247.82421875 233 c 0,63,64
 268 370 268 370 273.047851562 430 c 1,65,66
 301 441 301 441 332.916992188 435.982421875 c 0,67,68
 433 420 433 420 482.212890625 444.435546875 c 0,69,70
 522 464 522 464 548.586914062 508 c 0,71,72
 569 541 569 541 578.216796875 559 c 1,73,74
 542.977539062 123 l 5,75,76
 541 0 541 0 615.278320312 0 c 4,77,78
 643 0 643 0 688.657226562 28 c 4,79,80
 700 35 700 35 703.211914062 40 c 4,81,82
 706 45 706 45 706.42578125 50 c 4,83,84
 707 54 707 54 704.635742188 56 c 4,85,86
 700 61 700 61 695.810546875 61 c 4,87,88
 690 61 690 61 686.7578125 59.5 c 4,89,90
 685 58 685 58 670.111328125 41 c 4,91,92
 641 6 641 6 615.887695312 6 c 4,93,94
 547 5 547 5 548.977539062 123 c 21,95,-1
 587.776367188 575 l 1,0,1
266.038085938 427 m 1,96,97
 257.981445312 352 257.981445312 352 240.857421875 234 c 0,98,99
 207.887695312 6 207.887695312 6 125.887695312 6 c 1,100,101
 59.748046875 2 59.748046875 2 61.5595703125 66 c 0,102,103
 62.2783203125 103 62.2783203125 103 85.3408203125 162 c 0,104,105
 173.485351562 395 173.485351562 395 266.038085938 427 c 1,96,97
589.370117188 592 m 1,106,-1
 608.018554688 725 l 1,107,108
 614.90625 779 614.90625 779 622.396484375 793 c 0,109,110
 632.025390625 811 632.025390625 811 654.059570312 812 c 0,111,112
 673.094726562 813 673.094726562 813 678.396484375 793 c 128,-1,113
 683.696289062 773 683.696289062 773 651.78125 712 c 0,114,115
 594.245117188 602.794921875 594.245117188 602.794921875 589.370117188 592 c 1,106,-1
EndSplineSet
EndChar

StartChar: K_cap
Encoding: 272 -1 270
Width: 742
GlyphClass: 2
Flags: W
LayerCount: 2
Back
SplineSet
669.080078125 49 m 132,-1,1
 669.080078125 61 669.080078125 61 681.080078125 61 c 132,-1,2
 693.080078125 61 693.080078125 61 693.080078125 49 c 132,-1,3
 693.080078125 37 693.080078125 37 681.080078125 37 c 132,-1,0
 669.080078125 37 669.080078125 37 669.080078125 49 c 132,-1,1
681.080078125 756 m 128,-1,1
 681.080078125 768 681.080078125 768 693.080078125 768 c 128,-1,2
 705.080078125 768 705.080078125 768 705.080078125 756 c 128,-1,3
 705.080078125 744 705.080078125 744 693.080078125 744 c 128,-1,0
 681.080078125 744 681.080078125 744 681.080078125 756 c 128,-1,1
EndSplineSet
Fore
SplineSet
545.474609375 280 m 0,0,1
 560.6796875 349.591796875 560.6796875 349.591796875 562.270507812 396 c 0,2,3
 566.599609375 522.2421875 566.599609375 522.2421875 449.79296875 518 c 0,4,5
 411.756835938 517 411.756835938 517 314.638671875 485 c 0,6,7
 305.534179688 482 305.534179688 482 296.39453125 478 c 1,8,9
 297.2890625 475 297.2890625 475 297.122070312 470.205078125 c 1,10,11
 298.150390625 471 298.150390625 471 311.32421875 476 c 0,12,13
 402.547851562 511 402.547851562 511 455.083007812 512 c 0,14,15
 561 514.016601562 561 514.016601562 556.737304688 395 c 0,16,17
 555.100585938 349.298828125 555.100585938 349.298828125 539.508789062 281 c 1,18,19
 520.874023438 177 520.874023438 177 517.986328125 123 c 24,20,21
 511.686523438 0 511.686523438 0 590.286132812 0 c 0,22,23
 617.686523438 0 617.686523438 0 663.666015625 28 c 0,24,25
 674.911132812 35 674.911132812 35 678.219726562 40 c 0,26,27
 681.259765625 45 681.259765625 45 681.435546875 50 c 0,28,29
 681.57421875 54 681.57421875 54 679.64453125 56 c 0,30,31
 674.819335938 61 674.819335938 61 670.819335938 61 c 0,32,33
 664.819335938 61 664.819335938 61 661.766601562 59.5 c 0,34,35
 659.71484375 58 659.71484375 58 645.120117188 41 c 0,36,37
 615.896484375 6 615.896484375 6 590.896484375 6 c 0,38,39
 517.931640625 7 517.931640625 7 523.986328125 123 c 0,40,41
 526.155273438 185.056640625 526.155273438 185.056640625 545.474609375 280 c 0,0,1
255.528320312 498 m 1,42,43
 249.842773438 405 249.842773438 405 224.866210938 234 c 0,44,45
 191.896484375 6 191.896484375 6 109.896484375 6 c 1,46,47
 45.849609375 2.0673828125 45.849609375 2.0673828125 45.568359375 66 c 0,48,49
 45.3564453125 105 45.3564453125 105 71.349609375 162 c 0,50,51
 103.174804688 228.642578125 103.174804688 228.642578125 255.528320312 498 c 1,42,43
257.7265625 438 m 1,52,53
 260.779296875 489 260.779296875 489 262.513671875 510 c 1,54,55
 431.69921875 793.634765625 431.69921875 793.634765625 655.469726562 794.858398438 c 0,56,57
 689.473632812 795 689.473632812 795 691.999023438 781.387695312 c 0,58,59
 692.810546875 776 692.810546875 776 689.565429688 769 c 0,60,61
 687.42578125 765 687.42578125 765 690.216796875 759 c 0,62,63
 694.006835938 753 694.006835938 753 702.041015625 754 c 128,-1,64
 710.076171875 755 710.076171875 755 712.286132812 761 c 0,65,66
 717.810546875 776 717.810546875 776 702.264648438 789 c 0,67,68
 687.71875 802 687.71875 802 656.717773438 801.959960938 c 0,69,70
 428.002929688 802.018554688 428.002929688 802.018554688 262.948242188 522 c 1,71,72
 265.030273438 582 265.030273438 582 267.309570312 590 c 1,73,74
 270.385742188 678 270.385742188 678 271.749023438 717 c 1,75,76
 273.321289062 762 273.321289062 762 274.893554688 807 c 0,77,78
 275.103515625 813 275.103515625 813 275.3125 819 c 0,79,-1
 271.795898438 818.5 l 0,80,81
 264.3125 819 264.3125 819 263.278320312 818 c 128,-1,82
 262.243164062 817 262.243164062 817 243.544921875 797 c 0,83,84
 213.42578125 765 213.42578125 765 180.194335938 787 c 0,85,86
 152.82421875 805 152.82421875 805 140.73046875 788 c 0,87,88
 133.879882812 778 133.879882812 778 132.740234375 774 c 0,89,-1
 137.634765625 771 l 1,90,91
 151.579101562 798 151.579101562 798 174.020507812 782 c 0,92,93
 209.400390625 757.850585938 209.400390625 757.850585938 246.369140625 792 c 2,94,-1
 269.103515625 813 l 1,95,96
 264.749023438 717 264.749023438 717 261.252929688 617 c 0,97,98
 260.381835938 592.059570312 260.381835938 592.059570312 259.446289062 576 c 2,99,-1
 255.602539062 510 l 1,100,101
 168.41015625 364 168.41015625 364 63.4189453125 164 c 1,102,103
 39.3564453125 105 39.3564453125 105 38.189453125 67 c 0,104,105
 35.65234375 -1 35.65234375 -1 109.686523438 0 c 0,106,107
 197.721679688 1 197.721679688 1 231.833007812 233 c 0,108,109
 251.620117188 370 251.620117188 370 257.7265625 438 c 1,52,53
EndSplineSet
EndChar

StartChar: M_cap
Encoding: 273 -1 271
Width: 1060
GlyphClass: 2
Flags: W
LayerCount: 2
Fore
SplineSet
841.28515625 228 m 16,0,1
 873 808 l 1,2,3
 861 751 861 751 848.635742188 694 c 0,4,5
 816 549 816 549 760.145507812 330 c 0,6,7
 698 89 698 89 608 12.5 c 1,8,9
 565 15 565 15 579 147 c 0,10,-1
 608 490.879882812 l 1,11,-1
 617.384765625 606 l 2,12,13
 633 763 633 763 634.260742188 777 c 0,14,15
 637 813 637 813 606 813 c 0,16,17
 568 813 568 813 548 704 c 0,18,19
 512 515 512 515 459.431640625 376 c 0,20,21
 373 145 373 145 241 49.068359375 c 0,22,23
 173 -1 173 -1 94 -1 c 0,24,25
 37 -1 37 -1 16 21 c 0,26,27
 -1 39 -1 39 -3 69 c 0,28,-1
 -5 95 l 1,29,30
 -2 95 -2 95 2 95 c 1,31,32
 3 84 3 84 4 69 c 0,33,34
 6 40 6 40 21 26 c 0,35,36
 44 5 44 5 92 6 c 0,37,38
 169 8 169 8 236 55.6650390625 c 0,39,40
 365 149 365 149 451.73828125 378 c 0,41,42
 504 517 504 517 541 706 c 0,43,44
 563 819 563 819 602 819 c 0,45,46
 645.610351562 819.991210938 645.610351562 819.991210938 641.180664062 774 c 2,47,-1
 625 606 l 2,48,49
 617 526 617 526 614.840820312 492 c 0,50,51
 591 191 591 191 586 146 c 0,52,53
 573 23 573 23 607 20 c 1,54,55
 683 88 683 88 753.563476562 330 c 0,56,57
 778 415 778 415 842 694 c 24,58,59
 866 799 866 799 871 819 c 1,60,61
 872 819 872 819 874 819 c 129,-1,62
 876 819 876 819 877 819 c 1,63,-1
 849.017578125 227 l 0,64,65
 847 7 847 7 917 6 c 0,66,67
 942 6 942 6 970 41 c 0,68,69
 984 58 984 58 986 59.5 c 0,70,71
 989 61 989 61 995 61 c 0,72,73
 999 61 999 61 1004 56 c 0,74,75
 1006 54 1006 54 1006 50 c 0,76,77
 1006 45 1006 45 1003.13476562 40 c 0,78,79
 1000 35 1000 35 989 28 c 0,80,81
 944 0 944 0 916.599609375 0 c 0,82,83
 838 0 838 0 841.28515625 228 c 16,0,1
EndSplineSet
EndChar

StartChar: O_cap
Encoding: 274 -1 272
Width: 656
GlyphClass: 2
Flags: W
LayerCount: 2
Fore
SplineSet
204 12 m 0,0,1
 88 55 88 55 65 201 c 0,2,3
 46 327 46 327 69 453 c 0,4,5
 99 619 99 619 180 708 c 0,6,7
 246 781 246 781 331.5 811 c 0,8,9
 346 816 346 816 389 818 c 0,10,11
 480 822 480 822 470 781.5 c 0,12,13
 468 773 468 773 473 771 c 0,14,15
 501 763 501 763 511 752 c 0,16,17
 552 710 552 710 570 586 c 0,18,19
 579.030273438 521.28515625 579.030273438 521.28515625 577.23828125 446 c 0,20,21
 575.458007812 371.21484375 575.458007812 371.21484375 563 286 c 0,22,23
 552 212 552 212 497 119 c 0,24,25
 450 40 450 40 405 19 c 0,26,27
 361 -1 361 -1 296 -0.396484375 c 0,28,29
 236 0 236 0 204 12 c 0,0,1
402 25 m 0,30,31
 446 46 446 46 490 122 c 0,32,33
 539 207 539 207 556 288 c 0,34,35
 569 355 569 355 570.69921875 445 c 0,36,37
 571.874023438 512.756835938 571.874023438 512.756835938 562.5 583.5 c 0,38,39
 546 709 546 709 500 748 c 0,40,41
 483 762 483 762 469 762 c 0,42,43
 451 762 451 762 458 775 c 0,44,45
 482 816 482 816 375 811 c 0,46,47
 290 807 290 807 186 703 c 0,48,49
 110 627 110 627 76 451 c 0,50,51
 54 337 54 337 72 203 c 0,52,53
 90 65 90 65 209 18 c 0,54,55
 241 6 241 6 296 6.703125 c 0,56,57
 364 7 364 7 402 25 c 0,30,31
EndSplineSet
EndChar

StartChar: P_cap
Encoding: 275 -1 273
Width: 719
GlyphClass: 2
Flags: W
LayerCount: 2
Back
SplineSet
148.828125 498 m 132,-1,1
 148.828125 510 148.828125 510 160.828125 510 c 132,-1,2
 172.828125 510 172.828125 510 172.828125 498 c 132,-1,3
 172.828125 486 172.828125 486 160.828125 486 c 132,-1,0
 148.828125 486 148.828125 486 148.828125 498 c 132,-1,1
EndSplineSet
Fore
SplineSet
118 52 m 0,0,1
 80 94 80 94 50 141 c 1,2,3
 53 145 53 145 65 154 c 1,4,5
 90 98 90 98 124 56 c 1,6,7
 170 6 170 6 237 6 c 0,8,9
 328 6 328 6 326.586914062 287 c 0,10,11
 326 449 326 449 263 603 c 0,12,13
 228 690 228 690 204 738 c 1,14,15
 172 719 172 719 143 699 c 256,16,17
 87 660 87 660 66 618 c 128,-1,18
 45 576 45 576 64 527 c 128,-1,19
 83 478 83 478 128 508 c 0,20,21
 139 515 139 515 146 506 c 0,22,23
 152 498 152 498 145 489 c 0,24,25
 134 475 134 475 110 475 c 0,26,27
 69 475 69 475 53 526 c 0,28,29
 38 574 38 574 59 619 c 0,30,31
 81 664 81 664 139 705 c 0,32,33
 211 756 211 756 266 776 c 0,34,35
 381 819 381 819 463 819.381835938 c 0,36,37
 587 820 587 820 634 723 c 0,38,39
 689 608 689 608 621 480 c 0,40,41
 587 415 587 415 544 391 c 0,42,43
 510 372 510 372 450 370 c 0,44,45
 415 369 415 369 411 370 c 257,46,47
 412 376 l 1,48,49
 430 376 430 376 447 376 c 0,50,51
 508 378 508 378 539 396 c 0,52,53
 585 424 585 424 614 483 c 0,54,55
 678 613 678 613 628 718 c 0,56,57
 582 813 582 813 462 812.708984375 c 0,58,59
 375 812 375 812 267 769.073242188 c 0,60,61
 234 756 234 756 211 742 c 1,62,63
 233 700 233 700 272 605 c 0,64,65
 336 450 336 450 335.076171875 286 c 0,66,67
 335 -4 335 -4 235 -2 c 0,68,69
 166 -1 166 -1 118 52 c 0,0,1
EndSplineSet
EndChar

StartChar: U_cap
Encoding: 276 -1 274
Width: 729
GlyphClass: 2
Flags: W
LayerCount: 2
Fore
SplineSet
498 170 m 0,1,-1
 504 223 l 1,2,3
 488 118 488 118 433 62.1123378519 c 0,4,5
 373 1 373 1 266 0 c 0,6,7
 146 -1 146 -1 115 78.0596668249 c 0,8,9
 92 136 92 136 113 228 c 0,10,11
 132 310 132 310 148.109848485 386.5 c 0,12,13
 165 467 165 467 172.12454824 594 c 0,14,15
 177 690 177 690 177 813 c 1,16,-1
 155 792 l 2,17,18
 119 758 119 758 83 782 c 0,19,20
 60 798 60 798 47 771 c 1,21,-1
 42 774 l 0,22,23
 43 778 43 778 49.5 788 c 0,24,25
 61 805 61 805 89 787 c 0,26,27
 123 765 123 765 152 797 c 0,28,29
 170 817 170 817 170.75 818.25 c 0,30,31
 172 819 172 819 179 819 c 0,32,-1
 184 819 l 0,33,34
 184 813 184 813 184 807 c 0,35,36
 184 682 184 682 180.001953125 594 c 0,37,38
 175 471 175 471 156 385 c 24,39,-1
 121 227 l 18,40,41
 101 136 101 136 122 82.6133789397 c 0,42,43
 152 7 152 7 263 7 c 0,44,45
 370 7 370 7 429 69.293730741 c 0,46,47
 484 127 484 127 501 232 c 1,48,-1
 511.138671875 294 l 0,49,-1
 566 673 l 0,50,-1
 578 794 l 0,51,52
 580 811 580 811 580.6015625 818.5 c 1,53,54
 590 820 590 820 601 819 c 1,55,56
 588.833786416 753.437626799 588.833786416 753.437626799 575.495800306 672 c 0,57,58
 549.366494752 512.46252435 549.366494752 512.46252435 518.740234375 292 c 0,59,60
 501.89444704 170.453647609 501.89444704 170.453647609 500.947849351 116 c 0,61,62
 501 7 501 7 572 6 c 0,63,64
 597 6 597 6 625 41 c 0,65,66
 639 58 639 58 641 59.5 c 0,67,68
 644 61 644 61 650 61 c 0,69,70
 654 61 654 61 659 56 c 0,71,72
 661 54 661 54 661 50 c 0,73,74
 661 45 661 45 658.134765625 40 c 0,75,76
 655 35 655 35 644 28 c 0,77,78
 599 0 599 0 571.599609375 0 c 0,79,80
 491.833676605 5.7544707931e-16 491.833676605 5.7544707931e-16 494.951699275 116 c 0,81,82
 496 153 496 153 498 170 c 0,1,-1
EndSplineSet
EndChar

StartChar: X_cap
Encoding: 277 -1 275
Width: 882
GlyphClass: 2
Flags: W
LayerCount: 2
Back
SplineSet
742.5 78 m 132,-1,0
 742.5 90 742.5 90 754.5 90 c 132,-1,1
 766.5 90 766.5 90 766.5 78 c 132,-1,2
 766.5 66 766.5 66 754.5 66 c 132,-1,3
 742.5 66 742.5 66 742.5 78 c 132,-1,0
EndSplineSet
Fore
SplineSet
607.740234375 0.08984375 m 0,0,1
 654 0 654 0 735.8515625 49.9287109375 c 0,2,3
 754 61 754 61 759 68.5 c 0,4,5
 763 74 763 74 762.290039062 80.73046875 c 0,6,7
 762 84 762 84 759.944335938 85.7666015625 c 0,8,9
 756 90 756 90 751.889648438 90.1298828125 c 0,10,11
 745 90 745 90 741.833007812 87.62109375 c 0,12,13
 739 85 739 85 719 67 c 0,14,15
 655 5 655 5 608.065429688 6.126953125 c 0,16,17
 446 11 446 11 432.293945312 225.58984375 c 0,18,19
 427 307 427 307 432.716796875 356.069335938 c 0,20,21
 444 449 444 449 453.129882812 503.275390625 c 0,22,23
 459 540 459 540 471.15234375 587.915039062 c 0,24,25
 524 814 524 814 663.534179688 812.712890625 c 0,26,27
 792 812 792 812 832 718 c 1,28,29
 838 721 838 721 842 725 c 1,30,31
 799 819 799 819 661.884765625 819.234375 c 0,32,33
 518 819 518 819 463.794921875 590.260742188 c 0,34,35
 453 545 453 545 450 528 c 1,36,37
 453 553 453 553 450.258789062 590.260742188 c 0,38,39
 431 819 431 819 260.412109375 819.107421875 c 0,40,41
 187 819 187 819 128.26171875 735.793945312 c 0,42,43
 127 734 127 734 129.934570312 731.612304688 c 0,44,-1
 136.625976562 727.4296875 l 0,45,46
 198 813 198 813 260.412109375 813.397460938 c 0,47,48
 424 813 424 813 442.999023438 587.915039062 c 0,49,50
 448 529 448 529 439.068359375 463.127929688 c 0,51,52
 422 323 422 323 420.65625 315.921875 c 0,53,54
 413 264 413 264 402.563476562 227.263671875 c 0,55,56
 345 5 345 5 212.251953125 6.4833984375 c 0,57,58
 166 7 166 7 137.297851562 13.166015625 c 0,59,60
 78 25 78 25 45 100 c 1,61,-1
 40.4404296875 98.45703125 l 0,62,63
 35 96 35 96 35 94 c 0,64,65
 69 21 69 21 134.952148438 6.826171875 c 0,66,67
 167 0 167 0 211.901367188 -0.0361328125 c 0,68,69
 354 0 354 0 408.622070312 223.91796875 c 0,70,71
 417 258 417 258 425 303 c 1,72,73
 425 237 425 237 426.125 224.245117188 c 0,74,75
 445 0 445 0 607.740234375 0.08984375 c 0,0,1
EndSplineSet
EndChar

StartChar: Y_cap
Encoding: 278 -1 276
Width: 614
GlyphClass: 2
Flags: W
LayerCount: 2
Back
SplineSet
73.314453125 20 m 132,-1,1
 73.314453125 32 73.314453125 32 85.314453125 32 c 132,-1,2
 97.314453125 32 97.314453125 32 97.314453125 20 c 132,-1,3
 97.314453125 8 97.314453125 8 85.314453125 8 c 132,-1,0
 73.314453125 8 73.314453125 8 73.314453125 20 c 132,-1,1
EndSplineSet
Fore
SplineSet
518.509765625 526 m 0,0,1
 523.544921875 603 523.544921875 603 555.865234375 819 c 1,2,-1
 539.865234375 819 l 1,3,4
 539.393554688 810 539.393554688 810 537.921875 801 c 0,5,6
 528.987304688 745 528.987304688 745 515.497070312 583 c 0,7,8
 512.71484375 549 512.71484375 549 510.666992188 529 c 1,9,10
 510.45703125 525 510.45703125 525 486.147460938 500 c 0,11,12
 468.204101562 482 468.204101562 482 385.639648438 414 c 0,13,14
 296.814453125 341 296.814453125 341 217.337890625 351 c 0,15,16
 177.600585938 356 177.600585938 356 169.64453125 395 c 0,17,18
 164.059570312 422 164.059570312 422 176.061523438 481 c 0,19,20
 199.073242188 594 199.073242188 594 204.866210938 696 c 0,21,22
 207.830078125 742 207.830078125 742 211.236328125 807 c 0,23,24
 211.55078125 813 211.55078125 813 211.865234375 819 c 0,25,-1
 206.865234375 819 l 0,26,27
 199.865234375 819 199.865234375 819 198.576171875 818.25 c 0,28,29
 197.760742188 817 197.760742188 817 178.711914062 797 c 0,30,31
 148.03515625 765 148.03515625 765 115.188476562 787 c 0,32,33
 88.1318359375 805 88.1318359375 805 75.740234375 788 c 0,34,35
 68.716796875 778 68.716796875 778 67.5068359375 774 c 0,36,-1
 72.349609375 771 l 1,37,38
 86.7646484375 798 86.7646484375 798 108.92578125 782 c 0,39,40
 143.884765625 757.850585938 143.884765625 757.850585938 181.450195312 792 c 2,41,-1
 204.55078125 813 l 1,42,-1
 197.889648438 697 l 24,43,44
 193.383789062 619 193.383789062 619 167.442382812 481 c 0,45,46
 154.587890625 413 154.587890625 413 163.067382812 384 c 0,47,48
 173.12890625 347 173.12890625 347 215.866210938 342 c 0,49,50
 292.39453125 333 292.39453125 333 389.377929688 409 c 0,51,52
 509.188476562 502.909179688 509.188476562 502.909179688 510.090820312 518 c 0,53,54
 501.962890625 382 501.962890625 382 507.088867188 289 c 0,55,56
 509.97265625 245.108398438 509.97265625 245.108398438 520.271484375 178 c 0,57,58
 528.755859375 130 528.755859375 130 526.6796875 94 c 0,59,60
 524.353515625 46 524.353515625 46 505.51953125 11 c 0,61,62
 483.37109375 -30 483.37109375 -30 418.798828125 -60 c 0,63,64
 362.436523438 -86 362.436523438 -86 298.396484375 -86.7587890625 c 0,65,66
 240.383789062 -87 240.383789062 -87 175.452148438 -66.6044921875 c 0,67,68
 126.270507812 -51 126.270507812 -51 106.008789062 -6 c 0,69,70
 98.51953125 11 98.51953125 11 96.1484375 23 c 0,71,72
 94.515625 30 94.515625 30 87.6005859375 31.626953125 c 0,73,74
 82.6728515625 33 82.6728515625 33 78.5673828125 31 c 0,75,76
 70.41015625 28 70.41015625 28 71.6240234375 13 c 0,77,78
 72.7333984375 -4 72.7333984375 -4 86.3955078125 -20 c 0,79,80
 116.956054688 -57 116.956054688 -57 173.150390625 -72.3740234375 c 0,81,82
 241.122070312 -92 241.122070312 -92 299.134765625 -91.74609375 c 0,83,84
 367.122070312 -92 367.122070312 -92 422.484375 -66 c 0,85,86
 482.952148438 -38 482.952148438 -38 510.2578125 6 c 0,87,88
 530.987304688 39 530.987304688 39 533.583007812 93 c 0,89,90
 534.861328125 132 534.861328125 132 527.428710938 181 c 0,91,92
 519.892578125 228 519.892578125 228 515.194335938 291 c 0,93,94
 508.962890625 382 508.962890625 382 518.509765625 526 c 0,0,1
EndSplineSet
EndChar

StartChar: a_small
Encoding: 279 -1 277
Width: 521
GlyphClass: 2
Flags: W
LayerCount: 2
Fore
SplineSet
328.283203125 111 m 0,0,1
 323.407226562 0 323.407226562 0 381.006835938 0 c 0,2,3
 408.407226562 0 408.407226562 0 454.384765625 28 c 0,4,5
 465.62890625 35 465.62890625 35 468.938476562 40 c 0,6,7
 471.978515625 45 471.978515625 45 472.153320312 50 c 0,8,9
 472.29296875 54 472.29296875 54 470.362304688 56 c 0,10,11
 465.537109375 61 465.537109375 61 461.537109375 61 c 0,12,13
 455.537109375 61 455.537109375 61 452.485351562 59.5 c 0,14,15
 450.432617188 58 450.432617188 58 435.838867188 41 c 0,16,17
 405.58203125 5 405.58203125 5 377.58203125 5 c 0,18,19
 330.58203125 5 330.58203125 5 334.702148438 123 c 16,20,21
 338.159179688 222 338.159179688 222 358.930664062 330 c 0,22,-1
 390.548828125 490.879882812 l 1,23,-1
 383.548828125 490.879882812 l 1,24,-1
 352.930664062 330 l 0,25,26
 333.823242188 241 333.823242188 241 328.283203125 111 c 0,0,1
330.549804688 90 m 0,27,-1
 329.474609375 94 l 1,28,29
 318 70 318 70 304.72265625 52 c 0,30,31
 276 11 276 11 201.616210938 6 c 0,32,33
 144 2 144 2 113.245117188 24 c 0,34,35
 66 56 66 56 53.6669921875 122 c 0,36,37
 26.599609375 278.275390625 26.599609375 278.275390625 129 427 c 0,38,39
 173.102539062 491.0546875 173.102539062 491.0546875 237.413085938 487 c 0,40,41
 285 484 285 484 318.37109375 457.143554688 c 0,42,43
 346.720703125 433.223632812 346.720703125 433.223632812 366.270507812 397 c 0,44,45
 367 396 367 396 369.486328125 402 c 1,46,47
 354 434 354 434 321.541015625 462 c 0,48,49
 290 490 290 490 236.587890625 492 c 0,50,51
 168 495 168 495 124.458007812 431 c 0,52,53
 15.8173828125 274.056640625 15.8173828125 274.056640625 47.59765625 120 c 0,54,55
 62 50 62 50 109.0703125 19 c 0,56,57
 143 -3 143 -3 201.924804688 0.5 c 0,58,59
 278 5 278 5 309.546875 48 c 0,60,61
 321 63 321 63 330.876953125 83 c 1,62,63
 330 88 330 88 330.549804688 90 c 0,27,-1
EndSplineSet
EndChar

StartChar: b_small
Encoding: 280 -1 278
Width: 467
GlyphClass: 2
Flags: W
LayerCount: 2
Fore
SplineSet
57 324 m 1048,0,-1
344 870.96875 m 0,1,2
 233 873 233 873 184 682 c 1,3,-1
 98 362 l 1,4,-1
 191 454 l 1,5,6
 287.798828125 557.551757812 287.798828125 557.551757812 340.84765625 626 c 0,7,8
 528.116503138 867.629583509 528.116503138 867.629583509 344 870.96875 c 0,1,2
95.44921875 352.45703125 m 1,9,10
 44 203 44 203 62 122 c 0,11,12
 77 54 77 54 121 24 c 0,13,14
 157 -1 157 -1 206 6 c 0,15,16
 320 22 320 22 364 181 c 0,17,18
 398 303 398 303 348 399 c 0,19,20
 330 434 330 434 303 457.143554688 c 0,21,22
 302 458 302 458 304 460 c 2,23,-1
 306 462 l 1,24,25
 336 435 336 435 353 403 c 0,26,27
 405 306 405 306 370 180 c 0,28,29
 324 13 324 13 206.5 0.5 c 0,30,31
 155 -5 155 -5 117 19 c 0,32,33
 75 45 75 45 56 120 c 0,34,35
 35 202 35 202 86.455078125 343.66015625 c 1,36,-1
 61 319 l 1,37,38
 54 321 54 321 57 324 c 2,39,-1
 90 357 l 1,40,41
 96 380 96 380 141 540 c 2,42,-1
 178 683 l 2,43,44
 229 880 229 880 345 876.029296875 c 0,45,46
 535 869 535 869 346.725585938 623 c 0,47,48
 293 553 293 553 196 449 c 1,49,-1
 95.44921875 352.45703125 l 1,9,10
EndSplineSet
EndChar

StartChar: c_small
Encoding: 281 -1 279
Width: 435
GlyphClass: 2
Flags: W
LayerCount: 2
Back
SplineSet
358.416992188 73 m 132,-1,0
 358.416992188 85 358.416992188 85 370.416992188 85 c 132,-1,1
 382.416992188 85 382.416992188 85 382.416992188 73 c 132,-1,2
 382.416992188 61 382.416992188 61 370.416992188 61 c 132,-1,3
 358.416992188 61 358.416992188 61 358.416992188 73 c 132,-1,0
EndSplineSet
Fore
SplineSet
51 183 m 24,0,1
 51 108 51 108 81 62 c 0,2,3
 101 30 101 30 131.5 16 c 0,4,5
 171 -2 171 -2 222.475585938 -0.6142578125 c 0,6,7
 258 0 258 0 292 12.9091796875 c 0,8,9
 306 18 306 18 348 46 c 0,10,11
 366 58 366 58 371 63 c 128,-1,12
 376 68 376 68 375 75 c 0,13,14
 374 80 374 80 371.5 82 c 128,-1,15
 369 84 369 84 365 85 c 0,16,17
 359 86 359 86 354 82 c 16,18,-1
 337.071289062 59 l 24,19,20
 315 29 315 29 288 17.533203125 c 128,-1,21
 261 6 261 6 223.41015625 4.876953125 c 0,22,23
 170 4 170 4 132.75 20.85546875 c 0,24,25
 108 32 108 32 86 66 c 0,26,27
 56 112 56 112 57.1435546875 185.55078125 c 0,28,29
 58 300 58 300 137.166992188 427 c 0,30,31
 175.876953125 489.413085938 175.876953125 489.413085938 235 487 c 0,32,33
 284 485 284 485 317 457.143554688 c 1,34,35
 349 430 349 430 367 397 c 1,36,-1
 371.041015625 401 l 1,37,38
 354 433 354 433 320.5 461.5 c 0,39,40
 286.356445312 490.584960938 286.356445312 490.584960938 234 492 c 0,41,42
 172 494 172 494 132 431 c 0,43,44
 51 303 51 303 51 183 c 24,0,1
EndSplineSet
EndChar

StartChar: m_small
Encoding: 282 -1 280
Width: 761
GlyphClass: 2
Flags: W
LayerCount: 2
Fore
SplineSet
356 407 m 0,0,1
 359 438 359 438 392 466.928710938 c 0,2,3
 422 492 422 492 487 491.76171875 c 0,4,5
 543 492 543 492 580 450 c 0,6,7
 642.920426489 379.452855149 642.920426489 379.452855149 578.37890625 106 c 0,8,9
 555.849914043 3.97936235057 555.849914043 3.97936235057 619.5 6 c 0,10,11
 648 7 648 7 676 41 c 0,12,13
 690 58 690 58 692 59.5 c 0,14,15
 695 61 695 61 701 61 c 0,16,17
 705 61 705 61 710 56 c 0,18,19
 712 54 712 54 712 50 c 0,20,21
 712 45 712 45 709.134765625 40 c 0,22,23
 706 35 706 35 695 28 c 0,24,25
 650 0 650 0 622.599609375 0 c 0,26,27
 546.862437855 0 546.862437855 0 572.572265625 107 c 0,28,29
 633.840284282 377.910907973 633.840284282 377.910907973 576 447.5 c 0,30,31
 544 486 544 486 486.5 487 c 128,-1,32
 429 488 429 488 397 463.145507812 c 0,33,34
 365 438 365 438 361 399 c 8,35,-1
 345.713867188 280 l 2,36,37
 321 88 321 88 320.35546875 42 c 0,38,39
 320 3 320 3 320.595703125 2 c 0,40,41
 320 -2 320 -2 307 -0.646484375 c 0,42,43
 301.185999953 -0.0200410106049 301.185999953 -0.0200410106049 301.584960938 3 c 2,44,-1
 306.869140625 43 l 0,45,-1
 338.180664062 280 l 1,46,-1
 350 365 l 1,47,-1
 356 407 l 0,0,1
349 359 m 1,48,49
 357 436 357 436 322 463 c 0,50,51
 295 484 295 484 227 486.094726562 c 0,52,53
 170 488 170 488 139 467.47265625 c 0,54,55
 110 449 110 449 103 412 c 0,56,57
 101 402 101 402 99.2392578125 391 c 0,58,59
 98 380 98 380 83.7138671875 280 c 0,60,61
 60 115 60 115 58.8095703125 44 c 0,62,63
 58 4 58 4 57.595703125 2 c 0,64,65
 57 -2 57 -2 44 -0.646484375 c 0,66,67
 38.1859881191 -0.0200397354852 38.1859881191 -0.0200397354852 38.5849609375 3 c 2,68,-1
 44.265625 46 l 0,69,-1
 75.1806640625 280 l 1,70,-1
 95 413 l 1,71,-1
 106 490.879882812 l 0,72,73
 111 491 111 491 113 490.879882812 c 1,74,75
 111 477 111 477 105 436 c 1,76,77
 111 457 111 457 135 472.1328125 c 0,78,79
 168 493 168 493 228 491.76171875 c 0,80,81
 289 491 289 491 325 467 c 0,82,83
 363 441 363 441 356 363 c 1,84,-1
 349 359 l 1,48,49
EndSplineSet
EndChar

StartChar: n_small
Encoding: 283 -1 281
Width: 524
GlyphClass: 2
Flags: W
LayerCount: 2
Fore
SplineSet
113 490.879882812 m 1,0,1
 108 460 108 460 104 430 c 1,2,3
 119 491 119 491 243 491.76171875 c 0,4,5
 311 492 311 492 348 450 c 0,6,7
 381 413 381 413 374 296 c 0,8,9
 371.185448827 249.55990565 371.185448827 249.55990565 364.933520103 204 c 0,10,11
 357.857720872 152.436273098 357.857720872 152.436273098 346.37890625 102 c 0,12,13
 336.431340321 59.4645837404 336.431340321 59.4645837404 347.401367188 29 c 0,14,15
 356 5 356 5 387.5 6 c 0,16,17
 416 7 416 7 444 41 c 0,18,19
 458 58 458 58 460 59.5 c 0,20,21
 463 61 463 61 469 61 c 0,22,23
 473 61 473 61 478 56 c 0,24,25
 480 54 480 54 480 50 c 0,26,27
 480 45 480 45 477.134765625 40 c 0,28,29
 474 35 474 35 463 28 c 0,30,31
 418 0 418 0 390.599609375 0 c 0,32,33
 352 0 352 0 342.662109375 27 c 0,34,35
 330.38533076 61.6917455732 330.38533076 61.6917455732 340.572265625 103 c 0,36,37
 351.89976507 153.220542615 351.89976507 153.220542615 358.915870209 204 c 0,38,39
 365.171823744 249.277817196 365.171823744 249.277817196 368 295 c 0,40,41
 374.036761488 409.149671772 374.036761488 409.149671772 344 445 c 0,42,43
 309 485 309 485 242 486.094726562 c 0,44,45
 117 489 117 489 102 412 c 0,46,47
 100 402 100 402 98.2392578125 391 c 0,48,49
 84.24145227 290.770810438 84.24145227 290.770810438 82.7138671875 280 c 0,50,51
 63 141 63 141 57.595703125 2 c 0,52,53
 57 -2 57 -2 44 -0.646484375 c 0,54,55
 38.1859702974 -0.0200378152451 38.1859702974 -0.0200378152451 38.5849609375 3 c 2,56,-1
 75.1806640625 280 l 1,57,-1
 95 413 l 1,58,-1
 106 490.879882812 l 0,59,60
 111 491 111 491 113 490.879882812 c 1,0,1
EndSplineSet
EndChar

StartChar: p_small
Encoding: 284 -1 282
Width: 539
GlyphClass: 2
Flags: W
LayerCount: 2
Fore
SplineSet
128 490.879882812 m 1,0,1
 123 462 123 462 119 431 c 1,2,3
 134 491 134 491 257 491.76171875 c 0,4,5
 325 492 325 492 362 450 c 0,6,7
 396 412 396 412 388 296 c 0,8,9
 383 223 383 223 360.37890625 102 c 0,10,11
 352 58 352 58 361.401367188 29 c 0,12,13
 370 5 370 5 401.5 6 c 0,14,15
 430 7 430 7 458 41 c 0,16,17
 472 58 472 58 474 59.5 c 0,18,19
 477 61 477 61 483 61 c 0,20,21
 487 61 487 61 492 56 c 0,22,23
 494 54 494 54 494 50 c 0,24,25
 494 45 494 45 491.134765625 40 c 0,26,27
 488 35 488 35 477 28 c 0,28,29
 432 0 432 0 404.599609375 0 c 0,30,31
 366 0 366 0 356.662109375 27 c 0,32,33
 346 58 346 58 354.572265625 103 c 0,34,35
 377 217 377 217 382 295 c 0,36,37
 389 408 389 408 358 445 c 0,38,39
 323 485 323 485 256 486.094726562 c 0,40,41
 132 489 132 489 117 412 c 0,42,43
 115 402 115 402 113.239257812 391 c 0,44,45
 107 358 107 358 97.7138671875 280 c 0,46,47
 60.4287109375 -27.5048828125 60.4287109375 -27.5048828125 40.8291015625 -188 c 0,48,49
 23 -334 23 -334 24 -378 c 0,50,51
 23 -385 23 -385 7.404296875 -383.646484375 c 0,52,53
 1.1904296875 -383.01953125 1.1904296875 -383.01953125 1.9892578125 -377 c 2,54,-1
 89.1806640625 280 l 1,55,-1
 109 413 l 1,56,-1
 120 490.879882812 l 0,57,58
 126 491 126 491 128 490.879882812 c 1,0,1
EndSplineSet
EndChar

StartChar: x_small
Encoding: 285 -1 283
Width: 500
GlyphClass: 2
Flags: W
LayerCount: 2
Fore
SplineSet
354.599609375 0 m 4,0,1
 382 0 382 0 427 28 c 4,2,3
 438 35 438 35 441.134765625 40 c 4,4,5
 444 45 444 45 444 50 c 4,6,7
 444 54 444 54 442 56 c 4,8,9
 437 61 437 61 433 61 c 4,10,11
 427 61 427 61 424 59.5 c 4,12,13
 422 58 422 58 408 41 c 4,14,15
 378 5 378 5 353 6 c 28,16,17
 309 8 309 8 271 47.8740234375 c 4,18,19
 248 73 248 73 242.543856005 136 c 4,20,21
 239 175 239 175 242.19921875 214 c 4,22,23
 243 226 243 226 255 302 c 4,24,25
 259 329 259 329 265.175943279 352 c 4,26,27
 300 483 300 483 379.583984375 484.590820312 c 4,28,29
 423 485 423 485 447 472 c 4,30,31
 467 461 467 461 480 430 c 5,32,33
 482 432 482 432 483.5 433 c 132,-1,34
 485 434 485 434 485 436 c 4,35,36
 469 468 469 468 449 478 c 4,37,38
 425 491 425 491 378 490.879882812 c 4,39,40
 296 491 296 491 259.5819915 354 c 4,41,42
 256 340 256 340 252.954101562 325.321289062 c 5,43,44
 253 340 253 340 251.489962489 354 c 4,45,46
 240 491 240 491 138 490.8046875 c 4,47,48
 94 491 94 491 59 441 c 4,49,50
 58 440 58 440 60 438.5 c 4,51,-1
 64 436 l 4,52,53
 98 485 98 485 138 485 c 4,54,55
 234 485 234 485 244.759035116 352 c 4,56,57
 248 305 248 305 244.80078125 278 c 4,58,59
 238.18027198 222.853024736 238.18027198 222.853024736 232 190 c 4,60,61
 227 162 227 162 219.390220828 137 c 4,62,63
 199.542896263 70.0875830935 199.542896263 70.0875830935 170.231445312 38 c 132,-1,64
 141 6 141 6 107.416015625 7.4091796875 c 4,65,66
 82 8 82 8 65 11.404296875 c 4,67,68
 34 18 34 18 13 64 c 5,69,70
 11 62 11 62 6.5 60 c 132,-1,71
 2 58 2 58 2 56 c 4,72,73
 23 14 23 14 63 5.22265625 c 4,74,75
 82 1 82 1 109 1.1201171875 c 4,76,77
 145 1 145 1 174.712890625 34 c 4,78,79
 209 71 209 71 226.599280944 135 c 4,80,81
 231 150 231 150 234.045898438 166.678710938 c 5,82,83
 234 149 234 149 235.867558252 134 c 4,84,85
 242 70 242 70 267 43.578125 c 4,86,87
 308 0 308 0 354.599609375 0 c 4,0,1
EndSplineSet
EndChar

StartChar: y_small
Encoding: 286 -1 284
Width: 448
GlyphClass: 2
Flags: W
LayerCount: 2
Fore
SplineSet
337.4453125 86.318359375 m 1,0,1
 323 -2 323 -2 181 0.23828125 c 0,2,3
 117 1 117 1 81 42 c 0,4,5
 49 78 49 78 55 196 c 0,6,7
 60 303 60 303 100 481 c 0,8,9
 102 490 102 490 102.25 490.75 c 0,10,11
 102 491 102 491 105 491 c 128,-1,12
 108 491 108 491 108 490.879882812 c 0,13,14
 107 487 107 487 106 481 c 0,15,16
 66 301 66 301 61 197 c 0,17,18
 55 82 55 82 85 47 c 0,19,20
 122 5 122 5 192 5.9052734375 c 0,21,22
 319 8 319 8 330 80 c 0,23,24
 336 117 336 117 335.221679688 123.0625 c 24,25,26
 335 125 335 125 335.140625 127 c 0,27,28
 335.037109375 176.311523438 335.037109375 176.311523438 343.676757812 263 c 0,29,30
 346.864257812 294.978515625 346.864257812 294.978515625 370 490.879882812 c 1,31,-1
 385 490.879882812 l 1,32,33
 358.013671875 323.897460938 358.013671875 323.897460938 351.806640625 262 c 0,34,35
 342 164.215820312 342 164.215820312 342 127 c 0,36,37
 343 73 343 73 363 -60 c 0,38,39
 397 -288 397 -288 288 -337 c 0,40,41
 187 -382 187 -382 94 -360 c 0,42,43
 35 -346 35 -346 12 -280 c 1,44,-1
 1 -232 l 2,45,46
 -5 -204 -5 -204 4 -195 c 0,47,48
 10 -189 10 -189 19.5 -194.5 c 0,49,50
 24 -197 24 -197 23.876953125 -205 c 0,51,52
 24 -208 24 -208 20 -225 c 0,53,54
 13 -256 13 -256 19 -277 c 0,55,56
 38 -340 38 -340 95 -355 c 0,57,58
 180 -377 180 -377 285 -331.5 c 0,59,60
 393 -284 393 -284 357 -62 c 0,61,62
 342 30 342 30 337.4453125 86.318359375 c 1,0,1
EndSplineSet
EndChar

StartChar: endash
Encoding: 256 8211 285
Width: 585
GlyphClass: 2
Flags: W
LayerCount: 2
Fore
SplineSet
286 384 m 0,0,1
 412 376 412 376 495 389 c 0,2,3
 508 391 508 391 507 378 c 0,4,5
 506 366 506 366 474 359 c 0,6,7
 452 354 452 354 357 352 c 0,8,9
 326 352 326 352 289 352 c 0,10,11
 102 352 102 352 86 342 c 0,12,13
 63 329 63 329 65 351 c 0,14,15
 68 381 68 381 79 380.5 c 128,-1,16
 90 380 90 380 100 381 c 0,17,18
 202 390 202 390 286 384 c 0,0,1
EndSplineSet
EndChar

StartChar: emdash
Encoding: 257 8212 286
Width: 726
GlyphClass: 2
Flags: W
LayerCount: 2
Fore
SplineSet
358 384 m 0,0,1
 552 375 552 375 645 389 c 0,2,3
 658 391 658 391 657 378 c 0,4,5
 656 367 656 367 624 359 c 0,6,7
 605 354 605 354 429 352 c 0,8,9
 398 352 398 352 361 352 c 0,10,11
 106 352 106 352 90 342 c 0,12,13
 67 329 67 329 69 351 c 0,14,15
 72 381 72 381 83 380.5 c 128,-1,16
 94 380 94 380 104 381 c 0,17,18
 230 390 230 390 358 384 c 0,0,1
EndSplineSet
EndChar

StartChar: dot
Encoding: 287 -1 287
Width: 135
Flags: W
LayerCount: 2
Fore
SplineSet
76 39 m 4,0,1
 78 5 78 5 52 0 c 4,2,3
 44 -1 44 -1 42 21 c 4,4,5
 38.173828125 59.2607421875 38.173828125 59.2607421875 54 69 c 4,6,7
 73.4931640625 80.37109375 73.4931640625 80.37109375 76 39 c 4,0,1
EndSplineSet
EndChar

StartChar: comma_tmpl
Encoding: 288 -1 288
Width: 135
Flags: W
LayerCount: 2
Fore
SplineSet
44 -91 m 5,0,-1
 38 -89 l 28,1,2
 61 -50 61 -50 64 35 c 5,3,-1
 76 35 l 5,4,5
 77 -51 77 -51 44 -91 c 5,0,-1
EndSplineSet
Refer: 287 -1 N 1 0 0 1 0 0 2
EndChar
